<?xml version="1.0" encoding="UTF-8"?>
<svg version="1.1" xmlns="http://www.w3.org/2000/svg" width="440" height="566">
<path d="M0 0 C1.58321242 0.99724184 3.14236107 2.03240738 4.69921875 3.0703125 C4.69921875 3.7303125 4.69921875 4.3903125 4.69921875 5.0703125 C5.68921875 5.4003125 6.67921875 5.7303125 7.69921875 6.0703125 C9.1479256 8.3970235 10.45713558 10.64146161 11.69921875 13.0703125 C12.06015625 13.6271875 12.42109375 14.1840625 12.79296875 14.7578125 C15.40301747 21.41793683 14.83871342 31.24486612 12.82421875 38.0078125 C11.62645588 40.27725794 10.36238258 42.11881122 8.69921875 44.0703125 C8.14492188 44.72386719 7.590625 45.37742188 7.01953125 46.05078125 C0.51133502 53.06517052 -5.80483883 54.80860096 -15.23828125 55.2578125 C-24.79142664 55.05572673 -32.0390446 51.44420012 -38.67578125 44.6328125 C-43.79413059 36.56156931 -45.39933429 27.80806163 -43.67578125 18.3203125 C-42.11790016 12.4915057 -38.87183896 7.04408533 -34.30078125 3.0703125 C-33.64078125 3.0703125 -32.98078125 3.0703125 -32.30078125 3.0703125 C-32.30078125 2.4103125 -32.30078125 1.7503125 -32.30078125 1.0703125 C-22.86779002 -4.79910426 -9.82569346 -5.21205744 0 0 Z " fill="#B98F7D" transform="translate(54.30078125,10.9296875)"/>
<path d="M0 0 C4.75481646 0.57634139 7.97048212 2.55068521 12 5 C12 5.66 12 6.32 12 7 C12.99 7.33 13.98 7.66 15 8 C16.44870685 10.326711 17.75791683 12.57114911 19 15 C19.36351562 15.55300781 19.72703125 16.10601563 20.1015625 16.67578125 C21.52022684 20.34580422 21.32824637 23.97619916 21.3125 27.875 C21.32861328 28.66519531 21.34472656 29.45539062 21.36132812 30.26953125 C21.36549343 35.27623099 20.67221421 38.61446639 18 43 C17.67 43 17.34 43 17 43 C16.87625 41.906875 16.7525 40.81375 16.625 39.6875 C16.24535199 35.92618198 16.24535199 35.92618198 14 33 C14 32.01 14 31.02 14 30 C13.07316406 29.81824219 12.14632812 29.63648437 11.19140625 29.44921875 C9.99386719 29.19785156 8.79632813 28.94648437 7.5625 28.6875 C6.36753906 28.44386719 5.17257813 28.20023438 3.94140625 27.94921875 C2.97074219 27.63597656 2.00007813 27.32273437 1 27 C0.67 26.01 0.34 25.02 0 24 C-0.66 24 -1.32 24 -2 24 C-1.67 21.69 -1.34 19.38 -1 17 C-1.85464844 17.01160156 -2.70929687 17.02320312 -3.58984375 17.03515625 C-4.69457031 17.04417969 -5.79929687 17.05320312 -6.9375 17.0625 C-8.03964844 17.07410156 -9.14179687 17.08570312 -10.27734375 17.09765625 C-13 17 -13 17 -14 16 C-14.27314815 10.26388889 -14.27314815 10.26388889 -14 8 C-12 6 -12 6 -10.125 5.76953125 C-9.42375 5.78371094 -8.7225 5.79789063 -8 5.8125 C-6.948125 5.82216797 -6.948125 5.82216797 -5.875 5.83203125 C-4 6 -4 6 -2 7 C-2 7.99 -2 8.98 -2 10 C-5.67410785 11.17571451 -9.16929183 11.07366746 -13 11 C-13 11.66 -13 12.32 -13 13 C-12.15695313 12.98839844 -11.31390625 12.97679687 -10.4453125 12.96484375 C-9.34960938 12.95582031 -8.25390625 12.94679688 -7.125 12.9375 C-6.03445312 12.92589844 -4.94390625 12.91429687 -3.8203125 12.90234375 C-1 13 -1 13 1 14 C1.027193 12.41676312 1.04648306 10.83338938 1.0625 9.25 C1.07410156 8.36828125 1.08570313 7.4865625 1.09765625 6.578125 C1.00826198 4.2181162 0.66912821 2.25501476 0 0 Z " fill="#D6D5D5" transform="translate(47,9)"/>
<path d="M0 0 C0 0.33 0 0.66 0 1 C-1.22976562 1.02126953 -1.22976562 1.02126953 -2.484375 1.04296875 C-9.0346946 1.20596454 -9.0346946 1.20596454 -14.75 4 C-16.44913 8.07791201 -16.72500426 11.64173574 -16 16 C-15.01268258 17.34275169 -14.01405257 18.67732273 -13 20 C-13.3125 23.75 -13.3125 23.75 -14 27 C-23.71428571 31 -23.71428571 31 -29 31 C-28.95359375 31.59167969 -28.9071875 32.18335938 -28.859375 32.79296875 C-28.66152511 37.12446804 -28.56345433 39.33153944 -31 43.0625 C-31.66 43.701875 -32.32 44.34125 -33 45 C-37.17842496 37.00649139 -38.13886433 27.8494924 -35.80078125 19.1015625 C-33.91058847 14.14095902 -31.02574121 9.49971103 -27 6 C-26.34 6 -25.68 6 -25 6 C-25 5.34 -25 4.68 -25 4 C-16.99305891 -0.98209668 -9.06833432 -0.40056446 0 0 Z " fill="#D7D6D6" transform="translate(47,8)"/>
<path d="M0 0 C2.44844434 0.68062536 4.8796523 1.39224146 7.3125 2.125 C8.00279297 2.31320313 8.69308594 2.50140625 9.40429688 2.6953125 C13.0865522 3.83378758 14.7757826 4.6636739 16.9375 7.90625 C18.41264432 12.20152315 19.17314647 15.54053938 18 20 C14.91958386 24.55061476 11.43724635 27.40527737 6.375 29.5 C3.18299268 29.97288997 0.22075099 30.1571098 -3 30 C-3.41486765 7.41276148 -3.41486765 7.41276148 0 0 Z " fill="#3C3A43" transform="translate(46,34)"/>
<path d="M0 0 C0.02903892 4.08331839 0.04681189 8.1666102 0.0625 12.25 C0.07087891 13.40886719 0.07925781 14.56773438 0.08789062 15.76171875 C0.09272461 17.43427734 0.09272461 17.43427734 0.09765625 19.140625 C0.10551147 20.68024902 0.10551147 20.68024902 0.11352539 22.25097656 C0.01336951 24.67625656 -0.30076922 26.68697361 -1 29 C-6.55505907 29.85462447 -9.54913731 27.71250713 -13.94921875 24.703125 C-16.06181222 22.94866642 -17.55656255 21.33456283 -19 19 C-18.58974359 14.58974359 -18.58974359 14.58974359 -17 13 C-16.76807135 11.48530552 -16.58784762 9.96245438 -16.4375 8.4375 C-16.35371094 7.61121094 -16.26992188 6.78492188 -16.18359375 5.93359375 C-16.12300781 5.29550781 -16.06242187 4.65742187 -16 4 C-14.41701974 3.5196682 -12.83360022 3.04078388 -11.25 2.5625 C-9.92742188 2.16224609 -9.92742188 2.16224609 -8.578125 1.75390625 C-2.58031088 0 -2.58031088 0 0 0 Z " fill="#666671" transform="translate(34,35)"/>
<path d="M0 0 C2.48666609 0.73014022 4.96235995 1.4825495 7.4375 2.25 C8.14455078 2.45496094 8.85160156 2.65992188 9.58007812 2.87109375 C11.62109375 3.515625 11.62109375 3.515625 15 5 C15.97265625 7.171875 15.97265625 7.171875 16 9 C14.6078125 9.12375 14.6078125 9.12375 13.1875 9.25 C9.45130904 10.12910376 9.08519578 10.96698795 7 14 C4.9140625 14.625 4.9140625 14.625 3 15 C2.73445313 15.99902344 2.46890625 16.99804688 2.1953125 18.02734375 C1.83896002 19.33084361 1.48216632 20.6342229 1.125 21.9375 C0.95097656 22.59685547 0.77695312 23.25621094 0.59765625 23.93554688 C0.12523763 25.641503 -0.43215028 27.32339261 -1 29 C-1.66 29.33 -2.32 29.66 -3 30 C-3.41486765 7.41276148 -3.41486765 7.41276148 0 0 Z " fill="#525261" transform="translate(46,34)"/>
<path d="M0 0 C1.90608098 3.21182149 2.22266247 5.53882603 2.125 9.25 C2.10695313 10.14203125 2.08890625 11.0340625 2.0703125 11.953125 C2.04710938 12.62859375 2.02390625 13.3040625 2 14 C-1.09477914 14 -4.10446346 13.76520744 -7.1875 13.5 C-8.27417969 13.4071875 -9.36085938 13.314375 -10.48046875 13.21875 C-11.31191406 13.1465625 -12.14335938 13.074375 -13 13 C-13 12.34 -13 11.68 -13 11 C-7.555 10.505 -7.555 10.505 -2 10 C-2 9.01 -2 8.02 -2 7 C-5.3 7 -8.6 7 -12 7 C-12.66 9.31 -13.32 11.62 -14 14 C-14.66 14 -15.32 14 -16 14 C-17.08959985 9.13870836 -17.50888031 7.05545546 -15.3125 2.5 C-11.34893543 -1.69005397 -5.2793282 -0.45467898 0 0 Z " fill="#878889" transform="translate(47,9)"/>
<path d="M0 0 C0.99 0.99 1.98 1.98 3 3 C2.34 4.32 1.68 5.64 1 7 C2.32 7.33 3.64 7.66 5 8 C4.7834375 9.546875 4.7834375 9.546875 4.5625 11.125 C3.7706178 17.39218196 3.41593834 23.69897659 3 30 C4.65 29.67 6.3 29.34 8 29 C7.97643433 27.84213989 7.97643433 27.84213989 7.95239258 26.66088867 C7.89010393 23.16983338 7.85102827 19.67889491 7.8125 16.1875 C7.77479492 14.36508789 7.77479492 14.36508789 7.73632812 12.50585938 C7.72666016 11.34248047 7.71699219 10.17910156 7.70703125 8.98046875 C7.6913208 7.90692139 7.67561035 6.83337402 7.65942383 5.72729492 C8 3 8 3 11 0 C10.34 9.57 9.68 19.14 9 29 C12.96 28.505 12.96 28.505 17 28 C16.67 28.66 16.34 29.32 16 30 C8.94811547 31.43916011 2.05767899 31.4115358 -5 30 C-3.68 29.67 -2.36 29.34 -1 29 C-0.67 19.43 -0.34 9.86 0 0 Z " fill="#A4A4AC" transform="translate(34,35)"/>
<path d="M0 0 C0 0.99 0 1.98 0 3 C-0.66 3 -1.32 3 -2 3 C-2 4.98 -2 6.96 -2 9 C-2.66 9 -3.32 9 -4 9 C-4.20625 9.598125 -4.4125 10.19625 -4.625 10.8125 C-6.56128293 13.89295011 -8.65174929 14.68696051 -12 16 C-14.875 16.1875 -14.875 16.1875 -17 16 C-16.34 13.69 -15.68 11.38 -15 9 C-14.34 9.66 -13.68 10.32 -13 11 C-10.84969261 8.15893159 -10.84969261 8.15893159 -10.3125 5 C-8.8926768 1.75468983 -8.54770431 1.43175846 -5.5 0.0625 C-2 -1 -2 -1 0 0 Z " fill="#322E38" transform="translate(61,48)"/>
<path d="M0 0 C1.2380014 3.57644848 0.74926071 6.33694766 0 10 C-0.99 10 -1.98 10 -3 10 C-3.66 9.01 -4.32 8.02 -5 7 C-5.99 6.67 -6.98 6.34 -8 6 C-8.02693575 8.12493141 -8.04636628 10.24995912 -8.0625 12.375 C-8.07410156 13.55835938 -8.08570313 14.74171875 -8.09765625 15.9609375 C-8.21466593 18.91921521 -8.21466593 18.91921521 -7 21 C-10.44004627 19.85331791 -11.26635169 19.12056696 -13 16 C-12.58974359 11.58974359 -12.58974359 11.58974359 -11 10 C-10.76807135 8.48530552 -10.58784762 6.96245438 -10.4375 5.4375 C-10.35371094 4.61121094 -10.26992188 3.78492188 -10.18359375 2.93359375 C-10.12300781 2.29550781 -10.06242187 1.65742187 -10 1 C-6.21812119 -0.83691257 -4.05431692 -1.15837626 0 0 Z " fill="#77737E" transform="translate(28,38)"/>
<path d="M0 0 C1.32 0.33 2.64 0.66 4 1 C4 1.66 4 2.32 4 3 C4.66 3 5.32 3 6 3 C7.01866229 4.65532623 8.01810813 6.32260138 9 8 C9.66 8.33 10.32 8.66 11 9 C11.268125 8.2575 11.53625 7.515 11.8125 6.75 C12.97059859 4.06808747 13.97489986 2.10298861 16 0 C17.32 0 18.64 0 20 0 C18.85569823 3.87302138 17.76679902 7.00263439 15 10 C14.34 10 13.68 10 13 10 C12.34 11.32 11.68 12.64 11 14 C8.20171644 13.61402985 7.1794116 13.19863427 5.25 11.0625 C4 9 4 9 4 7 C3.34 7 2.68 7 2 7 C0.5393715 4.35261084 0 3.10551666 0 0 Z " fill="#A7A7A7" transform="translate(80,30)"/>
<path d="M0 0 C0.70125 0.01417969 1.4025 0.02835938 2.125 0.04296875 C3.176875 0.05263672 3.176875 0.05263672 4.25 0.0625 C6.125 0.23046875 6.125 0.23046875 8.125 1.23046875 C8.125 2.22046875 8.125 3.21046875 8.125 4.23046875 C4.45089215 5.40618326 0.95570817 5.30413621 -2.875 5.23046875 C-2.875 5.89046875 -2.875 6.55046875 -2.875 7.23046875 C-2.03195313 7.19566406 -1.18890625 7.16085938 -0.3203125 7.125 C0.77539062 7.09792969 1.87109375 7.07085938 3 7.04296875 C4.63582031 6.99076172 4.63582031 6.99076172 6.3046875 6.9375 C7.23539063 7.03417969 8.16609375 7.13085938 9.125 7.23046875 C11.125 10.23046875 11.125 10.23046875 10.8828125 12.2734375 C10.296875 14.25911458 9.7109375 16.24479167 9.125 18.23046875 C8.08050089 15.09697143 8.19076355 14.24078619 9.125 11.23046875 C8.27035156 11.24207031 7.41570313 11.25367188 6.53515625 11.265625 C5.43042969 11.27464844 4.32570313 11.28367187 3.1875 11.29296875 C2.08535156 11.30457031 0.98320313 11.31617188 -0.15234375 11.328125 C-2.875 11.23046875 -2.875 11.23046875 -3.875 10.23046875 C-4.14814815 4.49435764 -4.14814815 4.49435764 -3.875 2.23046875 C-1.875 0.23046875 -1.875 0.23046875 0 0 Z " fill="#EAB89E" transform="translate(36.875,14.76953125)"/>
<path d="M0 0 C2.64 0.33 5.28 0.66 8 1 C7.67 8.59 7.34 16.18 7 24 C5.35 24.33 3.7 24.66 2 25 C1.80644787 17.34393782 1.6520257 10.33741969 4 3 C2.68 2.67 1.36 2.34 0 2 C0 1.34 0 0.68 0 0 Z " fill="#616976" transform="translate(35,40)"/>
<path d="M0 0 C2.475 0.495 2.475 0.495 5 1 C5.33 2.65 5.66 4.3 6 6 C6.99 5.01 7.98 4.02 9 3 C9.99 3.33 10.98 3.66 12 4 C12 6.97 12 9.94 12 13 C10.68 12.67 9.36 12.34 8 12 C7.67 12.99 7.34 13.98 7 15 C3.34683329 13.75023244 2.21934164 13.32901247 0 10 C-0.1953125 7.51953125 -0.1953125 7.51953125 -0.125 4.8125 C-0.10695313 3.91144531 -0.08890625 3.01039062 -0.0703125 2.08203125 C-0.04710938 1.39496094 -0.02390625 0.70789062 0 0 Z " fill="#4E4D5A" transform="translate(19,46)"/>
<path d="M0 0 C0.99 0 1.98 0 3 0 C2.67 1.98 2.34 3.96 2 6 C2.66 6.33 3.32 6.66 4 7 C3.34 7.66 2.68 8.32 2 9 C1.30062468 10.31647119 0.63270867 11.65022151 0 13 C-0.33 13.66 -0.66 14.32 -1 15 C-3.86724686 14.42655063 -4.8614515 14.1385485 -7 12 C-7.25 9 -7.25 9 -7 6 C-5 4 -5 4 -2.375 3.875 C-1.59125 3.91625 -0.8075 3.9575 0 4 C-0.33 3.01 -0.66 2.02 -1 1 C-0.67 0.67 -0.34 0.34 0 0 Z " fill="#AE857B" transform="translate(43,27)"/>
<path d="M0 0 C0.99 0.99 1.98 1.98 3 3 C2.34 4.32 1.68 5.64 1 7 C2.98 7.495 2.98 7.495 5 8 C4.17321655 15.02765937 3.09751783 22.00998353 2 29 C1.34 29 0.68 29 0 29 C0 19.43 0 9.86 0 0 Z " fill="#D6D1DB" transform="translate(34,35)"/>
<path d="M0 0 C0.45375 0.66 0.9075 1.32 1.375 2 C1.91125 2.66 2.4475 3.32 3 4 C3.66 4 4.32 4 5 4 C4.57550212 10.87979328 3.70240894 17.59955777 1 24 C0.34 24.33 -0.32 24.66 -1 25 C-1.15392039 16.61988971 -0.68271293 8.35104207 0 0 Z " fill="#545362" transform="translate(44,39)"/>
<path d="M0 0 C0.66 0.33 1.32 0.66 2 1 C2 1.99 2 2.98 2 4 C1.34 4 0.68 4 0 4 C0 5.98 0 7.96 0 10 C-0.66 10 -1.32 10 -2 10 C-2.99 11.485 -2.99 11.485 -4 13 C-6.625 13.1875 -6.625 13.1875 -9 13 C-9 12.34 -9 11.68 -9 11 C-8.01 11 -7.02 11 -6 11 C-5.67 8.69 -5.34 6.38 -5 4 C-4.01 3.67 -3.02 3.34 -2 3 C-2 2.34 -2 1.68 -2 1 C-1.34 0.67 -0.68 0.34 0 0 Z " fill="#242026" transform="translate(59,47)"/>
<path d="M0 0 C0.99 0 1.98 0 3 0 C3 2.97 3 5.94 3 9 C-2.29441695 9.50423019 -4.81413519 8.18923033 -9 5 C-8.34 4.34 -7.68 3.68 -7 3 C-6.01 3.99 -5.02 4.98 -4 6 C-3.67 4.68 -3.34 3.36 -3 2 C-2.01 2.33 -1.02 2.66 0 3 C0 2.01 0 1.02 0 0 Z " fill="#575763" transform="translate(30,55)"/>
<path d="M0 0 C0.33 0 0.66 0 1 0 C1 3.3 1 6.6 1 10 C-2.09477914 10 -5.10446346 9.76520744 -8.1875 9.5 C-9.27417969 9.4071875 -10.36085937 9.314375 -11.48046875 9.21875 C-12.72763672 9.11046875 -12.72763672 9.11046875 -14 9 C-14 8.34 -14 7.68 -14 7 C-8.555 6.505 -8.555 6.505 -3 6 C-3 5.01 -3 4.02 -3 3 C-3.66 2.67 -4.32 2.34 -5 2 C-4.01 2 -3.02 2 -2 2 C-1.67 3.32 -1.34 4.64 -1 6 C-0.67 4.02 -0.34 2.04 0 0 Z " fill="#AD8572" transform="translate(48,13)"/>
<path d="M0 0 C0.33 0 0.66 0 1 0 C1.71881901 4.31291408 1.93503953 7.6349788 -0.60546875 11.34375 C-4.23158438 15.09912679 -6.70069994 17.33178703 -12 18 C-11.67 17.34 -11.34 16.68 -11 16 C-10.01 16 -9.02 16 -8 16 C-7.67 14.35 -7.34 12.7 -7 11 C-6.01 11.33 -5.02 11.66 -4 12 C-4 10.02 -4 8.04 -4 6 C-3.34 6 -2.68 6 -2 6 C-1.34 4.02 -0.68 2.04 0 0 Z " fill="#6D6C70" transform="translate(63,45)"/>
<path d="M0 0 C0.66 0 1.32 0 2 0 C5.26357459 4.21545052 6.05197782 8.88068021 7 14 C3.34683329 12.75023244 2.21934164 12.32901247 0 9 C-0.1953125 6.73828125 -0.1953125 6.73828125 -0.125 4.3125 C-0.10695313 3.50425781 -0.08890625 2.69601563 -0.0703125 1.86328125 C-0.04710938 1.24839844 -0.02390625 0.63351563 0 0 Z " fill="#3B3842" transform="translate(19,47)"/>
<path d="M0 0 C1.98 0.66 3.96 1.32 6 2 C5.45912682 5.78611227 3.88277668 7.55400767 1 10 C0.34 10 -0.32 10 -1 10 C-1.125 2.25 -1.125 2.25 0 0 Z " fill="#4C4853" transform="translate(46,34)"/>
<path d="M0 0 C1.32 0.33 2.64 0.66 4 1 C4 4.63 4 8.26 4 12 C2 9 2 9 2 5 C-1.3 4.67 -4.6 4.34 -8 4 C-8 3.34 -8 2.68 -8 2 C-5.36 2.33 -2.72 2.66 0 3 C0 2.01 0 1.02 0 0 Z " fill="#554B44" transform="translate(44,10)"/>
<path d="M0 0 C0.97963374 3.17337094 1.00148074 5.69159758 0.66015625 8.984375 C0.56669922 9.91894531 0.47324219 10.85351562 0.37695312 11.81640625 C0.22129883 13.26853516 0.22129883 13.26853516 0.0625 14.75 C-0.03740234 15.73355469 -0.13730469 16.71710937 -0.24023438 17.73046875 C-0.48732902 20.15434959 -0.74079713 22.57738907 -1 25 C-1.33 25 -1.66 25 -2 25 C-2.05800828 21.39590081 -2.09359869 17.79192149 -2.125 14.1875 C-2.14175781 13.16333984 -2.15851562 12.13917969 -2.17578125 11.08398438 C-2.18222656 10.10107422 -2.18867187 9.11816406 -2.1953125 8.10546875 C-2.20578613 7.19949951 -2.21625977 6.29353027 -2.22705078 5.36010742 C-2 3 -2 3 0 0 Z " fill="#C1B9C4" transform="translate(44,35)"/>
<path d="M0 0 C6.125 -0.4375 6.125 -0.4375 9 1 C9 1.99 9 2.98 9 4 C2.6 5.23076923 2.6 5.23076923 -0.4375 4.0625 C-0.953125 3.711875 -1.46875 3.36125 -2 3 C-1.34 2.01 -0.68 1.02 0 0 Z " fill="#EABFAB" transform="translate(36,15)"/>
<path d="M0 0 C1.32 0 2.64 0 4 0 C3.54738642 1.43931117 3.08767021 2.87638999 2.625 4.3125 C2.36976562 5.11300781 2.11453125 5.91351563 1.8515625 6.73828125 C1 9 1 9 -1 12 C-1.33 11.67 -1.66 11.34 -2 11 C-1.93621032 9.32987017 -1.79971885 7.66219015 -1.625 6 C-1.53476562 5.0925 -1.44453125 4.185 -1.3515625 3.25 C-1 1 -1 1 0 0 Z " fill="#40404D" transform="translate(49,48)"/>
<path d="M0 0 C0 0.66 0 1.32 0 2 C2.31 2 4.62 2 7 2 C7 2.33 7 2.66 7 3 C4.36 3.33 1.72 3.66 -1 4 C-1.66 6.31 -2.32 8.62 -3 11 C-3.66 11 -4.32 11 -5 11 C-5.33 8.36 -5.66 5.72 -6 3 C-2.25 0 -2.25 0 0 0 Z " fill="#746662" transform="translate(36,12)"/>
<path d="M0 0 C2.442877 3.6643155 2.07844476 5.68553809 2 10 C2.33 10.66 2.66 11.32 3 12 C-0.44004627 10.85331791 -1.26635169 10.12056696 -3 7 C-2.75925978 3.62963689 -2.41201979 2.41201979 0 0 Z " fill="#636268" transform="translate(18,47)"/>
<path d="M0 0 C0.99 0 1.98 0 3 0 C2.67 1.98 2.34 3.96 2 6 C1.01 6.33 0.02 6.66 -1 7 C-1 7.66 -1 8.32 -1 9 C-1.99 9.33 -2.98 9.66 -4 10 C-4.33 8.02 -4.66 6.04 -5 4 C-3.35 4 -1.7 4 0 4 C-0.33 3.01 -0.66 2.02 -1 1 C-0.67 0.67 -0.34 0.34 0 0 Z " fill="#B18370" transform="translate(43,27)"/>
<path d="M0 0 C0.33 0.99 0.66 1.98 1 3 C1.66 3.165 2.32 3.33 3 3.5 C3.66 3.665 4.32 3.83 5 4 C5.33 4.99 5.66 5.98 6 7 C7.65 7 9.3 7 11 7 C10.01 7.495 10.01 7.495 9 8 C8.67 8.99 8.34 9.98 8 11 C7.34 11 6.68 11 6 11 C5.7525 10.195625 5.505 9.39125 5.25 8.5625 C4.27761141 5.828919 4.27761141 5.828919 1.875 5.1875 C1.25625 5.125625 0.6375 5.06375 0 5 C0 3.35 0 1.7 0 0 Z " fill="#5E5B66" transform="translate(19,41)"/>
<path d="M0 0 C0.99 1.32 1.98 2.64 3 4 C3.66 4 4.32 4 5 4 C4.625 6.4375 4.625 6.4375 4 9 C2.66666667 9.66666667 1.33333333 10.33333333 0 11 C0 7.37 0 3.74 0 0 Z " fill="#5D5C6B" transform="translate(44,39)"/>
<path d="M0 0 C0 0.99 0 1.98 0 3 C0.99 3.66 1.98 4.32 3 5 C1.68 5 0.36 5 -1 5 C-1 5.66 -1 6.32 -1 7 C0.32 7 1.64 7 3 7 C2.67 7.99 2.34 8.98 2 10 C0.68 10 -0.64 10 -2 10 C-2.1953125 3.9453125 -2.1953125 3.9453125 -2 2 C-1.34 1.34 -0.68 0.68 0 0 Z " fill="#D1AB98" transform="translate(35,15)"/>
<path d="M0 0 C1.32 0 2.64 0 4 0 C3.39816251 2.02045442 2.72693904 4.02111039 2 6 C1.01 6.495 1.01 6.495 0 7 C-0.33 6.34 -0.66 5.68 -1 5 C-1.99 5.495 -1.99 5.495 -3 6 C-1.125 1.125 -1.125 1.125 0 0 Z " fill="#BDBDBD" transform="translate(96,30)"/>
<path d="M0 0 C1.65 1.65 3.3 3.3 5 5 C3 7 3 7 0.375 7.125 C-0.40875 7.08375 -1.1925 7.0425 -2 7 C-1.34 4.69 -0.68 2.38 0 0 Z " fill="#383842" transform="translate(46,57)"/>
<path d="M0 0 C2.64 0.33 5.28 0.66 8 1 C7.67 3.31 7.34 5.62 7 8 C6.01 7.67 5.02 7.34 4 7 C4 5.68 4 4.36 4 3 C2.68 2.67 1.36 2.34 0 2 C0 1.34 0 0.68 0 0 Z " fill="#77737E" transform="translate(35,40)"/>
<path d="M0 0 C0.66 0 1.32 0 2 0 C2.98248524 4.0527516 3.08159574 7.83861737 3 12 C0.89366282 10.29171079 0.06198392 9.47851584 -0.29296875 6.73828125 C-0.25816406 5.93777344 -0.22335938 5.13726562 -0.1875 4.3125 C-0.16042969 3.50425781 -0.13335938 2.69601563 -0.10546875 1.86328125 C-0.07066406 1.24839844 -0.03585938 0.63351563 0 0 Z " fill="#26252C" transform="translate(19,47)"/>
<path d="M0 0 C0 1.98 0 3.96 0 6 C-2 5 -4 4 -6 3 C-3.375 0 -3.375 0 0 0 Z " fill="#322D34" transform="translate(63,44)"/>
<path d="M0 0 C-0.33 0.66 -0.66 1.32 -1 2 C-1.66 1.67 -2.32 1.34 -3 1 C-3 1.99 -3 2.98 -3 4 C-4.65 4 -6.3 4 -8 4 C-8.33 3.34 -8.66 2.68 -9 2 C-5.62902617 0.50178941 -3.79557881 0 0 0 Z " fill="#817D77" transform="translate(47,9)"/>
<path d="M0 0 C1.98 0 3.96 0 6 0 C6 0.66 6 1.32 6 2 C5.34 2.66 4.68 3.32 4 4 C1.375 3.625 1.375 3.625 -1 3 C-0.67 2.01 -0.34 1.02 0 0 Z " fill="#CF9E8E" transform="translate(37,29)"/>
<path d="M0 0 C0.33 0 0.66 0 1 0 C1 1.65 1 3.3 1 5 C1.66 5 2.32 5 3 5 C3.33 5.66 3.66 6.32 4 7 C4.99 7.66 5.98 8.32 7 9 C5.68 9.33 4.36 9.66 3 10 C0.64551835 7.44931155 0.01672076 6.28982642 -0.1875 2.75 C-0.125625 1.8425 -0.06375 0.935 0 0 Z " fill="#B3998C" transform="translate(30,18)"/>
<path d="M0 0 C1.67542976 0.28604898 3.34385343 0.61781233 5 1 C5 1.66 5 2.32 5 3 C3.35 3.33 1.7 3.66 0 4 C-0.33 3.01 -0.66 2.02 -1 1 C-0.67 0.67 -0.34 0.34 0 0 Z " fill="#FCCAB0" transform="translate(38,16)"/>
<path d="M0 0 C0 1.65 0 3.3 0 5 C-1.32 5.33 -2.64 5.66 -4 6 C-4 4.68 -4 3.36 -4 2 C-1 0 -1 0 0 0 Z " fill="#535D66" transform="translate(41,59)"/>
<path d="M0 0 C0.99 0.33 1.98 0.66 3 1 C3 1.99 3 2.98 3 4 C0.125 4.125 0.125 4.125 -3 4 C-3.66 3.34 -4.32 2.68 -5 2 C-3.68 2 -2.36 2 -1 2 C-0.67 1.34 -0.34 0.68 0 0 Z " fill="#6D6F78" transform="translate(30,60)"/>
<path d="M0 0 C0 0.99 0 1.98 0 3 C-0.66 3 -1.32 3 -2 3 C-2 3.66 -2 4.32 -2 5 C-2.99 5.33 -3.98 5.66 -5 6 C-5.33 4.68 -5.66 3.36 -6 2 C-4.02 1.34 -2.04 0.68 0 0 Z " fill="#805444" transform="translate(44,31)"/>
</svg>
