<?xml version="1.0" encoding="UTF-8"?>
<svg version="1.1" xmlns="http://www.w3.org/2000/svg" width="1050" height="1350">
<path d="M0 0 C346.5 0 693 0 1050 0 C1050 445.5 1050 891 1050 1350 C703.5 1350 357 1350 0 1350 C0 904.5 0 459 0 0 Z " fill="#FEFEFE" transform="translate(0,0)"/>
<path d="M0 0 C1.2684375 0.05671875 2.536875 0.1134375 3.84375 0.171875 C21.14733765 1.60248658 35.8887128 10.38120892 47.1484375 23.50390625 C58.73427584 39.26368199 64.4538784 57.53220574 61.71142578 77.05419922 C58.84241487 93.10910728 51.56998289 105.71590332 40 117 C39.319375 117.68964844 38.63875 118.37929687 37.9375 119.08984375 C30.53752139 126.13524005 20.78355882 130.35721398 11 133 C10.26910156 133.20496094 9.53820312 133.40992188 8.78515625 133.62109375 C-8.30760317 137.74497082 -25.89700301 134.74970529 -40.97265625 125.97265625 C-49.74629994 120.25563681 -58.69838868 113.20806177 -64 104 C-63.83548814 100.28997385 -62.42461884 97.77457787 -60.5625 94.625 C-57.59710926 88.99160728 -57.07477367 83.45734774 -56.5546875 77.22265625 C-55.95727512 73.75177444 -55.62546922 73.12498562 -53 71 C-51.19750977 70.24804687 -51.19750977 70.24804687 -49.19140625 69.71875 C-48.07886475 69.41795532 -48.07886475 69.41795532 -46.94384766 69.11108398 C-46.15800293 68.90942627 -45.3721582 68.70776855 -44.5625 68.5 C-43.7586084 68.28351807 -42.9547168 68.06703613 -42.12646484 67.84399414 C-36.57999656 66.36231218 -31.00574914 65.03252653 -25.3828125 63.87109375 C-22.41350022 62.97528049 -22.41350022 62.97528049 -19 59 C-18.67 83.42 -18.34 107.84 -18 133 C-16.02 133 -14.04 133 -12 133 C-12.02320313 131.97261719 -12.04640625 130.94523438 -12.0703125 129.88671875 C-12.18495484 122.484227 -12.00558402 115.60229255 -10.4375 108.328125 C-9.88264695 105.77032675 -9.88264695 105.77032675 -10 102.1875 C-10 98.00324538 -8.85701309 94.71402619 -7 91 C-6.9310528 89.62657169 -6.91532292 88.24997898 -6.9375 86.875 C-6.958125 85.59625 -6.97875 84.3175 -7 83 C-7.99 82.67 -8.98 82.34 -10 82 C-10.66 81.01 -11.32 80.02 -12 79 C-14.56282742 78.27034634 -14.56282742 78.27034634 -17 78 C-14.375 73.125 -14.375 73.125 -11 72 C-11.49371094 71.40574219 -11.98742187 70.81148438 -12.49609375 70.19921875 C-16.83266201 64.58872902 -18.68912098 60.65544144 -18.890625 53.5625 C-19.03765176 50.11787301 -19.91431922 47.25704233 -21 44 C-21.78375 43.938125 -22.5675 43.87625 -23.375 43.8125 C-26 43 -26 43 -27.16015625 40.87890625 C-28.15048527 37.4841505 -28.15909666 34.65657398 -28.0625 31.125 C-27.98115336 27.2162941 -27.99515314 24.02274297 -28.8125 20.1875 C-29.14278099 14.57272312 -25.95539236 10.39956764 -22.50390625 6.1640625 C-15.85089838 -0.92095887 -9.13324332 -0.42212469 0 0 Z " fill="#AD8773" transform="translate(100,21)"/>
<path d="M0 0 C12.25840682 -1.42539614 24.15105006 6.73157697 33.4375 13.875 C46.3777078 24.71679573 55.00641443 41.29375291 57 58 C58.24766526 75.43061756 54.81252172 93.47416147 43.3828125 107.29296875 C40.72044369 110.33767423 37.89507882 113.17645656 35 116 C34.319375 116.68964844 33.63875 117.37929687 32.9375 118.08984375 C25.53752139 125.13524005 15.78355882 129.35721398 6 132 C5.26910156 132.20496094 4.53820312 132.40992188 3.78515625 132.62109375 C-13.30760317 136.74497082 -30.89700301 133.74970529 -45.97265625 124.97265625 C-54.74629994 119.25563681 -63.69838868 112.20806177 -69 103 C-68.83548814 99.28997385 -67.42461884 96.77457787 -65.5625 93.625 C-62.59710926 87.99160728 -62.07477367 82.45734774 -61.5546875 76.22265625 C-60.95727512 72.75177444 -60.62546922 72.12498562 -58 70 C-56.19750977 69.24804687 -56.19750977 69.24804687 -54.19140625 68.71875 C-53.07886475 68.41795532 -53.07886475 68.41795532 -51.94384766 68.11108398 C-51.15800293 67.90942627 -50.3721582 67.70776855 -49.5625 67.5 C-48.7586084 67.28351807 -47.9547168 67.06703613 -47.12646484 66.84399414 C-41.57999656 65.36231218 -36.00574914 64.03252653 -30.3828125 62.87109375 C-27.41350022 61.97528049 -27.41350022 61.97528049 -24 58 C-23.67 82.42 -23.34 106.84 -23 132 C-14.20513276 132.08607361 -14.20513276 132.08607361 -6 130 C-5.97514838 124.5922885 -5.95706853 119.18461079 -5.94506836 113.77685547 C-5.94006181 111.93993551 -5.9332546 110.10301949 -5.92456055 108.26611328 C-5.91233303 105.61489892 -5.90673477 102.96373757 -5.90234375 100.3125 C-5.89718246 99.50071289 -5.89202118 98.68892578 -5.88670349 97.85253906 C-5.88633326 94.0281913 -6.03814314 90.35856211 -6.58422852 86.5703125 C-7 83 -7 83 -5.75 80.5625 C-4 79 -4 79 -1 78 C-2.485 77.01 -2.485 77.01 -4 76 C-4 75.34 -4 74.68 -4 74 C-5.485 73.505 -5.485 73.505 -7 73 C-6.08638422 71.60216786 -5.16894254 70.20683607 -4.25 68.8125 C-3.73953125 68.03519531 -3.2290625 67.25789063 -2.703125 66.45703125 C-0.91131936 63.87206394 1.02533305 61.4469474 3 59 C2.31190331 68.214903 1.55749438 77.42285075 0.75268555 86.62817383 C0.62637273 88.07890648 0.50136267 89.52975317 0.37768555 90.98071289 C-0.40747759 100.18948052 -1.36176295 109.35320394 -2.55639648 118.51831055 C-3.12794432 123.00419036 -3.58865983 127.49690762 -4 132 C16.9410264 127.27800385 32.89034403 118.05183599 45 100 C46.85818267 96.28363466 46.45322954 92.05521168 46 88 C45.14267676 85.84889804 44.10776143 83.95286232 42.9453125 81.953125 C41.88870984 79.77006166 41.63662777 78.03184865 41.4375 75.625 C41.293125 74.42875 41.14875 73.2325 41 72 C38.34591497 70.23060998 36.94892077 69.58532395 33.97265625 68.8515625 C33.18560303 68.65304688 32.3985498 68.45453125 31.58764648 68.25 C30.75434814 68.04375 29.9210498 67.8375 29.0625 67.625 C16.9498002 64.50003145 16.9498002 64.50003145 11.9375 63 C11.01839844 62.731875 10.09929687 62.46375 9.15234375 62.1875 C6.31388963 60.62145635 5.88573654 59.04253004 5 56 C4.34 56 3.68 56 3 56 C2.62189556 50.95860749 3.45193124 46.39358358 6 42 C6.99 41.67 7.98 41.34 9 41 C10.03038956 38.43957934 10.03038956 38.43957934 10.6875 35.4375 C10.93886719 34.42558594 11.19023438 33.41367187 11.44921875 32.37109375 C11.63097656 31.58863281 11.81273438 30.80617188 12 30 C11.34 30 10.68 30 10 30 C10.10699219 29.11699219 10.21398437 28.23398437 10.32421875 27.32421875 C11.10028994 19.55516196 11.52404832 12.1880408 8 5 C5.53006555 2.83819599 2.97070526 1.37925602 0 0 Z " fill="#D6D6D7" transform="translate(105,22)"/>
<path d="M0 0 C0 0.33 0 0.66 0 1 C-0.63502441 0.98428955 -1.27004883 0.9685791 -1.92431641 0.95239258 C-4.8244523 0.8897141 -7.72444524 0.85090583 -10.625 0.8125 C-12.12353516 0.77479492 -12.12353516 0.77479492 -13.65234375 0.73632812 C-20.15587231 0.67172354 -24.76082271 1.08544614 -29.79296875 5.61328125 C-30.25316406 6.17402344 -30.71335938 6.73476563 -31.1875 7.3125 C-31.65542969 7.86550781 -32.12335938 8.41851562 -32.60546875 8.98828125 C-36.19646035 14.16856325 -37.3783866 17.62181947 -36.6875 23.9375 C-36.31226621 27.58089902 -36.0001001 31.09639973 -36.00390625 34.76171875 C-35.99985907 38.1168347 -35.69869664 40.11221571 -34 43 C-33.0409375 43.185625 -33.0409375 43.185625 -32.0625 43.375 C-30 44 -30 44 -28.3125 46.875 C-27.072153 50.05704205 -26.86197283 52.85186798 -26.75 56.25 C-26.34487909 63.04284124 -22.96058088 67.65373286 -19 73 C-19.61875 73.103125 -20.2375 73.20625 -20.875 73.3125 C-23.36526484 73.87525373 -23.36526484 73.87525373 -25 77 C-23.9171875 77.309375 -23.9171875 77.309375 -22.8125 77.625 C-19.06868406 79.45531001 -17.3173718 81.55704761 -15 85 C-14.42730422 89.17249782 -14.63913878 90.45870816 -17 94 C-17.86497265 97.02740427 -17.9912052 99.51889297 -17.9375 102.6875 C-17.89155443 105.78308291 -18.24810151 108.48388159 -18.9375 111.5 C-20.50040521 118.57186897 -20.65992516 125.78683367 -21 133 C-22.98 133 -24.96 133 -27 133 C-27.85811229 124.22829755 -28.19865866 115.51344016 -28.31640625 106.703125 C-28.33718735 105.38834167 -28.35796844 104.07355835 -28.37937927 102.71893311 C-28.43389817 99.26677016 -28.48360898 95.81455511 -28.53222656 92.36230469 C-28.58296287 88.8222199 -28.6383734 85.28220838 -28.69335938 81.7421875 C-28.80007891 74.82818877 -28.90170562 67.91412351 -29 61 C-29.42168457 61.47381104 -29.84336914 61.94762207 -30.27783203 62.43579102 C-32.99560966 64.90429133 -36.37473532 65.22308188 -39.875 65.9375 C-46.57238899 67.39666362 -53.03678859 69.14338552 -59.55859375 71.265625 C-62 72 -62 72 -64 72 C-64.08636719 73.11117187 -64.17273438 74.22234375 -64.26171875 75.3671875 C-65.16184458 85.38686097 -66.21808821 94.78528295 -74 102 C-83.13279848 85.75559614 -86.38892834 66.7801292 -82.08203125 48.40625 C-76.93636505 30.54312454 -64.5006218 15.89306108 -48.56054688 6.74853516 C-33.75372183 -1.36832428 -16.62496782 -3.69073916 0 0 Z " fill="#D8D7D9" transform="translate(109,21)"/>
<path d="M0 0 C0.58007812 0.58523437 1.16015625 1.17046875 1.7578125 1.7734375 C6.43987374 4.98882895 11.43312566 6.14501973 16.875 7.625 C17.93847656 7.9240625 19.00195312 8.223125 20.09765625 8.53125 C23.80792058 9.57288943 27.51757568 10.61409293 31.24707031 11.58496094 C34.18747779 12.36612564 35.80485914 12.80485914 38 15 C38.52734375 17.171875 38.52734375 17.171875 38.9375 19.75 C39.51610827 22.9902063 40.03840034 25.07089294 41.625 28 C43.64517857 32.40766234 43.87294209 36.23849767 43 41 C41.44532827 44.39408188 39.35983151 47.12252803 37 50 C36.43152344 50.74121094 35.86304688 51.48242188 35.27734375 52.24609375 C25.76097789 63.90414705 10.7065236 73.11572567 -4.4375 74.875 C-5.613125 74.91625 -6.78875 74.9575 -8 75 C-8.28336845 65.61105876 -7.18898182 56.43304171 -6.125 47.125 C-5.84540585 44.63245637 -5.56752844 42.13972595 -5.28994751 39.6469574 C-5.10806891 38.01372236 -4.92560072 36.38055286 -4.74252319 34.74745178 C-3.96909806 27.81867656 -3.27317389 20.88310059 -2.68408203 13.93603516 C-2.23899255 9.1102685 -1.26360457 4.6628053 0 0 Z " fill="#50505F" transform="translate(109,79)"/>
<path d="M0 0 C0.98641629 3.29472464 1.12668858 6.27935425 1.12939453 9.71142578 C1.13254669 10.86007111 1.13569885 12.00871643 1.13894653 13.19216919 C1.1369223 14.43070648 1.13489807 15.66924377 1.1328125 16.9453125 C1.13376923 18.22550262 1.13472595 19.50569275 1.13571167 20.82467651 C1.13718513 23.53645025 1.13504748 26.24819104 1.13037109 28.95996094 C1.12470826 32.4093346 1.12793301 35.85862985 1.13394356 39.30800056 C1.13846486 42.6246105 1.13528004 45.94120035 1.1328125 49.2578125 C1.13483673 50.48420441 1.13686096 51.71059631 1.13894653 52.97415161 C1.12075556 59.71207673 0.84001584 66.31232433 0 73 C-18.53815431 70.68273071 -30.43882077 61.55191864 -42.41015625 47.6484375 C-44 45 -44 45 -43.8984375 42.4375 C-42.99031604 39.97372698 -41.8977435 37.88342372 -40.5625 35.625 C-37.59710926 29.99160728 -37.07477367 24.45734774 -36.5546875 18.22265625 C-35.95727512 14.75177444 -35.62546922 14.12498562 -33 12 C-31.19750977 11.24804688 -31.19750977 11.24804688 -29.19140625 10.71875 C-28.44963135 10.51822021 -27.70785645 10.31769043 -26.94360352 10.11108398 C-26.15783936 9.90942627 -25.3720752 9.70776855 -24.5625 9.5 C-23.7593335 9.28351807 -22.95616699 9.06703613 -22.12866211 8.84399414 C-16.55049713 7.35280152 -10.94346496 6.02503856 -5.28515625 4.87109375 C-2.49333439 3.8068608 -1.55131625 2.5036094 0 0 Z " fill="#5E5D6A" transform="translate(80,80)"/>
<path d="M0 0 C0.66 0 1.32 0 2 0 C2.27714844 0.69867188 2.55429688 1.39734375 2.83984375 2.1171875 C3.38318359 3.48230469 3.38318359 3.48230469 3.9375 4.875 C4.47697266 6.23238281 4.47697266 6.23238281 5.02734375 7.6171875 C5.94901262 9.96137667 5.94901262 9.96137667 7 12 C7.8204289 17.49375806 7.5655338 21.84373794 4.5 26.5625 C3.36249959 28.06421168 2.19462897 29.54332338 1 31 C0.43152344 31.74121094 -0.13695312 32.48242188 -0.72265625 33.24609375 C-9.59060966 44.10980738 -21.70259512 51.00137 -35 55 C-37.9375 55.15234375 -37.9375 55.15234375 -40 55 C-39.70867187 54.18402344 -39.41734375 53.36804688 -39.1171875 52.52734375 C-35.07855565 40.8559517 -32.01284288 28.97179878 -29 17 C-28.67 17 -28.34 17 -28 17 C-28.33 19.97 -28.66 22.94 -29 26 C-26.12688428 26.05175552 -26.12688428 26.05175552 -23 25 C-21.38680998 22.62766173 -20.21446519 20.55439166 -19 18 C-18.26045966 16.68157809 -17.51086118 15.36873371 -16.75 14.0625 C-16.1725 13.051875 -15.595 12.04125 -15 11 C-14.34 11 -13.68 11 -13 11 C-12.9175 10.38125 -12.835 9.7625 -12.75 9.125 C-12 7 -12 7 -9.9375 5.75 C-9.298125 5.5025 -8.65875 5.255 -8 5 C-8 5.66 -8 6.32 -8 7 C-4.88667752 6.33131686 -4.88667752 6.33131686 -3.8125 3.9375 C-3.544375 3.298125 -3.27625 2.65875 -3 2 C-2.505 2.495 -2.505 2.495 -2 3 C-1.34 2.01 -0.68 1.02 0 0 Z " fill="#2B242D" transform="translate(145,98)"/>
<path d="M0 0 C4.40299125 3.3098348 4.94916529 8.8753814 6 14 C6.43212482 19.18549788 5.59101844 23.12750602 4 28 C4.66 28 5.32 28 6 28 C6 28.66 6 29.32 6 30 C4.35 30 2.7 30 1 30 C0.95101562 29.43152344 0.90203125 28.86304687 0.8515625 28.27734375 C0.20598066 20.9492949 0.20598066 20.9492949 -2 14 C-7.1942579 12.01552711 -12.10041817 11.60642335 -17.625 11.5625 C-18.36234375 11.52962891 -19.0996875 11.49675781 -19.859375 11.46289062 C-23.9823996 11.42225149 -25.54475399 11.6423067 -28.8984375 14.27734375 C-32.34879688 18.74741901 -33.25534064 21.58188988 -33.625 27.25 C-33.69976562 28.32765625 -33.77453125 29.4053125 -33.8515625 30.515625 C-33.90054688 31.33546875 -33.94953125 32.1553125 -34 33 C-37.5948641 27.60770385 -40 20.47709881 -40 14 C-37.50458304 7.45671774 -33.09029456 1.02434917 -26.6953125 -2.140625 C-18.30145693 -4.81692678 -8.02208244 -3.39610807 0 0 Z " fill="#605954" transform="translate(111,24)"/>
<path d="M0 0 C19.25476603 -0.59077123 19.25476603 -0.59077123 25 3 C26.26092112 7.82375639 26.21597224 12.79045366 26.25 17.75 C26.270625 18.51699219 26.29125 19.28398438 26.3125 20.07421875 C26.328125 22.296875 26.328125 22.296875 26 26 C23 28 23 28 20.3125 27.625 C19.549375 27.41875 18.78625 27.2125 18 27 C18 26.34 18 25.68 18 25 C17.01 25 16.02 25 15 25 C15 25.66 15 26.32 15 27 C7.74 27 0.48 27 -7 27 C-7 22.38 -7 17.76 -7 13 C-6.01 13.495 -6.01 13.495 -5 14 C-5 15.32 -5 16.64 -5 18 C-0.6835078 18.76173392 2.74433453 19.16063604 7 18 C7 17.34 7 16.68 7 16 C9.12493141 15.97306425 11.24995912 15.95363372 13.375 15.9375 C14.55835937 15.92589844 15.74171875 15.91429687 16.9609375 15.90234375 C20 16 20 16 22 17 C21.34 16.34 20.68 15.68 20 15 C18.68 15 17.36 15 16 15 C16 14.34 16 13.68 16 13 C16.66 12.67 17.32 12.34 18 12 C15.69 11.67 13.38 11.34 11 11 C11 11.66 11 12.32 11 13 C6.33333333 12.33333333 1.66666667 11.66666667 -3 11 C-2.44683414 7.03564468 -1.54379132 3.6837622 0 0 Z " fill="#F8C0A7" transform="translate(85,35)"/>
<path d="M0 0 C0.99 0 1.98 0 3 0 C3.33 1.32 3.66 2.64 4 4 C7.3 4.66 10.6 5.32 14 6 C14.33 5.01 14.66 4.02 15 3 C16.32 4.32 17.64 5.64 19 7 C17.68 7 16.36 7 15 7 C12.61955159 10.36063305 13.181219 12.81404675 13.7310791 16.73443604 C14.18565177 20.56405087 14.18279844 24.38953314 14.203125 28.2421875 C14.20882507 29.09177032 14.21452515 29.94135315 14.22039795 30.81668091 C14.22977816 32.59652484 14.23635386 34.37638558 14.24023438 36.15625 C14.25004784 38.88831835 14.28117766 41.61966673 14.3125 44.3515625 C14.31902102 46.08593306 14.32427501 47.82030895 14.328125 49.5546875 C14.3404718 50.37234589 14.3528186 51.19000427 14.36553955 52.03244019 C14.35644531 54.31982422 14.35644531 54.31982422 14 58 C10.79619983 60.13586678 9.98060033 60.23132175 6.3125 60.125 C5.50425781 60.10695312 4.69601563 60.08890625 3.86328125 60.0703125 C3.24839844 60.04710937 2.63351563 60.02390625 2 60 C1.80961533 51.57018982 1.77605932 43.61522481 3.5625 35.328125 C4.11735305 32.77032675 4.11735305 32.77032675 4 29.1875 C4 25.00324538 5.14298691 21.71402619 7 18 C7.0689472 16.62657169 7.08467708 15.24997898 7.0625 13.875 C7.041875 12.59625 7.02125 11.3175 7 10 C6.01 9.67 5.02 9.34 4 9 C3.34 8.01 2.68 7.02 2 6 C-0.56282742 5.27034634 -0.56282742 5.27034634 -3 5 C-1.6875 2.5 -1.6875 2.5 0 0 Z " fill="#525E6B" transform="translate(86,94)"/>
<path d="M0 0 C0.33 0 0.66 0 1 0 C1 2.97 1 5.94 1 9 C1.99 8.67 2.98 8.34 4 8 C4.66 8.66 5.32 9.32 6 10 C5.57742724 11.4835001 5.13643678 12.96176424 4.6875 14.4375 C4.44386719 15.26121094 4.20023438 16.08492187 3.94921875 16.93359375 C3.63597656 17.61550781 3.32273437 18.29742187 3 19 C2.01 19.33 1.02 19.66 0 20 C-1.03547047 23.02282643 -1.03547047 23.02282643 -1.6875 26.5625 C-1.93886719 27.76003906 -2.19023438 28.95757812 -2.44921875 30.19140625 C-2.63097656 31.11824219 -2.81273438 32.04507813 -3 33 C-2.34 33.33 -1.68 33.66 -1 34 C-1.33 35.98 -1.66 37.96 -2 40 C-2.66 39.34 -3.32 38.68 -4 38 C-6.64 41.63 -9.28 45.26 -12 49 C-11.34 49.99 -10.68 50.98 -10 52 C-10.33 52.99 -10.66 53.98 -11 55 C-14.3 54.67 -17.6 54.34 -21 54 C-21.16822266 52.91138672 -21.16822266 52.91138672 -21.33984375 51.80078125 C-22.02961387 48.87436007 -23.05510814 46.77712191 -24.5625 44.1875 C-25.01753906 43.39730469 -25.47257812 42.60710937 -25.94140625 41.79296875 C-26.29074219 41.20128906 -26.64007813 40.60960937 -27 40 C-26.34 40 -25.68 40 -25 40 C-25 40.66 -25 41.32 -25 42 C-24.34 41.34 -23.68 40.68 -23 40 C-23.66 39.01 -24.32 38.02 -25 37 C-25 35.68 -25 34.36 -25 33 C-20.05 33 -15.1 33 -10 33 C-9.34 31.88625 -8.68 30.7725 -8 29.625 C-7.62875 28.99851562 -7.2575 28.37203125 -6.875 27.7265625 C-5.84931652 26.02527333 -5.84931652 26.02527333 -6 24 C-12.6 24 -19.2 24 -26 24 C-25.67 22.68 -25.34 21.36 -25 20 C-24.01 20 -23.02 20 -22 20 C-22 19.34 -22 18.68 -22 18 C-18.7 18 -15.4 18 -12 18 C-13.32 18.99 -14.64 19.98 -16 21 C-11.85906302 21.20970559 -11.85906302 21.20970559 -8 20 C-8.66 18.68 -9.32 17.36 -10 16 C-8.88625 16.185625 -7.7725 16.37125 -6.625 16.5625 C-3.17431139 17.31680657 -3.17431139 17.31680657 -1 16 C-0.68758545 13.28553021 -0.48663408 10.66090639 -0.375 7.9375 C-0.33632812 7.17888672 -0.29765625 6.42027344 -0.2578125 5.63867188 C-0.16326438 3.75952805 -0.08053244 1.87979664 0 0 Z " fill="#B9856B" transform="translate(111,45)"/>
<path d="M0 0 C0.33 0 0.66 0 1 0 C0.31190331 9.214903 -0.44250562 18.42285075 -1.24731445 27.62817383 C-1.37362727 29.07890648 -1.49863733 30.52975317 -1.62231445 31.98071289 C-2.40747759 41.18948052 -3.36176295 50.35320394 -4.55639648 59.51831055 C-5.12794432 64.00419036 -5.58865983 68.49690762 -6 73 C13.64706717 68.56977897 28.91168178 60.42166156 41.22265625 43.9921875 C43.22189452 40.62643692 44.08863817 37.78710979 45 34 C45.33 34 45.66 34 46 34 C46.73803013 39.78123603 45.42471442 42.86741854 42.015625 47.54296875 C31.70988768 60.10558265 19.91310331 68.80653311 4 73 C3.20464844 73.22429687 2.40929687 73.44859375 1.58984375 73.6796875 C-12.01174622 76.99493314 -24.84178854 74.91946724 -38 71 C-33.84228506 69.68461673 -31.1120703 70.65566932 -27 72 C-27 68.7 -27 65.4 -27 62 C-26.01 61.505 -26.01 61.505 -25 61 C-25 64.96 -25 68.92 -25 73 C-22.54126232 72.85941524 -20.08314825 72.71277001 -17.625 72.5625 C-16.92632812 72.52318359 -16.22765625 72.48386719 -15.5078125 72.44335938 C-11.62639508 72.25719866 -11.62639508 72.25719866 -8 71 C-7.97514838 65.5922885 -7.95706853 60.18461079 -7.94506836 54.77685547 C-7.94006181 52.93993551 -7.9332546 51.10301949 -7.92456055 49.26611328 C-7.91233303 46.61489892 -7.90673477 43.96373757 -7.90234375 41.3125 C-7.89718246 40.50071289 -7.89202118 39.68892578 -7.88670349 38.85253906 C-7.88633326 35.0281913 -8.03814314 31.35856211 -8.58422852 27.5703125 C-9 24 -9 24 -7.75 21.5625 C-6 20 -6 20 -3 19 C-3.99 18.34 -4.98 17.68 -6 17 C-6 16.34 -6 15.68 -6 15 C-6.99 14.67 -7.98 14.34 -9 14 C-8.60167969 13.40832031 -8.20335938 12.81664063 -7.79296875 12.20703125 C-5.52085007 8.81820217 -3.26607542 5.44957571 -1.1875 1.9375 C-0.795625 1.298125 -0.40375 0.65875 0 0 Z " fill="#CCC8D2" transform="translate(107,81)"/>
<path d="M0 0 C2.93870996 2.78107801 5.22973282 5.6081128 7.453125 8.984375 C8.071875 9.91894531 8.690625 10.85351562 9.328125 11.81640625 C9.96234375 12.78449219 10.5965625 13.75257812 11.25 14.75 C11.8996875 15.73355469 12.549375 16.71710938 13.21875 17.73046875 C14.81671378 20.15091389 16.41028709 22.57413114 18 25 C23.33386432 20.07566459 27.21778026 14.25796879 31.359375 8.33007812 C31.91367188 7.54697266 32.46796875 6.76386719 33.0390625 5.95703125 C33.78470459 4.88932495 33.78470459 4.88932495 34.54541016 3.80004883 C36 2 36 2 39 0 C39.99 0.66 40.98 1.32 42 2 C39.79735174 6.66854303 36.77393217 10.64867394 33.75 14.8125 C33.18925781 15.59431641 32.62851563 16.37613281 32.05078125 17.18164062 C30.39210458 19.47429187 28.70543141 21.7419567 27 24 C26.47728516 24.70431152 25.95457031 25.40862305 25.41601562 26.13427734 C21.80359796 30.7284308 21.80359796 30.7284308 18.45703125 31.859375 C14.60196937 30.51102267 12.88482444 27.50593536 10.6875 24.25 C10.21473633 23.57420898 9.74197266 22.89841797 9.25488281 22.20214844 C8.28964848 20.81588683 7.33211637 19.4242308 6.38232422 18.02734375 C5.10067547 16.14765261 3.79252178 14.29045885 2.47265625 12.4375 C-1.7044869 6.44708029 -1.7044869 6.44708029 -3 4 C-2.67 3.01 -2.34 2.02 -2 1 C-1.34 0.67 -0.68 0.34 0 0 Z " fill="#919191" transform="translate(195,72)"/>
<path d="M0 0 C3 1 3 1 4.625 3.1875 C6.08385732 6.17152633 6.61808685 8.71554694 7 12 C7.66 12 8.32 12 9 12 C8.67 13.32 8.34 14.64 8 16 C8.99 16.33 9.98 16.66 11 17 C10.67 18.65 10.34 20.3 10 22 C12.31 22.66 14.62 23.32 17 24 C17.04241723 26.33294775 17.04092937 28.66702567 17 31 C16.67 31.33 16.34 31.66 16 32 C10.39023004 31.70582914 7.47077863 30.33000811 3.25 26.6875 C2.32703125 25.90761719 1.4040625 25.12773437 0.453125 24.32421875 C-1.6740934 22.30878094 -3.42454328 20.46296401 -5 18 C-5 17.34 -5 16.68 -5 16 C-3.02 16.33 -1.04 16.66 1 17 C1 15.68 1 14.36 1 13 C0.34 12.67 -0.32 12.34 -1 12 C-1.02712066 10.56260487 -1.04645067 9.12506137 -1.0625 7.6875 C-1.07410156 6.88699219 -1.08570313 6.08648437 -1.09765625 5.26171875 C-1 3 -1 3 0 0 Z " fill="#3E3944" transform="translate(47,114)"/>
<path d="M0 0 C0.66 0 1.32 0 2 0 C7.76464747 13.56703078 7.76464747 13.56703078 6.3125 18.1875 C4.79316869 20.28562419 3.14669072 21.56887285 1 23 C0.34 22.67 -0.32 22.34 -1 22 C0.32 20.35 1.64 18.7 3 17 C1.68 17.33 0.36 17.66 -1 18 C-1.33 16.68 -1.66 15.36 -2 14 C-2.66 14 -3.32 14 -4 14 C-4.33 14.66 -4.66 15.32 -5 16 C-5.33 15.34 -5.66 14.68 -6 14 C-6.99 14.33 -7.98 14.66 -9 15 C-9.144375 15.763125 -9.28875 16.52625 -9.4375 17.3125 C-10 20 -10 20 -11 23 C-11.66 23 -12.32 23 -13 23 C-13.66 22.34 -14.32 21.68 -15 21 C-15.66 22.32 -16.32 23.64 -17 25 C-18.65 24.67 -20.3 24.34 -22 24 C-18.535 17.565 -18.535 17.565 -15 11 C-14.34 11 -13.68 11 -13 11 C-12.9175 10.38125 -12.835 9.7625 -12.75 9.125 C-12 7 -12 7 -9.9375 5.75 C-9.298125 5.5025 -8.65875 5.255 -8 5 C-8 5.66 -8 6.32 -8 7 C-4.88667752 6.33131686 -4.88667752 6.33131686 -3.8125 3.9375 C-3.544375 3.298125 -3.27625 2.65875 -3 2 C-2.67 2.33 -2.34 2.66 -2 3 C-1.34 2.01 -0.68 1.02 0 0 Z " fill="#3A3640" transform="translate(145,98)"/>
<path d="M0 0 C1.1034375 0.00644531 2.206875 0.01289063 3.34375 0.01953125 C6.17226083 0.17005844 8.74692555 0.54545838 11.5 1.1875 C10.84 2.1775 10.18 3.1675 9.5 4.1875 C9.995 4.64125 10.49 5.095 11 5.5625 C12.5 7.1875 12.5 7.1875 12.5 9.1875 C6.95321081 10.42011982 2.67364058 9.8290222 -2.8515625 8.5625 C-6.67955419 8.02048348 -9.42162953 8.55845056 -12.75 10.5 C-14.77187598 12.44966613 -15.00685892 13.47522407 -15.5 16.1875 C-16.13654342 17.5354743 -16.79605388 18.87346724 -17.5 20.1875 C-18.82 20.1875 -20.14 20.1875 -21.5 20.1875 C-22.5 17.1875 -22.5 17.1875 -21.71484375 15.13671875 C-16.44092466 5.79849504 -11.36649496 -0.14606477 0 0 Z " fill="#848688" transform="translate(93.5,20.8125)"/>
<path d="M0 0 C2.79173055 -0.02690104 5.58320348 -0.04679053 8.375 -0.0625 C9.56609375 -0.07506836 9.56609375 -0.07506836 10.78125 -0.08789062 C16.7734375 -0.11328125 16.7734375 -0.11328125 19 1 C19 1.66 19 2.32 19 3 C19.99 3 20.98 3 22 3 C22 5.31 22 7.62 22 10 C18.37 10.33 14.74 10.66 11 11 C11 11.66 11 12.32 11 13 C6.33333333 12.33333333 1.66666667 11.66666667 -3 11 C-2.44683414 7.03564468 -1.54379132 3.6837622 0 0 Z " fill="#F9C9AE" transform="translate(85,35)"/>
<path d="M0 0 C1.25541557 3.76624671 0.37061958 5.37188934 -1 9 C0.010625 8.95875 1.02125 8.9175 2.0625 8.875 C6.18076052 9.00573843 9.11830533 9.73250786 13 11 C13 10.34 13 9.68 13 9 C16.3 9 19.6 9 23 9 C20 11 20 11 18 11 C18 11.66 18 12.32 18 13 C19.65 12.67 21.3 12.34 23 12 C23.495 13.485 23.495 13.485 24 15 C18.87416389 15.10251672 14.05002222 15.03590199 9 14 C9 14.66 9 15.32 9 16 C5.21572356 17.83807713 3.04711146 18.2031953 -1 17 C-1.66 16.67 -2.32 16.34 -3 16 C-3.33 14.68 -3.66 13.36 -4 12 C-4.33 15.63 -4.66 19.26 -5 23 C-9 22 -9 22 -11 21 C-11.125 18.125 -11.125 18.125 -11 15 C-10.34 14.34 -9.68 13.68 -9 13 C-8.34 14.32 -7.68 15.64 -7 17 C-6.97421875 16.41992188 -6.9484375 15.83984375 -6.921875 15.2421875 C-6.44753981 8.70929836 -4.72088137 4.72088137 0 0 Z " fill="#C4A190" transform="translate(83,37)"/>
<path d="M0 0 C-1.2065625 1.0828125 -1.2065625 1.0828125 -2.4375 2.1875 C-5.02292072 5.02515689 -5.68042813 6.27166147 -6 10 C-6.66 10 -7.32 10 -8 10 C-7.67 13.3 -7.34 16.6 -7 20 C-11.63775363 21.88654385 -14.95005809 23.21225675 -20 23 C-19.65066406 21.96359375 -19.30132812 20.9271875 -18.94140625 19.859375 C-18.48169068 18.48961023 -18.0220597 17.11981707 -17.5625 15.75 C-17.21735352 14.72712891 -17.21735352 14.72712891 -16.86523438 13.68359375 C-15.79196286 10.47933387 -14.73984392 7.29953381 -14 4 C-13.34 4 -12.68 4 -12 4 C-11.814375 3.360625 -11.62875 2.72125 -11.4375 2.0625 C-10 0 -10 0 -6.5625 -0.8125 C-3 -1 -3 -1 0 0 Z " fill="#3F3D4B" transform="translate(125,130)"/>
<path d="M0 0 C0.33 0 0.66 0 1 0 C1.73803013 5.78123603 0.42471442 8.86741854 -2.984375 13.54296875 C-13.29011232 26.10558265 -25.08689669 34.80653311 -41 39 C-41.79535156 39.22429687 -42.59070313 39.44859375 -43.41015625 39.6796875 C-57.01174622 42.99493314 -69.84178854 40.91946724 -83 37 C-78.84228506 35.68461673 -76.1120703 36.65566932 -72 38 C-72 34.7 -72 31.4 -72 28 C-71.34 27.67 -70.68 27.34 -70 27 C-70 30.96 -70 34.92 -70 39 C-67.58299013 38.85870713 -65.16649571 38.71213513 -62.75 38.5625 C-62.06808594 38.52318359 -61.38617188 38.48386719 -60.68359375 38.44335938 C-57.35551959 38.23333528 -54.19744598 37.98065998 -51 37 C-51 37.66 -51 38.32 -51 39 C-31.35293283 34.56977897 -16.08831822 26.42166156 -3.77734375 9.9921875 C-1.77810548 6.62643692 -0.91136183 3.78710979 0 0 Z " fill="#9EA7AA" transform="translate(152,115)"/>
<path d="M0 0 C4.51655789 -0.3662074 4.51655789 -0.3662074 6.5625 1.18359375 C10.63133502 6.3249206 11.60837324 14.67291834 11 21 C10.44782451 23.39276045 9.76378573 25.66090621 9 28 C9.66 28 10.32 28 11 28 C11 28.66 11 29.32 11 30 C9.35 30 7.7 30 6 30 C5.94392578 29.1646875 5.94392578 29.1646875 5.88671875 28.3125 C5.406828 22.74200344 4.15486574 18.13685167 2 13 C-0.2 7.65714286 -0.2 7.65714286 0.875 4.125 C1.24625 3.42375 1.6175 2.7225 2 2 C1.34 1.34 0.68 0.68 0 0 Z " fill="#3A3639" transform="translate(106,24)"/>
<path d="M0 0 C0.66 0 1.32 0 2 0 C0.83550383 8.51646451 -0.97266292 17.35118152 -5 25 C-7.66796875 26.40234375 -7.66796875 26.40234375 -10 27 C-10.06511512 23.66465873 -10.03986781 20.33560706 -10 17 C-10.01933594 16.01902344 -10.03867188 15.03804687 -10.05859375 14.02734375 C-10.00036797 11.14322684 -9.87630561 8.7521473 -9 6 C-7.00151332 4.33315874 -5.26492962 3.5288061 -2.8125 2.68359375 C-0.79568325 2.15725507 -0.79568325 2.15725507 0 0 Z " fill="#525466" transform="translate(111,127)"/>
<path d="M0 0 C2.64 1.32 5.28 2.64 8 4 C8 5.32 8 6.64 8 8 C11.96 4.535 11.96 4.535 16 1 C16.66 1.33 17.32 1.66 18 2 C12.03416856 9.66742597 12.03416856 9.66742597 7 11 C7.763125 11.598125 8.52625 12.19625 9.3125 12.8125 C11.3483575 14.46959332 13.1978279 16.10297674 15 18 C14.67 18.99 14.34 19.98 14 21 C10.7 20.67 7.4 20.34 4 20 C3.88785156 19.27425781 3.77570313 18.54851562 3.66015625 17.80078125 C2.97038613 14.87436007 1.94489186 12.77712191 0.4375 10.1875 C-0.24505859 9.00220703 -0.24505859 9.00220703 -0.94140625 7.79296875 C-1.29074219 7.20128906 -1.64007813 6.60960938 -2 6 C-1.34 6 -0.68 6 0 6 C0 6.66 0 7.32 0 8 C0.66 7.34 1.32 6.68 2 6 C1.34 5.01 0.68 4.02 0 3 C0 2.01 0 1.02 0 0 Z " fill="#B1806F" transform="translate(86,79)"/>
<path d="M0 0 C1.32 0 2.64 0 4 0 C4.33 1.98 4.66 3.96 5 6 C4.34 6 3.68 6 3 6 C2.97278824 7.89575251 2.95350864 9.79161979 2.9375 11.6875 C2.92589844 12.74324219 2.91429687 13.79898438 2.90234375 14.88671875 C2.99134575 17.72410262 3.35060162 20.2438919 4 23 C-2.01582979 23.70774468 -2.01582979 23.70774468 -4.61328125 21.83984375 C-6 20.3125 -6 20.3125 -8 17 C-7.8125 14.125 -7.8125 14.125 -7 12 C-6.34 12 -5.68 12 -5 12 C-5 12.66 -5 13.32 -5 14 C-4.01 14 -3.02 14 -2 14 C-2.20625 13.401875 -2.4125 12.80375 -2.625 12.1875 C-3 10 -3 10 -1 7 C-0.60612212 4.67612053 -0.26513915 2.34206251 0 0 Z " fill="#454650" transform="translate(44,108)"/>
<path d="M0 0 C1.65 0 3.3 0 5 0 C6.79248988 5.39175244 7.3370721 10.14617316 7.3125 15.8125 C7.32861328 16.57498047 7.34472656 17.33746094 7.36132812 18.12304688 C7.36328125 20.33203125 7.36328125 20.33203125 7 24 C4 26 4 26 1.3125 25.625 C0.1678125 25.315625 0.1678125 25.315625 -1 25 C-0.0409375 24.443125 -0.0409375 24.443125 0.9375 23.875 C3.63858072 21.41947207 3.68407005 19.55421195 4 16 C3.34 16.33 2.68 16.66 2 17 C0.00039988 17.039992 -2.00047242 17.04346799 -4 17 C-4 16.01 -4 15.02 -4 14 C-1.69 14.33 0.62 14.66 3 15 C2.34 14.34 1.68 13.68 1 13 C-0.32 13 -1.64 13 -3 13 C-3 12.34 -3 11.68 -3 11 C-2.34 10.67 -1.68 10.34 -1 10 C-1.99 9.34 -2.98 8.68 -4 8 C-1.69 8 0.62 8 3 8 C2.7215625 6.824375 2.7215625 6.824375 2.4375 5.625 C2 3 2 3 3 1 C2.01 0.67 1.02 0.34 0 0 Z " fill="#DDA586" transform="translate(104,37)"/>
<path d="M0 0 C-4 2 -4 2 -8 4 C-8.46523063 5.89533342 -8.46523063 5.89533342 -8.625 8.0625 C-8.74875 9.361875 -8.8725 10.66125 -9 12 C-7.35 12 -5.7 12 -4 12 C-4.33 12.66 -4.66 13.32 -5 14 C-5.61875 14.12375 -6.2375 14.2475 -6.875 14.375 C-9.81735051 15.24039721 -10.47101141 16.3590197 -12 19 C-13.293779 22.95321362 -14.25625236 26.90938797 -15 31 C-15.99 31 -16.98 31 -18 31 C-19 28 -19 28 -18.29296875 26.265625 C-17.92816406 25.60046875 -17.56335937 24.9353125 -17.1875 24.25 C-14.54612455 18.76824136 -14.12686444 13.23141339 -13.58984375 7.2578125 C-13 4 -13 4 -11.66015625 2.1328125 C-7.9477614 -0.40035105 -4.24532033 -1.41510678 0 0 Z " fill="#6B6D73" transform="translate(57,91)"/>
<path d="M0 0 C0.99 0.33 1.98 0.66 3 1 C4.66458673 1.09308544 6.33281997 1.12996185 8 1.125 C9.299375 1.12886719 9.299375 1.12886719 10.625 1.1328125 C13.15011695 1.09594205 13.15011695 1.09594205 16 0 C15.25 6.75 15.25 6.75 13 9 C9.875 8.625 9.875 8.625 7 8 C7 8.66 7 9.32 7 10 C4.36 9.67 1.72 9.34 -1 9 C-0.67 6.03 -0.34 3.06 0 0 Z " fill="#FCC9A8" transform="translate(93,52)"/>
<path d="M0 0 C3 1 3 1 4.75 3.75 C6.49176169 8.27858038 5.48156395 10.55530815 4 15 C1.9375 16.6875 1.9375 16.6875 0 18 C-0.66 17.67 -1.32 17.34 -2 17 C-0.68 15.35 0.64 13.7 2 12 C0.68 12.33 -0.64 12.66 -2 13 C-2.33 11.68 -2.66 10.36 -3 9 C-3.66 9 -4.32 9 -5 9 C-5.33 9.66 -5.66 10.32 -6 11 C-6.33 10.34 -6.66 9.68 -7 9 C-7.99 9.495 -7.99 9.495 -9 10 C-7.92598892 7.08482708 -7.22189824 5.22189824 -5 3 C-4.34 3 -3.68 3 -3 3 C-1.37485532 1.54166642 -1.37485532 1.54166642 0 0 Z " fill="#302A30" transform="translate(146,103)"/>
<path d="M0 0 C0.93203491 3.14561782 1.6184602 5.75308397 1 9 C-1.13991696 11.26296218 -3.50258434 13.14605113 -6 15 C-7.51953125 13.63671875 -7.51953125 13.63671875 -9 12 C-8.6875 9.8125 -8.6875 9.8125 -8 8 C-11.0109362 10.0072908 -11.63016497 10.83884224 -13 14 C-13 13.01 -13 12.02 -13 11 C-14.918125 11.061875 -14.918125 11.061875 -16.875 11.125 C-19.0546875 11.1953125 -19.0546875 11.1953125 -21 11 C-21.66 10.34 -22.32 9.68 -23 9 C-9 5 -9 5 -5.16015625 4.0546875 C-1.73798092 3.27175659 -1.73798092 3.27175659 0 0 Z " fill="#636978" transform="translate(80,80)"/>
<path d="M0 0 C0.66 0.99 1.32 1.98 2 3 C2.99 3.33 3.98 3.66 5 4 C5 4.66 5 5.32 5 6 C12.26 6 19.52 6 27 6 C27 5.34 27 4.68 27 4 C27.99 4.33 28.98 4.66 30 5 C29.835 5.804375 29.67 6.60875 29.5 7.4375 C28.96808161 9.7284443 28.96808161 9.7284443 29 11 C26.36 11 23.72 11 21 11 C21.66 10.01 22.32 9.02 23 8 C20.69 7.67 18.38 7.34 16 7 C16 7.66 16 8.32 16 9 C14.68 9.33 13.36 9.66 12 10 C11.67 9.34 11.34 8.68 11 8 C10.01 7.67 9.02 7.34 8 7 C8.33 7.99 8.66 8.98 9 10 C9.66 10.33 10.32 10.66 11 11 C11 11.99 11 12.98 11 14 C10.34 14 9.68 14 9 14 C8.67 14.66 8.34 15.32 8 16 C7.34 13.69 6.68 11.38 6 9 C4.35 8.67 2.7 8.34 1 8 C0.26919734 6.02253397 -0.39421747 4.01927511 -1 2 C-0.67 1.34 -0.34 0.68 0 0 Z " fill="#DC997C" transform="translate(73,56)"/>
<path d="M0 0 C0 3 0 3 -1.0625 6.4375 C-1.91845954 9.69014627 -2.21010361 10.97474098 -1 14 C-1.80953125 13.83757813 -2.6190625 13.67515625 -3.453125 13.5078125 C-7.58870028 12.91571472 -11.58008169 12.85354244 -15.75 12.875 C-16.90048828 12.86919922 -16.90048828 12.86919922 -18.07421875 12.86328125 C-22.16868145 12.77486649 -22.16868145 12.77486649 -26 14 C-26.33 13.01 -26.66 12.02 -27 11 C-25.44539063 10.81824219 -25.44539063 10.81824219 -23.859375 10.6328125 C-22.48953562 10.46392819 -21.11974651 10.29463589 -19.75 10.125 C-19.06808594 10.04636719 -18.38617188 9.96773437 -17.68359375 9.88671875 C-14.04913352 9.42800047 -11.1961873 8.77565961 -8 7 C-5.25 6.875 -5.25 6.875 -3 7 C-3 6.34 -3 5.68 -3 5 C-4.32 4.67 -5.64 4.34 -7 4 C-6.67 3.67 -6.34 3.34 -6 3 C-6.66 2.34 -7.32 1.68 -8 1 C-5.07175348 0.02391783 -3.04386724 -0.08226668 0 0 Z " fill="#775953" transform="translate(109,23)"/>
<path d="M0 0 C0.99 0 1.98 0 3 0 C3.33 1.32 3.66 2.64 4 4 C7.3 4.66 10.6 5.32 14 6 C14.33 5.01 14.66 4.02 15 3 C16.32 4.32 17.64 5.64 19 7 C17.68 7 16.36 7 15 7 C13.03698408 10.50538557 12.04097612 14.13351728 11 18 C10.67 16.68 10.34 15.36 10 14 C9.34 14 8.68 14 8 14 C7.896875 13.360625 7.79375 12.72125 7.6875 12.0625 C7.460625 11.381875 7.23375 10.70125 7 10 C6.01 9.67 5.02 9.34 4 9 C3.34 8.01 2.68 7.02 2 6 C-0.56282742 5.27034634 -0.56282742 5.27034634 -3 5 C-1.6875 2.5 -1.6875 2.5 0 0 Z " fill="#5A616C" transform="translate(86,94)"/>
<path d="M0 0 C2.04119788 1.61594832 4.04072937 3.2856382 6 5 C6 5.66 6 6.32 6 7 C6.99 7.33 7.98 7.66 9 8 C8.34 10.31 7.68 12.62 7 15 C7.99 14.67 8.98 14.34 10 14 C10 14.66 10 15.32 10 16 C7.875 16.8125 7.875 16.8125 5 17 C0.56424581 14.78212291 0.56424581 14.78212291 -1 12 C-1.2128679 7.90229293 -0.70750293 4.03276669 0 0 Z " fill="#453D47" transform="translate(109,79)"/>
<path d="M0 0 C0.33 4.95 0.66 9.9 1 15 C-2.20380017 17.13586678 -3.01939967 17.23132175 -6.6875 17.125 C-7.89986328 17.09792969 -7.89986328 17.09792969 -9.13671875 17.0703125 C-9.75160156 17.04710937 -10.36648437 17.02390625 -11 17 C-11 14.36 -11 11.72 -11 9 C-10.01 9.33 -9.02 9.66 -8 10 C-8 11.32 -8 12.64 -8 14 C-6.35 14 -4.7 14 -3 14 C-3.99 11.03 -4.98 8.06 -6 5 C-1.125 0 -1.125 0 0 0 Z " fill="#4F5A65" transform="translate(99,137)"/>
<path d="M0 0 C2.32054789 3.48082184 2.54370121 5.75076757 3.0625 9.875 C3.58647238 13.95418996 4.13594114 17.97792073 5 22 C-0.20988728 20.36260685 -3.61159416 17.44623886 -6.3125 12.6875 C-6.539375 12.130625 -6.76625 11.57375 -7 11 C-4.03 11.495 -4.03 11.495 -1 12 C-1 10.68 -1 9.36 -1 8 C-1.66 7.67 -2.32 7.34 -3 7 C-2.34 6.67 -1.68 6.34 -1 6 C-0.34227572 2.97065509 -0.34227572 2.97065509 0 0 Z " fill="#242026" transform="translate(49,119)"/>
<path d="M0 0 C1 2 1 2 0.546875 3.8046875 C0.28390625 4.48789063 0.0209375 5.17109375 -0.25 5.875 C-0.50265625 6.55304688 -0.7553125 7.23109375 -1.015625 7.9296875 C-2.17364641 10.36520872 -3.05106866 12.10579028 -5 14 C-8.13671875 14.390625 -8.13671875 14.390625 -11.6875 14.25 C-13.45673828 14.19585937 -13.45673828 14.19585937 -15.26171875 14.140625 C-16.16535156 14.09421875 -17.06898437 14.0478125 -18 14 C-18 13.67 -18 13.34 -18 13 C-14.7 12.67 -11.4 12.34 -8 12 C-10.64 11.67 -13.28 11.34 -16 11 C-16.33 10.01 -16.66 9.02 -17 8 C-13.7 7.67 -10.4 7.34 -7 7 C-7 6.01 -7 5.02 -7 4 C-5.02 4 -3.04 4 -1 4 C-0.67 2.68 -0.34 1.36 0 0 Z " fill="#C7927B" transform="translate(106,65)"/>
<path d="M0 0 C0.99 0.33 1.98 0.66 3 1 C2.67 2.65 2.34 4.3 2 6 C4.31 6.66 6.62 7.32 9 8 C9.04241723 10.33294775 9.04092937 12.66702567 9 15 C8.67 15.33 8.34 15.66 8 16 C3.51287922 15.82741843 1.49401598 15.43095011 -1.9375 12.4375 C-2.618125 11.633125 -3.29875 10.82875 -4 10 C-3.01 9.67 -2.02 9.34 -1 9 C0.33176975 5.58880932 0.33176975 5.58880932 1 2 C0.67 1.34 0.34 0.68 0 0 Z " fill="#3F3E47" transform="translate(55,130)"/>
<path d="M0 0 C5.41342681 1.14514798 7.9342948 2.34012809 11 7 C6.06369399 6.54080874 3.73333401 5.18001193 0 2 C0.0721875 3.01835938 0.144375 4.03671875 0.21875 5.0859375 C0.74516784 12.93349744 1.1052475 20.75856747 1.125 28.625 C1.12951172 29.3576709 1.13402344 30.0903418 1.13867188 30.84521484 C1.12634938 35.32752255 0.73137398 39.57692879 0 44 C-0.33 44 -0.66 44 -1 44 C-1.02464513 37.8944529 -1.04283371 31.78893449 -1.05493164 25.68334961 C-1.05997288 23.60456844 -1.06680574 21.52579084 -1.07543945 19.44702148 C-1.08751422 16.46597414 -1.09323024 13.48497351 -1.09765625 10.50390625 C-1.10539818 9.10078941 -1.10539818 9.10078941 -1.11329651 7.66932678 C-1.11337204 6.80850998 -1.11344757 5.94769318 -1.11352539 5.06079102 C-1.115746 4.29912125 -1.11796661 3.53745148 -1.12025452 2.75270081 C-1 1 -1 1 0 0 Z " fill="#C9C4CE" transform="translate(82,98)"/>
<path d="M0 0 C3.3 0 6.6 0 10 0 C9.67 1.32 9.34 2.64 9 4 C5.78548731 5.60725635 2.56387464 5.05748185 -1 5 C-0.67 5.66 -0.34 6.32 0 7 C2.35599235 7.46751788 2.35599235 7.46751788 5.0625 7.625 C5.98160156 7.69976562 6.90070313 7.77453125 7.84765625 7.8515625 C8.55792969 7.90054688 9.26820312 7.94953125 10 8 C7.48987037 10.51012963 6.53194763 10.29721609 3.0625 10.3125 C1.74958984 10.33763672 1.74958984 10.33763672 0.41015625 10.36328125 C-2 10 -2 10 -3.81640625 8.66796875 C-5 7 -5 7 -5 4 C-4.34 4 -3.68 4 -3 4 C-3 3.34 -3 2.68 -3 2 C-2.01 2 -1.02 2 0 2 C0 1.34 0 0.68 0 0 Z " fill="#C79A88" transform="translate(90,68)"/>
<path d="M0 0 C2.31 0.66 4.62 1.32 7 2 C7.21192221 7.19209404 6.5912689 11.126739 5 16 C5.66 16 6.32 16 7 16 C7 16.66 7 17.32 7 18 C5.35 18 3.7 18 2 18 C1.92652344 17.14728516 1.92652344 17.14728516 1.8515625 16.27734375 C1.47755389 12.41473756 1.03426877 8.77529324 -0.125 5.0625 C-1 2 -1 2 0 0 Z " fill="#4E3B38" transform="translate(110,36)"/>
<path d="M0 0 C0.33 0 0.66 0 1 0 C0.85761163 2.04190981 0.71092972 4.08352045 0.5625 6.125 C0.48128906 7.26195313 0.40007812 8.39890625 0.31640625 9.5703125 C0.02269035 12.7540478 -0.43124313 15.85510907 -1 19 C-3.475 18.01 -3.475 18.01 -6 17 C-6 16.34 -6 15.68 -6 15 C-6.99 14.67 -7.98 14.34 -9 14 C-8.40251953 13.11248047 -8.40251953 13.11248047 -7.79296875 12.20703125 C-5.52085007 8.81820217 -3.26607542 5.44957571 -1.1875 1.9375 C-0.795625 1.298125 -0.40375 0.65875 0 0 Z " fill="#DECFD3" transform="translate(107,81)"/>
<path d="M0 0 C0 3 0 3 -2.1875 5.375 C-3.115625 6.24125 -4.04375 7.1075 -5 8 C-5.886875 8.928125 -6.77375 9.85625 -7.6875 10.8125 C-10 13 -10 13 -12 13 C-12.061875 12.38125 -12.12375 11.7625 -12.1875 11.125 C-12.455625 10.42375 -12.72375 9.7225 -13 9 C-14.64551962 8.28272222 -16.31422289 7.61674772 -18 7 C-18.66 6.01 -19.32 5.02 -20 4 C-18.97519531 4.04640625 -17.95039062 4.0928125 -16.89453125 4.140625 C-15.53388344 4.17816011 -14.17320395 4.21455841 -12.8125 4.25 C-12.13896484 4.28351563 -11.46542969 4.31703125 -10.77148438 4.3515625 C-7.00624873 4.42503051 -5.16891146 4.11393243 -2.01171875 1.984375 C-1.34785156 1.32953125 -0.68398437 0.6746875 0 0 Z " fill="#694B43" transform="translate(106,74)"/>
<path d="M0 0 C1.98 0 3.96 0 6 0 C5.0409375 0.37125 5.0409375 0.37125 4.0625 0.75 C1.80364886 1.78813195 1.80364886 1.78813195 1.5 4 C1.335 4.66 1.17 5.32 1 6 C-0.33333333 6.66666667 -1.66666667 7.33333333 -3 8 C-3.6814823 9.89179203 -3.6814823 9.89179203 -4 12 C-4.63654342 13.3479743 -5.29605388 14.68596724 -6 16 C-7.32 16 -8.64 16 -10 16 C-11 13 -11 13 -9.4375 9.5625 C-7.26637069 5.96419478 -4.60316267 4.1618976 -1 2 C-0.67 1.34 -0.34 0.68 0 0 Z " fill="#7B7E7D" transform="translate(82,25)"/>
<path d="M0 0 C2.475 0.99 2.475 0.99 5 2 C5 1.34 5 0.68 5 0 C6.32 0.33 7.64 0.66 9 1 C9 1.99 9 2.98 9 4 C9.66 4.33 10.32 4.66 11 5 C11 5.66 11 6.32 11 7 C4.6496923 8.41117949 -0.69661213 7.3792223 -7 6 C-7 5.34 -7 4.68 -7 4 C-4.03 4 -1.06 4 2 4 C2 3.34 2 2.68 2 2 C1.01 1.67 0.02 1.34 -1 1 C-0.67 0.67 -0.34 0.34 0 0 Z " fill="#867F7A" transform="translate(95,23)"/>
<path d="M0 0 C-1.59043379 5.08938811 -4.7446951 8.87456643 -8 13 C-9.98 12.34 -11.96 11.68 -14 11 C-14 10.01 -14 9.02 -14 8 C-13.2575 7.7525 -12.515 7.505 -11.75 7.25 C-8.76975429 5.89534286 -7.22008455 4.36809019 -5 2 C-2 0 -2 0 0 0 Z " fill="#BF816A" transform="translate(107,81)"/>
<path d="M0 0 C2.79192205 -0.05380578 5.5828141 -0.09357669 8.375 -0.125 C9.1690625 -0.14175781 9.963125 -0.15851562 10.78125 -0.17578125 C12.85492015 -0.19335473 14.92883241 -0.10335168 17 0 C17.66 0.66 18.32 1.32 19 2 C13.72 1.67 8.44 1.34 3 1 C2.67 2.65 2.34 4.3 2 6 C1.01 7.485 1.01 7.485 0 9 C1.8871875 9.1546875 1.8871875 9.1546875 3.8125 9.3125 C6.60499657 9.64858808 7.74433121 9.80025876 10 11.5625 C10.33 12.036875 10.66 12.51125 11 13 C6.33333333 12.33333333 1.66666667 11.66666667 -3 11 C-2.44683414 7.03564468 -1.54379132 3.6837622 0 0 Z " fill="#E2B29A" transform="translate(85,35)"/>
<path d="M0 0 C5.29441695 -0.50423019 7.81413519 0.81076967 12 4 C11.67 5.32 11.34 6.64 11 8 C7.7 7.67 4.4 7.34 1 7 C0 2.25 0 2.25 0 0 Z " fill="#AE8B88" transform="translate(89,92)"/>
<path d="M0 0 C3.3 0 6.6 0 10 0 C8.68 0.99 7.36 1.98 6 3 C8.97 3 11.94 3 15 3 C15 3.99 15 4.98 15 6 C8.73 6 2.46 6 -4 6 C-3.67 4.68 -3.34 3.36 -3 2 C-2.01 2 -1.02 2 0 2 C0 1.34 0 0.68 0 0 Z " fill="#8E5F52" transform="translate(89,63)"/>
<path d="M0 0 C0.33 0 0.66 0 1 0 C1.73655697 5.76969626 0.42236342 8.84023745 -2.94921875 13.5234375 C-7.73365622 19.30121532 -13.48853497 26.19943061 -20 30 C-22.25 29.6875 -22.25 29.6875 -24 29 C-22.93072266 28.27296875 -22.93072266 28.27296875 -21.83984375 27.53125 C-12.77599503 21.18777579 -3.2075673 13.15101772 -0.1875 2 C-0.0946875 1.01 -0.0946875 1.01 0 0 Z " fill="#8D9598" transform="translate(152,115)"/>
<path d="M0 0 C0.33 0 0.66 0 1 0 C1.83279905 10.97444079 0.42238825 23.27161968 -7 32 C-6.58785374 28.12582515 -5.96887439 24.72121563 -4.625 21.0625 C-2.22029559 14.26299097 -1.22587254 7.08571717 0 0 Z " fill="#C6C8CD" transform="translate(160,89)"/>
<path d="M0 0 C0.33 0 0.66 0 1 0 C1.3690205 12.66970387 1.3690205 12.66970387 -1 18 C-2.65 18 -4.3 18 -6 18 C-4.02 12.06 -2.04 6.12 0 0 Z " fill="#312C38" transform="translate(111,135)"/>
<path d="M0 0 C0.66 0.99 1.32 1.98 2 3 C2.99 3.33 3.98 3.66 5 4 C5 4.66 5 5.32 5 6 C6.65 6 8.3 6 10 6 C9.01 6.495 9.01 6.495 8 7 C8.33 7.99 8.66 8.98 9 10 C9.66 10.33 10.32 10.66 11 11 C11 11.99 11 12.98 11 14 C10.34 14 9.68 14 9 14 C8.67 14.66 8.34 15.32 8 16 C7.34 13.69 6.68 11.38 6 9 C4.35 8.67 2.7 8.34 1 8 C0.26919734 6.02253397 -0.39421747 4.01927511 -1 2 C-0.67 1.34 -0.34 0.68 0 0 Z " fill="#BF9A86" transform="translate(73,56)"/>
<path d="M0 0 C0.33 0 0.66 0 1 0 C1.33 1.65 1.66 3.3 2 5 C2.99 4.01 3.98 3.02 5 2 C5.66 2.33 6.32 2.66 7 3 C7 3.99 7 4.98 7 6 C7.30050829 7.40326639 7.63590136 8.79937393 8 10.1875 C8.33 11.445625 8.66 12.70375 9 14 C6.125 13.8125 6.125 13.8125 3 13 C1.6875 10.5 1.6875 10.5 1 8 C0.67 7.67 0.34 7.34 0 7 C-0.04092937 4.66702567 -0.04241723 2.33294775 0 0 Z " fill="#656E79" transform="translate(88,138)"/>
<path d="M0 0 C0.99 0 1.98 0 3 0 C3.33 1.32 3.66 2.64 4 4 C8.455 4.99 8.455 4.99 13 6 C11.68 6.33 10.36 6.66 9 7 C9.33 7.99 9.66 8.98 10 10 C7.6875 10.25 7.6875 10.25 5 10 C3.97971135 8.68212715 2.98028616 7.34789347 2 6 C-0.59855733 5.1957792 -0.59855733 5.1957792 -3 5 C-1.6875 2.5 -1.6875 2.5 0 0 Z " fill="#59535E" transform="translate(86,94)"/>
<path d="M0 0 C-1.875 5.875 -1.875 5.875 -3 7 C-5.33297433 7.04092937 -7.66705225 7.04241723 -10 7 C-10 5.02 -10 3.04 -10 1 C-3.375 0 -3.375 0 0 0 Z " fill="#F8C9AC" transform="translate(90,54)"/>
<path d="M0 0 C4.18809681 6.28214521 2.11025482 15.78334365 1 23 C0.34 23 -0.32 23 -1 23 C-1.02887512 19.35418313 -1.04675585 15.70839537 -1.0625 12.0625 C-1.07087891 11.02158203 -1.07925781 9.98066406 -1.08789062 8.90820312 C-1.09272461 7.42416992 -1.09272461 7.42416992 -1.09765625 5.91015625 C-1.10289307 4.99371338 -1.10812988 4.07727051 -1.11352539 3.13305664 C-1 1 -1 1 0 0 Z " fill="#C3C2D0" transform="translate(87,131)"/>
<path d="M0 0 C0.33 0 0.66 0 1 0 C1 8.91 1 17.82 1 27 C0.67 27 0.34 27 0 27 C-0.33 23.7 -0.66 20.4 -1 17 C-1.99 17.66 -2.98 18.32 -4 19 C-3.505 17.9790625 -3.505 17.9790625 -3 16.9375 C-1.81872661 13.98468408 -1.81872661 13.98468408 -2 10.625 C-2 6.59876712 -1.24042081 3.79878872 0 0 Z " fill="#666D77" transform="translate(99,121)"/>
<path d="M0 0 C0.75023438 0.12375 1.50046875 0.2475 2.2734375 0.375 C3.02882813 0.478125 3.78421875 0.58125 4.5625 0.6875 C6.6484375 1.375 6.6484375 1.375 9.6484375 4.375 C1.2334375 4.87 1.2334375 4.87 -7.3515625 5.375 C-2.3515625 0.375 -2.3515625 0.375 0 0 Z M-8.3515625 5.375 C-7.6915625 5.705 -7.0315625 6.035 -6.3515625 6.375 C-6.3515625 7.035 -6.3515625 7.695 -6.3515625 8.375 C-7.3415625 8.045 -8.3315625 7.715 -9.3515625 7.375 C-9.0215625 6.715 -8.6915625 6.055 -8.3515625 5.375 Z " fill="#4A4649" transform="translate(89.3515625,28.625)"/>
<path d="M0 0 C0.66 0.66 1.32 1.32 2 2 C1.50781991 5.83900471 1.01421383 9.17018868 -2.0625 11.6875 C-2.701875 12.120625 -3.34125 12.55375 -4 13 C-4.66 12.67 -5.32 12.34 -6 12 C-4.68 10.35 -3.36 8.7 -2 7 C-3.32 7.33 -4.64 7.66 -6 8 C-3.375 3.125 -3.375 3.125 0 2 C0 1.34 0 0.68 0 0 Z " fill="#343036" transform="translate(150,108)"/>
<path d="M0 0 C0 3.38864211 -0.27730139 5.07890236 -2 8 C-5.4375 9.4375 -5.4375 9.4375 -9 10 C-9.99 9.34 -10.98 8.68 -12 8 C-5.25 7 -5.25 7 -3 7 C-3 6.34 -3 5.68 -3 5 C-4.32 4.67 -5.64 4.34 -7 4 C-6.67 3.67 -6.34 3.34 -6 3 C-6.66 2.34 -7.32 1.68 -8 1 C-5.07175348 0.02391783 -3.04386724 -0.08226668 0 0 Z " fill="#635C59" transform="translate(109,23)"/>
<path d="M0 0 C1.76462683 3.08809695 2 4.23312136 2 8 C2.66 8 3.32 8 4 8 C4.33 8.99 4.66 9.98 5 11 C3.02 12.32 1.04 13.64 -1 15 C-1.02693575 12.87506859 -1.04636628 10.75004088 -1.0625 8.625 C-1.07410156 7.44164062 -1.08570312 6.25828125 -1.09765625 5.0390625 C-1 2 -1 2 0 0 Z " fill="#53616D" transform="translate(90,129)"/>
<path d="M0 0 C0.99 0.495 0.99 0.495 2 1 C2 2.32 2 3.64 2 5 C2.99 5.33 3.98 5.66 5 6 C4.01 6.33 3.02 6.66 2 7 C2.33 7.99 2.66 8.98 3 10 C2.67 10.99 2.34 11.98 2 13 C6.455 12.505 6.455 12.505 11 12 C11 12.66 11 13.32 11 14 C7.37 14 3.74 14 0 14 C0 9.38 0 4.76 0 0 Z " fill="#E0B299" transform="translate(78,48)"/>
<path d="M0 0 C3.81300782 3.2870757 5.22972246 6.39727838 7 11 C6.01 11.33 5.02 11.66 4 12 C4 11.34 4 10.68 4 10 C3.01 10 2.02 10 1 10 C-0.60725635 6.78548731 -0.05748185 3.56387464 0 0 Z " fill="#BB9180" transform="translate(82,75)"/>
<path d="M0 0 C2.35119399 3.52679099 2.21443452 5.02879485 2.125 9.1875 C2.10695313 10.27417969 2.08890625 11.36085938 2.0703125 12.48046875 C2.03550781 13.72763672 2.03550781 13.72763672 2 15 C-1.06805948 10.39791078 -2.49338625 7.67394186 -2 2 C-1.34 1.34 -0.68 0.68 0 0 Z " fill="#534C46" transform="translate(75,42)"/>
<path d="M0 0 C0.66 0.33 1.32 0.66 2 1 C-3.0940919 7.86214442 -3.0940919 7.86214442 -6.875 8.4375 C-7.57625 8.293125 -8.2775 8.14875 -9 8 C-9.99 6.02 -10.98 4.04 -12 2 C-10.68 2.33 -9.36 2.66 -8 3 C-8 4.32 -8 5.64 -8 7 C-4.04 3.535 -4.04 3.535 0 0 Z " fill="#9D6755" transform="translate(102,80)"/>
<path d="M0 0 C1.134375 0.020625 2.26875 0.04125 3.4375 0.0625 C0.4375 2.0625 0.4375 2.0625 -1.5625 2.0625 C-1.5625 2.7225 -1.5625 3.3825 -1.5625 4.0625 C0.0875 3.7325 1.7375 3.4025 3.4375 3.0625 C3.7675 4.0525 4.0975 5.0425 4.4375 6.0625 C1.4675 6.0625 -1.5025 6.0625 -4.5625 6.0625 C-4.605221 4.39638095 -4.60313832 2.72867115 -4.5625 1.0625 C-3.5625 0.0625 -3.5625 0.0625 0 0 Z " fill="#936150" transform="translate(102.5625,45.9375)"/>
<path d="M0 0 C0.99 0.495 0.99 0.495 2 1 C2.33 1.99 2.66 2.98 3 4 C4.99145391 5.01691264 6.99187074 6.01642648 9 7 C9.99 8.485 9.99 8.485 11 10 C8.3125 10.375 8.3125 10.375 5 10 C2.125 7.25 2.125 7.25 0 4 C0 2.68 0 1.36 0 0 Z " fill="#5A5E67" transform="translate(36,121)"/>
<path d="M0 0 C0.33 0 0.66 0 1 0 C1.74805717 7.02639415 2.13794954 13.93391809 2 21 C1.01 20.67 0.02 20.34 -1 20 C-0.67 13.4 -0.34 6.8 0 0 Z " fill="#383644" transform="translate(70,130)"/>
<path d="M0 0 C0.99 0.66 1.98 1.32 3 2 C2.01 4.97 1.02 7.94 0 11 C-0.99 10.67 -1.98 10.34 -3 10 C-2.67 8.02 -2.34 6.04 -2 4 C-1.34 4 -0.68 4 0 4 C-0.33 3.01 -0.66 2.02 -1 1 C-0.67 0.67 -0.34 0.34 0 0 Z " fill="#DFA183" transform="translate(114,53)"/>
<path d="M0 0 C3.3 0 6.6 0 10 0 C7.21801758 2.6183364 5.66305455 3.92199358 1.8125 4.375 C-1 4 -1 4 -3 2 C-2.01 2 -1.02 2 0 2 C0 1.34 0 0.68 0 0 Z " fill="#A56D5D" transform="translate(89,63)"/>
<path d="M0 0 C1.1875 1.6875 1.1875 1.6875 2 4 C0.875 6.75 0.875 6.75 -1 9 C-2.32 9 -3.64 9 -5 9 C-5.33 8.01 -5.66 7.02 -6 6 C-4 4 -2 2 0 0 Z " fill="#706F6B" transform="translate(77,32)"/>
<path d="M0 0 C0.8353125 0.37125 0.8353125 0.37125 1.6875 0.75 C-0.66769526 4.54448125 -3.2755133 5.95578369 -7.3125 7.75 C-7.3125 3.75 -7.3125 3.75 -5.0625 1.4375 C-2.3125 -0.25 -2.3125 -0.25 0 0 Z " fill="#5F5F61" transform="translate(86.3125,28.25)"/>
<path d="M0 0 C1.65 0.99 3.3 1.98 5 3 C4.34 5.31 3.68 7.62 3 10 C1.5 8.9375 1.5 8.9375 0 7 C-0.1875 3.3125 -0.1875 3.3125 0 0 Z " fill="#343037" transform="translate(52,129)"/>
<path d="M0 0 C0.66 0 1.32 0 2 0 C2 1.32 2 2.64 2 4 C3.65 4 5.3 4 7 4 C7.33 4.66 7.66 5.32 8 6 C8.99 6.33 9.98 6.66 11 7 C10.67 8.32 10.34 9.64 10 11 C9.2575 10.38125 8.515 9.7625 7.75 9.125 C5.21321119 6.97437892 5.21321119 6.97437892 2.75 6.0625 C1 5 1 5 0.25 2.375 C0.1675 1.59125 0.085 0.8075 0 0 Z " fill="#35353D" transform="translate(37,120)"/>
<path d="M0 0 C1.32 0 2.64 0 4 0 C4.33 1.98 4.66 3.96 5 6 C4.34 6 3.68 6 3 6 C2.67 6.99 2.34 7.98 2 9 C-0.29013653 5.5647952 -0.17842973 4.014669 0 0 Z " fill="#47424A" transform="translate(44,108)"/>
<path d="M0 0 C5.41342681 1.14514798 7.9342948 2.34012809 11 7 C6.82237795 6.53581977 4.82317039 6.09204376 2 3 C1.01 3 0.02 3 -1 3 C-0.67 2.01 -0.34 1.02 0 0 Z " fill="#BCB6C0" transform="translate(82,98)"/>
<path d="M0 0 C5.94 1.485 5.94 1.485 12 3 C12 3.66 12 4.32 12 5 C9.5332355 5.88336837 8.36140628 6.1312406 5.859375 5.22265625 C5.16328125 4.83980469 4.4671875 4.45695312 3.75 4.0625 C3.04359375 3.68222656 2.3371875 3.30195312 1.609375 2.91015625 C1.07828125 2.60980469 0.5471875 2.30945313 0 2 C0 1.34 0 0.68 0 0 Z " fill="#565862" transform="translate(115,84)"/>
<path d="M0 0 C-0.33 0.99 -0.66 1.98 -1 3 C-3.31 3.33 -5.62 3.66 -8 4 C-8.33 2.68 -8.66 1.36 -9 0 C-3.375 -1.125 -3.375 -1.125 0 0 Z " fill="#EAB6A5" transform="translate(100,69)"/>
<path d="M0 0 C2.31 0.66 4.62 1.32 7 2 C7 4.31 7 6.62 7 9 C6.67 7.68 6.34 6.36 6 5 C5.34 5 4.68 5 4 5 C3.67 5.66 3.34 6.32 3 7 C2.67 6.01 2.34 5.02 2 4 C1.34 5.32 0.68 6.64 0 8 C-0.38063221 5.6739143 -0.71269945 3.33944736 -1 1 C-0.67 0.67 -0.34 0.34 0 0 Z " fill="#68615E" transform="translate(110,36)"/>
<path d="M0 0 C0 3 0 3 -1.828125 5.078125 C-2.62734375 5.79484375 -3.4265625 6.5115625 -4.25 7.25 C-5.43335938 8.34054688 -5.43335938 8.34054688 -6.640625 9.453125 C-9 11 -9 11 -11.296875 10.734375 C-11.85890625 10.49203125 -12.4209375 10.2496875 -13 10 C-12.22914063 9.44570312 -11.45828125 8.89140625 -10.6640625 8.3203125 C-9.66117188 7.59585938 -8.65828125 6.87140625 -7.625 6.125 C-6.62726563 5.40570313 -5.62953125 4.68640625 -4.6015625 3.9453125 C-2.00530106 2.1005342 -2.00530106 2.1005342 0 0 Z " fill="#728285" transform="translate(141,134)"/>
<path d="M0 0 C0.66 0 1.32 0 2 0 C2 3.63 2 7.26 2 11 C1.01 11 0.02 11 -1 11 C-1.125 3.375 -1.125 3.375 0 0 Z " fill="#363239" transform="translate(47,114)"/>
<path d="M0 0 C0.6875 1.6875 0.6875 1.6875 1 4 C-0.4375 6.75 -0.4375 6.75 -2 9 C-4.97 8.505 -4.97 8.505 -8 8 C-8 7.67 -8 7.34 -8 7 C-7.030625 6.71125 -6.06125 6.4225 -5.0625 6.125 C-1.89335797 5.35785318 -1.89335797 5.35785318 -1 3 C-2.65 3 -4.3 3 -6 3 C-4 2 -2 1 0 0 Z " fill="#F6BE9B" transform="translate(108,52)"/>
<path d="M0 0 C4.47400242 -0.36275695 4.47400242 -0.36275695 6.8125 1.25 C8 3 8 3 8 7 C7.01 6.67 6.02 6.34 5 6 C4.67 5.01 4.34 4.02 4 3 C4 3.99 4 4.98 4 6 C3.34 6 2.68 6 2 6 C2 4.68 2 3.36 2 2 C1.34 1.34 0.68 0.68 0 0 Z " fill="#474D4A" transform="translate(106,24)"/>
<path d="M0 0 C1.32 1.32 2.64 2.64 4 4 C2.71034824 5.37562854 1.37310707 6.70766393 0 8 C-0.66 8 -1.32 8 -2 8 C-2 5.69 -2 3.38 -2 1 C-1.34 0.67 -0.68 0.34 0 0 Z " fill="#616979" transform="translate(92,119)"/>
<path d="M0 0 C0 0.66 0 1.32 0 2 C-3.465 3.485 -3.465 3.485 -7 5 C-7 5.66 -7 6.32 -7 7 C-8.98 7.66 -10.96 8.32 -13 9 C-5.9973262 0 -5.9973262 0 0 0 Z " fill="#929391" transform="translate(89,21)"/>
<path d="M0 0 C0.66 0 1.32 0 2 0 C2 0.66 2 1.32 2 2 C2.66 2.33 3.32 2.66 4 3 C3.67 4.98 3.34 6.96 3 9 C2.67 7.68 2.34 6.36 2 5 C0.35 5.66 -1.3 6.32 -3 7 C-1.125 1.125 -1.125 1.125 0 0 Z " fill="#A78478" transform="translate(106,76)"/>
<path d="M0 0 C4.29 0.66 8.58 1.32 13 2 C11 4 11 4 8.6171875 4.1953125 C7.71226563 4.17210938 6.80734375 4.14890625 5.875 4.125 C4.50988281 4.09792969 4.50988281 4.09792969 3.1171875 4.0703125 C2.41851562 4.04710938 1.71984375 4.02390625 1 4 C0.67 2.68 0.34 1.36 0 0 Z " fill="#D4A892" transform="translate(87,74)"/>
<path d="M0 0 C3.3 0 6.6 0 10 0 C10 0.66 10 1.32 10 2 C5.545 2.495 5.545 2.495 1 3 C0.67 2.01 0.34 1.02 0 0 Z " fill="#A36B5C" transform="translate(89,73)"/>
<path d="M0 0 C0.99 0.33 1.98 0.66 3 1 C3 2.98 3 4.96 3 7 C1.68 7 0.36 7 -1 7 C-1.04254356 5.00045254 -1.04080783 2.99958364 -1 1 C-0.67 0.67 -0.34 0.34 0 0 Z " fill="#FCCDB8" transform="translate(93,54)"/>
<path d="M0 0 C2.11180592 2.57089417 3.66306057 4.63060567 4 8 C3.34 8.66 2.68 9.32 2 10 C1.01 9.34 0.02 8.68 -1 8 C-1.25660094 4.92078868 -1.39431504 2.78863007 0 0 Z " fill="#BA7C6D" transform="translate(73,50)"/>
<path d="M0 0 C0.99 0.33 1.98 0.66 3 1 C3.33 3.31 3.66 5.62 4 8 C2.68 8 1.36 8 0 8 C0 5.36 0 2.72 0 0 Z " fill="#474F5D" transform="translate(88,146)"/>
<path d="M0 0 C1.98 0 3.96 0 6 0 C6 1.65 6 3.3 6 5 C4.35 5 2.7 5 1 5 C0.67 3.35 0.34 1.7 0 0 Z " fill="#73534C" transform="translate(84,47)"/>
<path d="M0 0 C0.268125 0.556875 0.53625 1.11375 0.8125 1.6875 C2.10122647 4.19712523 3.52926478 6.59334236 5 9 C4.01 9 3.02 9 2 9 C2 8.34 2 7.68 2 7 C0.35 7 -1.3 7 -3 7 C-3 6.34 -3 5.68 -3 5 C-2.01 5 -1.02 5 0 5 C-0.2784375 4.0409375 -0.2784375 4.0409375 -0.5625 3.0625 C-0.706875 2.381875 -0.85125 1.70125 -1 1 C-0.67 0.67 -0.34 0.34 0 0 Z " fill="#50535D" transform="translate(42,117)"/>
<path d="M0 0 C1 3 1 3 0 6 C-0.66 6 -1.32 6 -2 6 C-2.28875 6.804375 -2.5775 7.60875 -2.875 8.4375 C-4 11 -4 11 -6 12 C-4.68139111 7.38486888 -2.78644563 3.90102388 0 0 Z " fill="#484855" transform="translate(132,103)"/>
<path d="M0 0 C2.64 0.33 5.28 0.66 8 1 C6.68 1.33 5.36 1.66 4 2 C4.33 2.99 4.66 3.98 5 5 C3.35 5 1.7 5 0 5 C-0.33 4.01 -0.66 3.02 -1 2 C-0.67 1.34 -0.34 0.68 0 0 Z " fill="#6F6F7A" transform="translate(91,99)"/>
<path d="M0 0 C0.99 0.33 1.98 0.66 3 1 C2.67 2.32 2.34 3.64 2 5 C0.35 5 -1.3 5 -3 5 C-3 4.34 -3 3.68 -3 3 C-3.99 2.67 -4.98 2.34 -6 2 C-3.50907189 0.75453595 -2.58919267 1.2232422 0 2 C0 1.34 0 0.68 0 0 Z " fill="#DE9E7D" transform="translate(96,46)"/>
<path d="M0 0 C-1.98 0.99 -1.98 0.99 -4 2 C-3.67 2.66 -3.34 3.32 -3 4 C-3.33 4.66 -3.66 5.32 -4 6 C-5.32 6 -6.64 6 -8 6 C-8 4.35 -8 2.7 -8 1 C-5.29120665 -0.35439668 -2.99066732 -0.06501451 0 0 Z " fill="#A48373" transform="translate(89,46)"/>
<path d="M0 0 C2.97 0 5.94 0 9 0 C9 0.99 9 1.98 9 3 C6.03 2.67 3.06 2.34 0 2 C0 1.34 0 0.68 0 0 Z " fill="#7A7A7A" transform="translate(88,27)"/>
<path d="M0 0 C-0.33 0.99 -0.66 1.98 -1 3 C-6.61 3 -12.22 3 -18 3 C-18 2.67 -18 2.34 -18 2 C-17.01257813 1.93941406 -16.02515625 1.87882813 -15.0078125 1.81640625 C-13.72648437 1.73261719 -12.44515625 1.64882812 -11.125 1.5625 C-9.84882812 1.48128906 -8.57265625 1.40007812 -7.2578125 1.31640625 C-4.53573738 1.05203205 -2.62506009 0 0 0 Z " fill="#898B8D" transform="translate(101,152)"/>
<path d="M0 0 C0.33 0 0.66 0 1 0 C1.66 3.96 2.32 7.92 3 12 C2.01 11.67 1.02 11.34 0 11 C-1.28571429 3.57142857 -1.28571429 3.57142857 0 0 Z " fill="#130D11" transform="translate(51,129)"/>
<path d="M0 0 C0 2.31 0 4.62 0 7 C-0.99 6.34 -1.98 5.68 -3 5 C-3.99 4.67 -4.98 4.34 -6 4 C-5.67 3.01 -5.34 2.02 -5 1 C-3.28960011 0.41205004 -1.81522119 0 0 0 Z " fill="#B7B2BC" transform="translate(106,100)"/>
<path d="M0 0 C1.65 0.99 3.3 1.98 5 3 C4.38125 3.0825 3.7625 3.165 3.125 3.25 C0.81562433 3.81258459 0.81562433 3.81258459 -0.25 6.0625 C-0.4975 6.701875 -0.745 7.34125 -1 8 C-1.93065133 5.39417629 -2.14917407 4.35801776 -1.0625 1.75 C-0.711875 1.1725 -0.36125 0.595 0 0 Z " fill="#4B464E" transform="translate(100,97)"/>
<path d="M0 0 C2.875 -0.1875 2.875 -0.1875 6 0 C6.66 0.99 7.32 1.98 8 3 C3.25 2.125 3.25 2.125 1 1 C1 1.99 1 2.98 1 4 C-0.65 3.67 -2.3 3.34 -4 3 C-2.68 2.67 -1.36 2.34 0 2 C0 1.34 0 0.68 0 0 Z " fill="#F2B493" transform="translate(92,51)"/>
<path d="M0 0 C3.63 0.33 7.26 0.66 11 1 C11 1.33 11 1.66 11 2 C9.35 2 7.7 2 6 2 C6 2.66 6 3.32 6 4 C4.02 3.34 2.04 2.68 0 2 C0 1.34 0 0.68 0 0 Z " fill="#9C9891" transform="translate(94,21)"/>
<path d="M0 0 C0.33 0 0.66 0 1 0 C1.19622241 4.21878192 0.80230168 7.17010894 -1 11 C-1.99 10.67 -2.98 10.34 -4 10 C-2.68 6.7 -1.36 3.4 0 0 Z " fill="#201C25" transform="translate(109,142)"/>
<path d="M0 0 C0.66 0 1.32 0 2 0 C1.75 2.375 1.75 2.375 1 5 C-1.0625 6.3125 -1.0625 6.3125 -3 7 C-2.25 2.25 -2.25 2.25 0 0 Z " fill="#171216" transform="translate(138,132)"/>
<path d="M0 0 C0.33 0 0.66 0 1 0 C1.05416188 1.60379341 1.09286638 3.20811406 1.125 4.8125 C1.14820312 5.70582031 1.17140625 6.59914063 1.1953125 7.51953125 C1 10 1 10 -1 13 C-1.66 13 -2.32 13 -3 13 C-2.01 8.71 -1.02 4.42 0 0 Z " fill="#353442" transform="translate(116,115)"/>
<path d="M0 0 C0.99 0.99 1.98 1.98 3 3 C2.6875 5.6875 2.6875 5.6875 2 8 C1.01 8.33 0.02 8.66 -1 9 C-0.67 6.03 -0.34 3.06 0 0 Z " fill="#3D3339" transform="translate(109,79)"/>
<path d="M0 0 C2.31 0.66 4.62 1.32 7 2 C6.01 3.98 5.02 5.96 4 8 C3.67 7.01 3.34 6.02 3 5 C2.01 4.67 1.02 4.34 0 4 C0.66 4 1.32 4 2 4 C1.34 2.68 0.68 1.36 0 0 Z " fill="#BF7E63" transform="translate(101,61)"/>
<path d="M0 0 C0.99 0.495 0.99 0.495 2 1 C2 2.32 2 3.64 2 5 C2.99 5.33 3.98 5.66 5 6 C4.01 6.33 3.02 6.66 2 7 C2 7.66 2 8.32 2 9 C1.34 9 0.68 9 0 9 C0 6.03 0 3.06 0 0 Z " fill="#D8B6A4" transform="translate(78,48)"/>
<path d="M0 0 C2.25245881 2.68841859 3.88213958 4.64641875 5 8 C3.68 8 2.36 8 1 8 C0.26919734 6.02253397 -0.39421747 4.01927511 -1 2 C-0.67 1.34 -0.34 0.68 0 0 Z " fill="#D5A998" transform="translate(73,56)"/>
<path d="M0 0 C0.66 0 1.32 0 2 0 C2 1.98 2 3.96 2 6 C1.01 6 0.02 6 -1 6 C-1.99 6.66 -2.98 7.32 -4 8 C-2.66666667 5.33333333 -1.33333333 2.66666667 0 0 Z " fill="#9A725E" transform="translate(106,70)"/>
<path d="M0 0 C0.99 0.33 1.98 0.66 3 1 C2.67 2.32 2.34 3.64 2 5 C-0.64 5.33 -3.28 5.66 -6 6 C-5.67 5.34 -5.34 4.68 -5 4 C-3.35 4 -1.7 4 0 4 C0 2.68 0 1.36 0 0 Z " fill="#B67D69" transform="translate(90,48)"/>
<path d="M0 0 C2.60691842 2.60691842 2.70416963 4.37607794 3 8 C2.34 8.99 1.68 9.98 1 11 C-0.20272819 8.59454362 -0.10071472 7.05003047 -0.0625 4.375 C-0.05347656 3.55773437 -0.04445313 2.74046875 -0.03515625 1.8984375 C-0.02355469 1.27195312 -0.01195313 0.64546875 0 0 Z " fill="#BFBBCA" transform="translate(88,120)"/>
<path d="M0 0 C2 2 2 2 2 5 C0.02 5.33 -1.96 5.66 -4 6 C-3.34 4.68 -2.68 3.36 -2 2 C-1.34 2 -0.68 2 0 2 C0 1.34 0 0.68 0 0 Z " fill="#404046" transform="translate(150,108)"/>
<path d="M0 0 C-2.9826906 1.52448631 -5.818202 2.93940067 -9 4 C-9.33 3.01 -9.66 2.02 -10 1 C-3.375 -1.125 -3.375 -1.125 0 0 Z " fill="#83878C" transform="translate(57,91)"/>
<path d="M0 0 C2.31 0 4.62 0 7 0 C7 1.32 7 2.64 7 4 C4.97954558 3.39816251 2.97888961 2.72693904 1 2 C0.67 1.34 0.34 0.68 0 0 Z " fill="#BC7560" transform="translate(92,90)"/>
<path d="M0 0 C0.33 0.66 0.66 1.32 1 2 C0.67 2.66 0.34 3.32 0 4 C-2.875 4.125 -2.875 4.125 -6 4 C-6.66 3.34 -7.32 2.68 -8 2 C-5.36 1.34 -2.72 0.68 0 0 Z " fill="#797E85" transform="translate(65,87)"/>
<path d="M0 0 C1 2 1 2 0.44140625 3.9453125 C0.15136719 4.66460937 -0.13867188 5.38390625 -0.4375 6.125 C-0.72496094 6.84945312 -1.01242188 7.57390625 -1.30859375 8.3203125 C-1.53675781 8.87460938 -1.76492187 9.42890625 -2 10 C-2.33 10 -2.66 10 -3 10 C-3.33 8.02 -3.66 6.04 -4 4 C-3.01 4 -2.02 4 -1 4 C-0.67 2.68 -0.34 1.36 0 0 Z " fill="#C28B6F" transform="translate(106,65)"/>
<path d="M0 0 C0.33 0 0.66 0 1 0 C1.06058594 0.61488281 1.12117188 1.22976562 1.18359375 1.86328125 C1.26738281 2.67152344 1.35117188 3.47976562 1.4375 4.3125 C1.51871094 5.11300781 1.59992188 5.91351563 1.68359375 6.73828125 C1.95265693 9.16087179 1.95265693 9.16087179 3 12 C2.34 12 1.68 12 1 12 C0.67 12.66 0.34 13.32 0 14 C0 9.38 0 4.76 0 0 Z " fill="#A87662" transform="translate(111,45)"/>
<path d="M0 0 C1.32 0.33 2.64 0.66 4 1 C4.125 3.875 4.125 3.875 4 7 C3.34 7.66 2.68 8.32 2 9 C1.855625 7.88625 1.71125 6.7725 1.5625 5.625 C1.21627965 2.17857953 1.21627965 2.17857953 0 0 Z " fill="#CEC7D4" transform="translate(90,105)"/>
<path d="M0 0 C1.0625 1.8125 1.0625 1.8125 2 4 C1.67 4.99 1.34 5.98 1 7 C0.01 7 -0.98 7 -2 7 C-1.125 1.125 -1.125 1.125 0 0 Z " fill="#4C4753" transform="translate(118,87)"/>
<path d="M0 0 C1.98 0 3.96 0 6 0 C4.52307692 4.67692308 4.52307692 4.67692308 1.875 6.3125 C0.946875 6.6528125 0.946875 6.6528125 0 7 C1.875 3.125 1.875 3.125 3 2 C2.01 1.34 1.02 0.68 0 0 Z " fill="#6C7682" transform="translate(71,85)"/>
<path d="M0 0 C0.33 0 0.66 0 1 0 C1.309375 1.093125 1.61875 2.18625 1.9375 3.3125 C2.58337897 5.55407994 3.2623117 7.7869351 4 10 C3.01 10 2.02 10 1 10 C-0.60725635 6.78548731 -0.05748185 3.56387464 0 0 Z " fill="#BE9C91" transform="translate(82,75)"/>
<path d="M0 0 C2.1519437 3.22791555 2.20086443 4.28400809 2 8 C-0.475 7.01 -0.475 7.01 -3 6 C-2.34 5.34 -1.68 4.68 -1 4 C-0.3574765 1.93125966 -0.3574765 1.93125966 0 0 Z " fill="#3F4143" transform="translate(114,31)"/>
<path d="M0 0 C-0.99 1.485 -0.99 1.485 -2 3 C-2.66 3 -3.32 3 -4 3 C-4 3.66 -4 4.32 -4 5 C-4.99 4.67 -5.98 4.34 -7 4 C-6.67 3.67 -6.34 3.34 -6 3 C-6.66 2.34 -7.32 1.68 -8 1 C-5.07175348 0.02391783 -3.04386724 -0.08226668 0 0 Z " fill="#726C66" transform="translate(109,23)"/>
<path d="M0 0 C-0.66 1.32 -1.32 2.64 -2 4 C-3.98 3.34 -5.96 2.68 -8 2 C-8 1.67 -8 1.34 -8 1 C-2.25 0 -2.25 0 0 0 Z " fill="#2D262D" transform="translate(148,115)"/>
<path d="M0 0 C-0.33 2.31 -0.66 4.62 -1 7 C-1.33 6.34 -1.66 5.68 -2 5 C-2.66 5 -3.32 5 -4 5 C-4 4.01 -4 3.02 -4 2 C-1 0 -1 0 0 0 Z " fill="#AB826A" transform="translate(110,65)"/>
</svg>
