<?xml version="1.0" encoding="UTF-8"?>
<svg version="1.1" xmlns="http://www.w3.org/2000/svg" width="1050" height="1350">
<path d="M0 0 C346.5 0 693 0 1050 0 C1050 445.5 1050 891 1050 1350 C703.5 1350 357 1350 0 1350 C0 904.5 0 459 0 0 Z " fill="#FEFEFE" transform="translate(0,0)"/>
<path d="M0 0 C1.04216171 -0.00945648 2.08432343 -0.01891296 3.1580658 -0.02865601 C4.85014915 -0.01954697 4.85014915 -0.01954697 6.57641602 -0.01025391 C7.74229752 -0.01312408 8.90817902 -0.01599426 10.10939026 -0.01895142 C12.58334843 -0.02099557 15.05732263 -0.01544128 17.53125 -0.00292969 C21.28431355 0.01298845 25.03627865 -0.00269975 28.78930664 -0.02197266 C31.19751212 -0.01998775 33.60571691 -0.01613897 36.01391602 -0.01025391 C37.12375351 -0.0163266 38.233591 -0.02239929 39.37705994 -0.02865601 C59.30479618 0.14737463 73.46513336 8.48015066 87.70532227 21.63818359 C99.58410726 34.01919663 105.28109371 50.88367287 105.10766602 67.82177734 C104.03704559 85.59407643 96.84497897 100.66882587 84.22094727 112.99755859 C71.64089008 123.83240554 57.53453511 128.99446558 41.01782227 128.82568359 C39.96498047 128.81738525 38.91213867 128.80908691 37.82739258 128.80053711 C19.57686829 128.4044607 5.46970043 120.29541127 -7.10717773 107.38818359 C-8.24889612 105.10474682 -8.23750764 103.83298618 -8.24761963 101.29554749 C-8.25332977 100.43888992 -8.25903992 99.58223236 -8.2649231 98.69961548 C-8.26604095 97.75774384 -8.26715881 96.81587219 -8.26831055 95.84545898 C-8.27327545 94.85512161 -8.27824036 93.86478424 -8.28335571 92.84443665 C-8.2979982 89.55823073 -8.30478225 86.27207306 -8.31030273 82.98583984 C-8.31605176 80.70901996 -8.32180952 78.43220009 -8.32757568 76.15538025 C-8.33809113 71.37791721 -8.34393047 66.60047103 -8.34741211 61.82299805 C-8.35290285 55.69136808 -8.37694109 49.55995951 -8.40538406 43.42839909 C-8.42397507 38.72476035 -8.42921412 34.02117536 -8.43074799 29.31750298 C-8.43378224 27.05639877 -8.4418366 24.79529568 -8.45493317 22.53422737 C-8.47192224 19.37607922 -8.47013101 16.2184776 -8.46362305 13.06030273 C-8.47283783 12.12045532 -8.48205261 11.18060791 -8.49154663 10.21228027 C-8.48597748 9.35280289 -8.48040833 8.4933255 -8.47467041 7.60780334 C-8.47613697 6.86098329 -8.47760353 6.11416323 -8.47911453 5.34471226 C-7.57085068 0.56689982 -4.33253676 0.01128358 0 0 Z " fill="#5DA3FA" transform="translate(35.107177734375,19.61181640625)"/>
<path d="M0 0 C11.29128574 4.98444145 17.93766839 17.397275 22.3515625 28.35546875 C28.20785788 45.31344638 26.95090955 62.5996428 19.62890625 78.9921875 C11.00656071 94.91354498 -2.73137292 106.34083268 -20.09375 111.6484375 C-26.26833177 113.27261187 -32.14812162 113.37609188 -38.5 113.25 C-40.10488281 113.24226563 -40.10488281 113.24226563 -41.7421875 113.234375 C-49.53234578 113.15588474 -49.53234578 113.15588474 -53 112 C-53 100.45 -53 88.9 -53 77 C-39.75 76.75 -39.75 76.75 -35.65136719 76.70214844 C-22.98736469 76.35190674 -10.86099179 73.03170035 -1.22265625 64.41015625 C8.65915438 53.72371982 10.5755989 41.22996939 10.3125 27.29296875 C9.86575273 16.79999217 6.44236909 8.31065613 0 0 Z " fill="#CD2584" transform="translate(114,35)"/>
<path d="M0 0 C9.0646875 -0.12375 9.0646875 -0.12375 18.3125 -0.25 C20.19622314 -0.28641602 22.07994629 -0.32283203 24.02075195 -0.36035156 C34.60905981 -0.47927177 43.16551586 0.25712338 52.3125 6.125 C59.27816499 13.57664162 62.34911808 20.76107267 62.203125 30.87109375 C61.61392254 39.94707776 57.76076504 45.98641399 51 52 C46.01599894 55.27159564 40.95395012 57.13296737 34.96582031 57.11352539 C34.17449707 57.11340454 33.38317383 57.11328369 32.56787109 57.11315918 C31.33544678 57.10548523 31.33544678 57.10548523 30.078125 57.09765625 C29.3154834 57.09664917 28.5528418 57.09564209 27.76708984 57.09460449 C24.92804452 57.0893867 22.08902069 57.07542544 19.25 57.0625 C12.8975 57.041875 6.545 57.02125 0 57 C0 38.19 0 19.38 0 0 Z " fill="#5DA4FA" transform="translate(44,39)"/>
<path d="M0 0 C1.89958467 1.19955883 3.65696991 2.42889213 5.37109375 3.87890625 C5.70109375 2.55890625 6.03109375 1.23890625 6.37109375 -0.12109375 C9.01109375 -0.12109375 11.65109375 -0.12109375 14.37109375 -0.12109375 C14.37109375 13.07890625 14.37109375 26.27890625 14.37109375 39.87890625 C11.73109375 39.87890625 9.09109375 39.87890625 6.37109375 39.87890625 C6.04109375 38.22890625 5.71109375 36.57890625 5.37109375 34.87890625 C4.81679688 35.22824219 4.2625 35.57757813 3.69140625 35.9375 C2.96695313 36.39253906 2.2425 36.84757812 1.49609375 37.31640625 C0.77679688 37.76886719 0.0575 38.22132812 -0.68359375 38.6875 C-5.26642759 41.49425566 -9.33583576 41.42218328 -14.62890625 40.87890625 C-21.81923653 38.78488024 -26.33740739 33.83694973 -30.00390625 27.50390625 C-31.43585336 21.48972838 -31.20889092 15.53377387 -28.8125 9.80078125 C-22.75635168 -0.03296453 -10.86203414 -4.63210074 0 0 Z " fill="#0A0A0A" transform="translate(504.62890625,60.12109375)"/>
<path d="M0 0 C2.18359375 1.10546875 2.18359375 1.10546875 5.43359375 3.10546875 C5.76359375 2.11546875 6.09359375 1.12546875 6.43359375 0.10546875 C9.07359375 0.10546875 11.71359375 0.10546875 14.43359375 0.10546875 C14.43359375 13.30546875 14.43359375 26.50546875 14.43359375 40.10546875 C11.79359375 40.10546875 9.15359375 40.10546875 6.43359375 40.10546875 C5.93859375 38.12546875 5.93859375 38.12546875 5.43359375 36.10546875 C4.36109375 36.74484375 3.28859375 37.38421875 2.18359375 38.04296875 C-3.2811508 41.13601417 -8.32029365 42.13067084 -14.62109375 40.609375 C-21.16615305 38.42357218 -25.54546218 34.40508051 -28.8359375 28.25390625 C-30.84853005 22.3345164 -30.53131121 15.46357358 -28.06640625 9.73046875 C-22.34695781 -0.08894273 -10.58434262 -3.68921531 0 0 Z " fill="#080808" transform="translate(405.56640625,59.89453125)"/>
<path d="M0 0 C6.7134375 -0.0928125 6.7134375 -0.0928125 13.5625 -0.1875 C14.96056885 -0.21481201 16.3586377 -0.24212402 17.79907227 -0.27026367 C31.24311097 -0.36024536 31.24311097 -0.36024536 36.9609375 4.75390625 C37.42757812 5.35074219 37.89421875 5.94757812 38.375 6.5625 C38.85710937 7.16191406 39.33921875 7.76132812 39.8359375 8.37890625 C42.47720172 12.05717689 42.55453254 15.60995075 42 20 C39.94985566 26.17271721 36.76033527 29.77943145 31.15527344 33.08935547 C28.61412867 34.16303807 26.76762283 34.22887345 24.015625 34.1953125 C23.08105469 34.18886719 22.14648438 34.18242188 21.18359375 34.17578125 C19.73146484 34.15064453 19.73146484 34.15064453 18.25 34.125 C17.26644531 34.11597656 16.28289062 34.10695312 15.26953125 34.09765625 C12.84624974 34.07412925 10.42309369 34.03825937 8 34 C8 40.6 8 47.2 8 54 C5.36 54 2.72 54 0 54 C0 36.18 0 18.36 0 0 Z " fill="#060606" transform="translate(175,46)"/>
<path d="M0 0 C1.04216171 -0.00945648 2.08432343 -0.01891296 3.1580658 -0.02865601 C4.85014915 -0.01954697 4.85014915 -0.01954697 6.57641602 -0.01025391 C7.74229752 -0.01312408 8.90817902 -0.01599426 10.10939026 -0.01895142 C12.58334843 -0.02099557 15.05732263 -0.01544128 17.53125 -0.00292969 C21.28431355 0.01298845 25.03627865 -0.00269975 28.78930664 -0.02197266 C31.19751212 -0.01998775 33.60571691 -0.01613897 36.01391602 -0.01025391 C37.12375351 -0.0163266 38.233591 -0.02239929 39.37705994 -0.02865601 C54.10930724 0.10148054 68.0558121 4.08608984 78.89282227 14.38818359 C88.95597773 25.66209346 90.85584703 38.7304647 90.33813477 53.34130859 C89.57477044 64.77897966 84.43157326 74.4244148 75.98266602 82.13037109 C71.3852412 85.80465494 66.41654597 88.386175 60.89282227 90.38818359 C59.94407227 90.75169922 58.99532227 91.11521484 58.01782227 91.48974609 C52.02358038 93.15888589 45.61623237 92.59342134 39.45532227 92.51318359 C34.97969727 92.47193359 30.50407227 92.43068359 25.89282227 92.38818359 C25.89282227 103.93818359 25.89282227 115.48818359 25.89282227 127.38818359 C24.90282227 127.05818359 23.91282227 126.72818359 22.89282227 126.38818359 C22.89282227 114.17818359 22.89282227 101.96818359 22.89282227 89.38818359 C26.91469727 89.28505859 30.93657227 89.18193359 35.08032227 89.07568359 C50.82998894 88.52899612 65.18178858 87.09921728 76.89282227 75.38818359 C85.46031672 63.81786633 87.38782426 51.32459455 85.45922852 37.21630859 C83.41354471 27.40719122 78.65853446 18.36153947 70.20532227 12.66552734 C62.22278307 8.25625316 54.42317018 5.33005126 45.27636719 5.18286133 C43.60229797 5.1525885 43.60229797 5.1525885 41.89440918 5.1217041 C40.73244019 5.10522827 39.57047119 5.08875244 38.37329102 5.07177734 C37.29712524 5.05312622 36.22095947 5.0344751 35.11218262 5.01525879 C31.10164405 4.9470874 27.09097366 4.88685818 23.08032227 4.82568359 C14.10844727 4.68130859 5.13657227 4.53693359 -4.10717773 4.38818359 C-4.10717773 38.70818359 -4.10717773 73.02818359 -4.10717773 108.38818359 C-5.09717773 108.05818359 -6.08717773 107.72818359 -7.10717773 107.38818359 C-8.24889612 105.10474682 -8.23750764 103.83298618 -8.24761963 101.29554749 C-8.25332977 100.43888992 -8.25903992 99.58223236 -8.2649231 98.69961548 C-8.26604095 97.75774384 -8.26715881 96.81587219 -8.26831055 95.84545898 C-8.27327545 94.85512161 -8.27824036 93.86478424 -8.28335571 92.84443665 C-8.2979982 89.55823073 -8.30478225 86.27207306 -8.31030273 82.98583984 C-8.31605176 80.70901996 -8.32180952 78.43220009 -8.32757568 76.15538025 C-8.33809113 71.37791721 -8.34393047 66.60047103 -8.34741211 61.82299805 C-8.35290285 55.69136808 -8.37694109 49.55995951 -8.40538406 43.42839909 C-8.42397507 38.72476035 -8.42921412 34.02117536 -8.43074799 29.31750298 C-8.43378224 27.05639877 -8.4418366 24.79529568 -8.45493317 22.53422737 C-8.47192224 19.37607922 -8.47013101 16.2184776 -8.46362305 13.06030273 C-8.47283783 12.12045532 -8.48205261 11.18060791 -8.49154663 10.21228027 C-8.48597748 9.35280289 -8.48040833 8.4933255 -8.47467041 7.60780334 C-8.47613697 6.86098329 -8.47760353 6.11416323 -8.47911453 5.34471226 C-7.57085068 0.56689982 -4.33253676 0.01128358 0 0 Z " fill="#1ACFFD" transform="translate(35.107177734375,19.61181640625)"/>
<path d="M0 0 C4.94206539 2.87199272 8.99912161 6.93574322 11.5703125 12.078125 C11.5703125 15.378125 11.5703125 18.678125 11.5703125 22.078125 C0.0203125 22.078125 -11.5296875 22.078125 -23.4296875 22.078125 C-20.89819993 27.69771218 -20.89819993 27.69771218 -16.5625 31.38671875 C-10.25053354 33.43290568 -2.16550005 33.18990378 3.9453125 30.578125 C4.8115625 30.083125 5.6778125 29.588125 6.5703125 29.078125 C7.5603125 30.398125 8.5503125 31.718125 9.5703125 33.078125 C8.56420477 35.78381583 7.89899678 36.89030541 5.35546875 38.34375 C-3.37241925 41.49931352 -11.03561478 42.95183003 -19.7421875 39.015625 C-25.19985641 35.96523999 -29.42820102 32.08258443 -31.4296875 26.078125 C-32.26330547 18.45948987 -32.26538252 12.1420117 -27.37890625 5.95703125 C-20.10279904 -1.05661117 -9.63253925 -3.65478981 0 0 Z " fill="#060606" transform="translate(253.4296875,59.921875)"/>
<path d="M0 0 C21.41463415 0 21.41463415 0 28.0625 5.5625 C31.90745362 10.39969972 31.44961756 15.00227142 31 21 C29.70483671 25.19023419 28.22772986 27.09448536 24.5625 29.3125 C20.47320749 31.24953329 17.38708321 32.13172033 12.890625 32.09765625 C11.8701709 32.09390991 11.8701709 32.09390991 10.82910156 32.09008789 C9.97799805 32.08098389 9.12689453 32.07187988 8.25 32.0625 C5.5275 32.041875 2.805 32.02125 0 32 C0 21.44 0 10.88 0 0 Z " fill="#CB2585" transform="translate(61,51)"/>
<path d="M0 0 C2.31 0 4.62 0 7 0 C7.33 7.26 7.66 14.52 8 22 C9.65 20.68 11.3 19.36 13 18 C17.68200286 15.0945674 22.65888338 15.37984132 28 16 C32.94551015 18.33787752 35.34224163 21.27826741 38 26 C38.45410156 29.52685547 38.45410156 29.52685547 38.390625 33.3671875 C38.38496521 34.04677521 38.37930542 34.72636292 38.37347412 35.42654419 C38.35125351 37.57677549 38.30109198 39.72528074 38.25 41.875 C38.22991614 43.3411216 38.21166868 44.80726958 38.1953125 46.2734375 C38.15143811 49.84951008 38.08251443 53.42458631 38 57 C35.36 57 32.72 57 30 57 C29.9906543 56.17798096 29.98130859 55.35596191 29.97167969 54.5090332 C29.91792129 50.77625038 29.83428169 47.04471319 29.75 43.3125 C29.73582031 42.01892578 29.72164063 40.72535156 29.70703125 39.39257812 C29.67480469 38.14541016 29.64257812 36.89824219 29.609375 35.61328125 C29.58842773 34.46641846 29.56748047 33.31955566 29.54589844 32.13793945 C28.89324645 28.38635803 27.65040123 26.68806125 25 24 C20.48422946 22.67811081 16.66391824 23.66200526 12.5625 25.75 C9.32770638 28.5903066 8.17852829 30.46077444 7.68115234 34.74902344 C7.64973145 35.77543945 7.61831055 36.80185547 7.5859375 37.859375 C7.54726563 38.97441406 7.50859375 40.08945313 7.46875 41.23828125 C7.4378125 42.39714844 7.406875 43.55601563 7.375 44.75 C7.33632813 45.92433594 7.29765625 47.09867188 7.2578125 48.30859375 C7.1636018 51.20557268 7.07798398 54.10254626 7 57 C4.69 57 2.38 57 0 57 C0 38.19 0 19.38 0 0 Z " fill="#040404" transform="translate(276,43)"/>
<path d="M0 0 C7.59468981 -0.10218396 15.18919958 -0.17179205 22.78442383 -0.21972656 C25.36326726 -0.23972885 27.942066 -0.26693956 30.52075195 -0.30175781 C34.24702039 -0.35077817 37.97268447 -0.37308374 41.69921875 -0.390625 C43.40316048 -0.42159271 43.40316048 -0.42159271 45.14152527 -0.45318604 C56.93800626 -0.45642557 68.6377321 2.54219343 78 10 C87.71742681 19.7342681 90.57707374 29.50865222 91 43 C88.36 43 85.72 43 83 43 C82.91363281 42.16597656 82.82726562 41.33195312 82.73828125 40.47265625 C81.48283535 30.41757123 78.96712136 22.67014811 71 16 C62.66523013 10.06882559 55.85139575 8.73073846 45.72265625 8.83203125 C43.49543843 8.82635508 41.26822408 8.81914652 39.04101562 8.81054688 C35.54716851 8.80636969 32.054498 8.81257532 28.56079102 8.84545898 C25.17642279 8.87240421 21.79450074 8.85556078 18.41015625 8.83203125 C17.37141861 8.85256058 16.33268097 8.8730899 15.26246643 8.89424133 C9.83551939 8.82213234 6.75159039 8.39506382 2.78686523 4.51049805 C0 1.29622296 0 1.29622296 0 0 Z " fill="#95DDFD" transform="translate(31,24)"/>
<path d="M0 0 C7 6 7 6 8 7 C8.08861992 9.8116338 8.11522355 12.59858255 8.09765625 15.41015625 C8.0962413 16.25219101 8.09482635 17.09422577 8.09336853 17.96177673 C8.08775263 20.66205335 8.07519748 23.36224828 8.0625 26.0625 C8.05748705 27.88867068 8.05292379 29.71484266 8.04882812 31.54101562 C8.03777804 36.02737542 8.02050279 40.51367384 8 45 C11.6263451 44.97687627 15.24966015 44.89913496 18.875 44.8125 C19.88820313 44.80669922 20.90140625 44.80089844 21.9453125 44.79492188 C29.13679572 44.58747524 35.08144298 43.2835727 41 39 C43.89746274 35.0713565 45.39379589 30.84963288 46 26 C48.31 26 50.62 26 53 26 C53.65818951 33.10844673 52.05964812 38.10313886 48 44 C42.19871496 50.13572719 34.67580377 52.69324003 26.37915039 53.23754883 C22.3723358 53.29422195 18.38168755 53.26168171 14.375 53.1875 C9.63125 53.125625 4.8875 53.06375 0 53 C0 35.51 0 18.02 0 0 Z " fill="#93DEFD" transform="translate(50,41)"/>
<path d="M0 0 C3.4243882 2.49887787 5.0931177 5.89366128 6.0625 9.9375 C6.4198512 14.92004968 6.34593581 19.88452765 6.25 24.875 C6.23492992 26.24021966 6.22124561 27.60545535 6.20898438 28.97070312 C6.17376164 32.29338096 6.12450041 35.61523181 6.0625 38.9375 C3.4225 38.9375 0.7825 38.9375 -1.9375 38.9375 C-1.95731934 38.14053711 -1.97713867 37.34357422 -1.99755859 36.52246094 C-2.09283248 32.91047528 -2.20250307 29.29906601 -2.3125 25.6875 C-2.3434375 24.43324219 -2.374375 23.17898437 -2.40625 21.88671875 C-2.44492187 20.68144531 -2.48359375 19.47617188 -2.5234375 18.234375 C-2.5548584 17.12416992 -2.5862793 16.01396484 -2.61865234 14.87011719 C-2.92837524 12.02142545 -3.40848224 10.3320126 -4.9375 7.9375 C-7.9159456 5.646388 -11.20126007 5.4668717 -14.90234375 5.54296875 C-18.55477597 6.25102183 -20.37533808 8.31284632 -22.9375 10.9375 C-24.27856405 13.6196281 -24.15200419 15.82148032 -24.25390625 18.8203125 C-24.29580078 19.98691406 -24.33769531 21.15351562 -24.38085938 22.35546875 C-24.43983398 24.19044922 -24.43983398 24.19044922 -24.5 26.0625 C-24.54318359 27.29355469 -24.58636719 28.52460937 -24.63085938 29.79296875 C-24.73718704 32.84102853 -24.83921781 35.8891719 -24.9375 38.9375 C-27.5775 38.9375 -30.2175 38.9375 -32.9375 38.9375 C-32.9375 25.7375 -32.9375 12.5375 -32.9375 -1.0625 C-30.2975 -1.0625 -27.6575 -1.0625 -24.9375 -1.0625 C-24.6075 0.5875 -24.2775 2.2375 -23.9375 3.9375 C-22.57625 2.7309375 -22.57625 2.7309375 -21.1875 1.5 C-15.65747492 -3.40161314 -6.21477373 -4.03299146 0 0 Z " fill="#060606" transform="translate(360.9375,61.0625)"/>
<path d="M0 0 C0.33 0 0.66 0 1 0 C1 25.74 1 51.48 1 78 C-8.75800736 68.24199264 -13.1021403 53.49840798 -13.1875 39.875 C-13.02012736 25.12947013 -9.32770329 11.68914715 0 0 Z " fill="#9C1459" transform="translate(26,46)"/>
<path d="M0 0 C0.88490616 -0.00807175 1.76981232 -0.01614349 2.68153381 -0.02445984 C4.56379221 -0.03832681 6.44607603 -0.04903721 8.32836914 -0.05688477 C11.17970371 -0.07396151 14.02983719 -0.11780579 16.88085938 -0.16210938 C34.71698605 -0.31532214 34.71698605 -0.31532214 42.28515625 4.23828125 C43.02813965 4.68413574 43.77112305 5.12999023 44.53662109 5.58935547 C50.95658679 9.68163265 54.9039673 16.09471439 57.28515625 23.23828125 C58.10664167 34.46973769 57.23993896 42.53551293 50.09765625 51.48828125 C45.18250628 56.79537205 38.64966074 60.91565938 31.2855835 61.35853577 C30.58387024 61.35631516 29.88215698 61.35409454 29.15917969 61.35180664 C28.34755371 61.35168579 27.53592773 61.35156494 26.69970703 61.35144043 C25.43489502 61.34376648 25.43489502 61.34376648 24.14453125 61.3359375 C22.97108154 61.33442688 22.97108154 61.33442688 21.77392578 61.33288574 C18.86098762 61.32766694 15.94807041 61.31370568 13.03515625 61.30078125 C6.51765625 61.28015625 0.00015625 61.25953125 -6.71484375 61.23828125 C-6.71484375 74.76828125 -6.71484375 88.29828125 -6.71484375 102.23828125 C-7.70484375 101.90828125 -8.69484375 101.57828125 -9.71484375 101.23828125 C-9.73796475 88.21717485 -9.75575759 75.1960733 -9.76665592 62.1749506 C-9.77188528 56.12940308 -9.77898389 50.08386955 -9.7902832 44.03833008 C-9.8011102 38.20933837 -9.80712018 32.38036016 -9.80972099 26.55135918 C-9.81157558 24.32210515 -9.81519683 22.0928519 -9.82057381 19.86360359 C-9.82778174 16.75288391 -9.8288348 13.64222076 -9.82836914 10.53149414 C-9.83196442 9.60001556 -9.83555969 8.66853699 -9.83926392 7.70883179 C-9.82516008 -0.93805737 -7.90709476 0.0678945 0 0 Z M-6.71484375 2.23828125 C-6.71484375 21.04828125 -6.71484375 39.85828125 -6.71484375 59.23828125 C2.65921875 59.33109375 2.65921875 59.33109375 12.22265625 59.42578125 C15.15386353 59.46674927 15.15386353 59.46674927 18.14428711 59.50854492 C19.72118515 59.51731996 21.29809008 59.52496148 22.875 59.53125 C24.06905457 59.55427185 24.06905457 59.55427185 25.28723145 59.57775879 C34.68512659 59.58206777 41.52278898 56.88612668 48.3359375 50.4296875 C54.3413036 43.67816369 55.70128608 36.22750237 55.63671875 27.4140625 C54.877258 20.55360041 51.0549877 14.15265304 46.28515625 9.23828125 C38.98441863 3.46560499 31.2083371 1.76468011 22.09375 1.9453125 C21.355802 1.94833374 20.617854 1.95135498 19.85754395 1.95446777 C17.14576893 1.96996204 14.43419596 2.01184314 11.72265625 2.05078125 C2.59609375 2.14359375 2.59609375 2.14359375 -6.71484375 2.23828125 Z " fill="#95DCFC" transform="translate(50.71484375,36.76171875)"/>
<path d="M0 0 C4.81899576 2.36403566 7.56479358 5.22324894 10 10 C10.87159882 15.99224187 9.39453687 19.22929953 6 24 C0.66294506 27.92484452 -4.59743961 27.93569218 -11 27 C-15.00273247 25.07134114 -17.29638556 22.04796883 -19 18 C-19.76221502 14.03501608 -19.86189537 10.48313163 -17.796875 6.9296875 C-12.72759557 0.8107088 -7.90533163 -1.09987223 0 0 Z " fill="#F9F9F9" transform="translate(403,66)"/>
<path d="M0 0 C4.32814986 2.20490653 7.51950111 4.80223265 10 9 C10.61977106 14.57793957 10.24218073 18.24480159 7 23 C3.34749588 26.46987891 0.4034317 27.30013186 -4.5 27.5 C-9.4034317 27.30013186 -12.34749588 26.46987891 -16 23 C-18.910372 18.634442 -19.6506249 15.20499921 -19 10 C-14.90397849 1.96549626 -8.85037211 -1.57304639 0 0 Z " fill="#F9F9F9" transform="translate(501,66)"/>
<path d="M0 0 C2.97 0 5.94 0 9 0 C13.29 9.24 17.58 18.48 22 28 C24.41026642 24.78631144 25.98839236 22.18892626 27.6640625 18.61328125 C28.14617187 17.59298828 28.62828125 16.57269531 29.125 15.52148438 C29.8675 13.93303711 29.8675 13.93303711 30.625 12.3125 C31.61534967 10.20356307 32.60744172 8.09544317 33.6015625 5.98828125 C34.25632568 4.58896362 34.25632568 4.58896362 34.92431641 3.16137695 C36 1 36 1 37 0 C39.67058851 -0.14115161 42.32432238 -0.04247107 45 0 C43.4989989 4.96484978 41.42259632 9.41683691 39.0859375 14.0234375 C38.71143463 14.76961334 38.33693176 15.51578918 37.95108032 16.28457642 C36.76282034 18.64996797 35.56900618 21.0125047 34.375 23.375 C33.56473474 24.98549127 32.75483502 26.59616651 31.9453125 28.20703125 C29.96776546 32.14016234 27.98523484 36.07074408 26 40 C23.69 40 21.38 40 19 40 C14.22474798 30.57263999 9.56902384 21.09162703 5 11.5625 C4.26076294 10.02517212 4.26076294 10.02517212 3.5065918 8.45678711 C3.0506665 7.50296143 2.59474121 6.54913574 2.125 5.56640625 C1.71507812 4.70990479 1.30515625 3.85340332 0.8828125 2.97094727 C0 1 0 1 0 0 Z " fill="#090909" transform="translate(427,60)"/>
<path d="M0 0 C3.04317386 -0.13558695 6.08025562 -0.23437239 9.125 -0.3125 C10.40890625 -0.3753418 10.40890625 -0.3753418 11.71875 -0.43945312 C16.05440628 -0.52283113 19.08300839 -0.43863447 22.578125 2.30078125 C25 5 25 5 25.625 8.5 C24.91563321 12.47245401 23.82768293 14.17231707 21 17 C18.65147472 18.17426264 17.26225935 18.11508173 14.6484375 18.09765625 C13.79765625 18.09443359 12.946875 18.09121094 12.0703125 18.08789062 C11.18085938 18.07951172 10.29140625 18.07113281 9.375 18.0625 C8.4778125 18.05798828 7.580625 18.05347656 6.65625 18.04882812 C4.43747169 18.03702611 2.21872757 18.01909039 0 18 C0 12.06 0 6.12 0 0 Z " fill="#F7F7F7" transform="translate(183,54)"/>
<path d="M0 0 C3.42375 -0.0825 6.8475 -0.165 10.375 -0.25 C11.96127197 -0.30462402 11.96127197 -0.30462402 13.57958984 -0.36035156 C20.38780287 -0.43867949 25.9985256 0.67972815 32 4 C37.08489803 9.20891994 37.32329243 13.11865334 37.30810547 20.25146484 C37.17921817 25.9021552 36.81829305 28.81805999 33 33 C25.77754797 37.88109809 19.41294515 38.66272063 10.875 38.3125 C7.28625 38.209375 3.6975 38.10625 0 38 C0 25.46 0 12.92 0 0 Z M3 3 C3 13.56 3 24.12 3 35 C17.09063793 35.88214421 17.09063793 35.88214421 30 31 C34.12710516 26.24527055 34.35390182 21.82161799 34.2734375 15.73046875 C33.88056699 11.80737605 32.74099627 9.81127823 30 7 C20.88779139 2.19538092 13.71491336 3 3 3 Z " fill="#02CFFD" transform="translate(58,48)"/>
<path d="M0 0 C2.15397472 3.23096208 2.2148402 4.22813526 1.53125 7.91796875 C-1.42172996 19.49104462 -7.72202525 28.76456819 -18 35 C-20.93622437 36.53657337 -23.8845148 37.87082909 -27 39 C-27.94875 39.36351562 -28.8975 39.72703125 -29.875 40.1015625 C-35.86924189 41.77070229 -42.2765899 41.20523775 -48.4375 41.125 C-52.913125 41.08375 -57.38875 41.0425 -62 41 C-62 52.55 -62 64.1 -62 76 C-62.99 75.67 -63.98 75.34 -65 75 C-65 62.79 -65 50.58 -65 38 C-60.978125 37.896875 -56.95625 37.79375 -52.8125 37.6875 C-37.06283332 37.14081252 -22.71103368 35.71103368 -11 24 C-6.28776405 17.70520862 -3.84574757 11.12576231 -1.76171875 3.58984375 C-1 1 -1 1 0 0 Z " fill="#0DC7F8" transform="translate(123,71)"/>
<path d="M0 0 C8 6 8 6 8.90820312 10.16943359 C8.90694994 11.74633565 8.86250636 13.32362987 8.78125 14.8984375 C8.76993042 15.73339752 8.75861084 16.56835754 8.74694824 17.42861938 C8.70237428 20.07980814 8.60207188 22.72546441 8.5 25.375 C8.45984736 27.17830694 8.42334968 28.98169922 8.390625 30.78515625 C8.30270412 35.19221621 8.16480863 39.59517238 8 44 C6.22555943 43.40651139 4.45554447 42.79977999 2.6875 42.1875 C1.70136719 41.85105469 0.71523438 41.51460937 -0.30078125 41.16796875 C-2.87129759 40.05569033 -4.22191977 39.11791809 -6 37 C-4.02 37 -2.04 37 0 37 C0 24.79 0 12.58 0 0 Z " fill="#93DEFD" transform="translate(50,102)"/>
<path d="M0 0 C0.33 0 0.66 0 1 0 C1 19.8 1 39.6 1 60 C-6.08772045 52.91227955 -7.0688109 40.05227922 -7.25 30.5625 C-7.02506549 19.36870028 -4.7154594 10.15083627 0 0 Z " fill="#CC2783" transform="translate(20,55)"/>
<path d="M0 0 C20.531288 -0.73912637 20.531288 -0.73912637 28.0625 5.5625 C31.89836226 10.3882622 31.47290361 15.01270255 31 21 C29.10691318 26.39529743 29.10691318 26.39529743 25.890625 28.15234375 C25.26671875 28.43207031 24.6428125 28.71179688 24 29 C23.97421875 28.20335938 23.9484375 27.40671875 23.921875 26.5859375 C23.55023215 18.01952568 23.55023215 18.01952568 19 11 C13.97782948 7.41604921 9.08675241 6.50081883 3.00390625 6.17578125 C1 6 1 6 0 5 C-0.04063832 3.33382885 -0.042721 1.66611905 0 0 Z " fill="#98195F" transform="translate(61,51)"/>
<path d="M0 0 C0.99 0 1.98 0 3 0 C3 33.99 3 67.98 3 103 C2.01 102.67 1.02 102.34 0 102 C0 68.34 0 34.68 0 0 Z " fill="#12C3F2" transform="translate(27,23)"/>
<path d="M0 0 C1.32 0 2.64 0 4 0 C4 7.59 4 15.18 4 23 C2.35 22.67 0.7 22.34 -1 22 C-1.33 22.33 -1.66 22.66 -2 23 C-9.03846154 23.57692308 -9.03846154 23.57692308 -12.5 21.5 C-14.59158203 18.01402996 -14.8876276 14.89784294 -14 11 C-11.875 8 -11.875 8 -9 6 C-5.79647701 5.62311494 -3.88861709 5.55569145 -1 7 C-0.67 4.69 -0.34 2.38 0 0 Z " fill="#D64697" transform="translate(234,118)"/>
<path d="M0 0 C0.99 0.33 1.98 0.66 3 1 C3 19.81 3 38.62 3 58 C14.88 58 26.76 58 39 58 C39 58.33 39 58.66 39 59 C21.675 59.495 21.675 59.495 4 60 C3.67 73.53 3.34 87.06 3 101 C2.01 100.67 1.02 100.34 0 100 C0 67 0 34 0 0 Z " fill="#86CCFC" transform="translate(41,38)"/>
<path d="M0 0 C0.66 0 1.32 0 2 0 C2.99 0 3.98 0 5 0 C5 5.28 5 10.56 5 16 C4.01 16 3.02 16 2 16 C2 15.34 2 14.68 2 14 C1.01 14.66 0.02 15.32 -1 16 C-4.01550927 16.33505659 -6.09883544 16.56038591 -9 16 C-12.23872519 13.32805171 -12.88915865 11.62071155 -13.625 7.5 C-13 4 -13 4 -10.4375 1 C-6.29447988 -1.41048443 -4.55835977 -1.13958994 0 0 Z " fill="#D12F8A" transform="translate(347,125)"/>
<path d="M0 0 C10.97708082 -0.48250905 10.97708082 -0.48250905 15.3125 1.5625 C17 4 17 4 17.0625 7.5625 C16 11 16 11 14.5 12.9375 C10.71687979 14.54532609 7.05279715 14.23381522 3 14 C3 16.64 3 19.28 3 22 C2.01 22 1.02 22 0 22 C0 14.74 0 7.48 0 0 Z " fill="#D12E89" transform="translate(315,119)"/>
<path d="M0 0 C1.32 0 2.64 0 4 0 C6.97 6.93 9.94 13.86 13 21 C11.68 21.33 10.36 21.66 9 22 C8.78601563 21.35546875 8.57203125 20.7109375 8.3515625 20.046875 C7.1526477 17.72160885 7.1526477 17.72160885 4.3984375 17.390625 C2.90183594 17.32101563 2.90183594 17.32101563 1.375 17.25 C0.37210938 17.19328125 -0.63078125 17.1365625 -1.6640625 17.078125 C-2.82035156 17.03945312 -2.82035156 17.03945312 -4 17 C-4.99 19.475 -4.99 19.475 -6 22 C-6.99 22 -7.98 22 -9 22 C-2.97560976 2.97560976 -2.97560976 2.97560976 0 0 Z " fill="#D3378E" transform="translate(206,119)"/>
<path d="M0 0 C4.18882979 2.69281915 4.18882979 2.69281915 5.625 4.6875 C5.625 6.0075 5.625 7.3275 5.625 8.6875 C-3.285 8.6875 -12.195 8.6875 -21.375 8.6875 C-20.375 3.6875 -20.375 3.6875 -18 1.4375 C-12.40792457 -2.29055029 -6.1666515 -2.39814225 0 0 Z " fill="#EFEFEF" transform="translate(251.375,67.3125)"/>
<path d="M0 0 C2.58457912 1.40923884 3.92656833 2.77846607 6 5 C6 6.65 6 8.3 6 10 C1.38 10 -3.24 10 -8 10 C-7.01 11.485 -7.01 11.485 -6 13 C-3.56306689 13.36416047 -3.56306689 13.36416047 -0.875 13.1875 C0.49011719 13.14689453 0.49011719 13.14689453 1.8828125 13.10546875 C2.58148438 13.07066406 3.28015625 13.03585938 4 13 C4 13.99 4 14.98 4 16 C0.51610083 17.74194959 -3.19900139 17.57670324 -7 17 C-10.50811779 14.56579582 -11.77376734 13.20657416 -12.5625 9 C-11.87642343 5.34092496 -10.57265686 3.64832324 -8 1 C-5.09704195 -0.45147903 -3.22738221 -0.37239025 0 0 Z " fill="#D64495" transform="translate(389,124)"/>
<path d="M0 0 C-0.33 0.99 -0.66 1.98 -1 3 C-4.07539291 4.2157821 -7.1486771 4.11584068 -10.421875 4.09765625 C-11.34581055 4.09515869 -12.26974609 4.09266113 -13.22167969 4.09008789 C-14.96819824 4.07643188 -14.96819824 4.07643188 -16.75 4.0625 C-20.4625 4.041875 -24.175 4.02125 -28 4 C-28 15.55 -28 27.1 -28 39 C-28.99 38.67 -29.98 38.34 -31 38 C-31 25.79 -31 13.58 -31 1 C-26.813125 0.835 -22.62625 0.67 -18.3125 0.5 C-17.00063721 0.44779297 -15.68877441 0.39558594 -14.3371582 0.34179688 C-13.29390381 0.30119141 -12.25064941 0.26058594 -11.17578125 0.21875 C-9.58117065 0.1559082 -9.58117065 0.1559082 -7.9543457 0.09179688 C-5.30023521 0.00932885 -2.65511397 -0.01717131 0 0 Z " fill="#03CEFD" transform="translate(89,108)"/>
<path d="M0 0 C3.86862654 0.16169042 3.86862654 0.16169042 7 -0.75 C10 -1 10 -1 12.171875 0.5625 C14.59116639 3.78822186 14.40939274 5.76518143 14.25 9.75 C14.21390625 10.92046875 14.1778125 12.0909375 14.140625 13.296875 C14.07101562 14.63492188 14.07101562 14.63492188 14 16 C13.01 16 12.02 16 11 16 C10.67 12.04 10.34 8.08 10 4 C7.525 3.505 7.525 3.505 5 3 C2.41073669 5.58926331 2.62601957 7.02705279 2.375 10.625 C2.30023438 11.62789062 2.22546875 12.63078125 2.1484375 13.6640625 C2.09945313 14.43492187 2.05046875 15.20578125 2 16 C1.01 16 0.02 16 -1 16 C-1.06058594 15.22914063 -1.12117187 14.45828125 -1.18359375 13.6640625 C-1.26738281 12.66117188 -1.35117188 11.65828125 -1.4375 10.625 C-1.51871094 9.62726563 -1.59992188 8.62953125 -1.68359375 7.6015625 C-1.84965626 5.02072387 -1.84965626 5.02072387 -3 3 C-4.98 3.33 -6.96 3.66 -9 4 C-9.33 7.96 -9.66 11.92 -10 16 C-10.99 16 -11.98 16 -13 16 C-13 10.72 -13 5.44 -13 0 C-7.43756702 -0.79463328 -5.08729859 -1.01745972 0 0 Z " fill="#D1308A" transform="translate(256,125)"/>
<path d="M0 0 C6.66259453 0.1696494 11.93873056 1.46546901 17 6 C21.54096447 11.90847331 20.64863822 18.94892095 20 26 C19.04697071 30.08248007 17.19856154 32.23692236 13.61328125 34.51953125 C7.04545455 38 7.04545455 38 3 38 C3 36.68 3 35.36 3 34 C3.68707031 33.78085938 4.37414062 33.56171875 5.08203125 33.3359375 C10.75396028 31.37363684 10.75396028 31.37363684 15.125 27.4375 C16.61845781 21.57034434 16.97789795 15.76112363 14.9375 10 C11.18581745 6.12729543 6.22083602 4.79103576 1 4 C0.67 2.68 0.34 1.36 0 0 Z " fill="#0BC9F8" transform="translate(75,48)"/>
<path d="M0 0 C2.3125 1.75 2.3125 1.75 4 5 C4.32956151 9.02274293 4.23117987 12.97361728 4 17 C2.68 17 1.36 17 0 17 C-0.33 13.04 -0.66 9.08 -1 5 C-2.65 4.67 -4.3 4.34 -6 4 C-8.58926331 6.58926331 -8.37398043 8.02705279 -8.625 11.625 C-8.69976562 12.62789062 -8.77453125 13.63078125 -8.8515625 14.6640625 C-8.90054687 15.43492187 -8.94953125 16.20578125 -9 17 C-9.99 17 -10.98 17 -12 17 C-12 11.72 -12 6.44 -12 1 C-10.68 1.33 -9.36 1.66 -8 2 C-4.75846834 -0.1610211 -3.76307099 -0.64247553 0 0 Z " fill="#D64596" transform="translate(297,124)"/>
<path d="M0 0 C6.46153846 0.46153846 6.46153846 0.46153846 9 3 C9.1953125 6.2578125 9.1953125 6.2578125 9.125 10.125 C9.10695313 11.40632812 9.08890625 12.68765625 9.0703125 14.0078125 C9.04710937 14.99523437 9.02390625 15.98265625 9 17 C8.01 17 7.02 17 6 17 C5.67 13.04 5.34 9.08 5 5 C0.39467611 3.54685336 0.39467611 3.54685336 -2 5 C-2.46898963 7.8159849 -2.46898963 7.8159849 -2.625 11.0625 C-2.69976562 12.16722656 -2.77453125 13.27195313 -2.8515625 14.41015625 C-2.90054687 15.26480469 -2.94953125 16.11945313 -3 17 C-3.99 17 -4.98 17 -6 17 C-6 11.72 -6 6.44 -6 1 C-4.68 1.33 -3.36 1.66 -2 2 C-1.34 1.34 -0.68 0.68 0 0 Z " fill="#D12F89" transform="translate(364,124)"/>
<path d="M0 0 C2.9375 0.75 2.9375 0.75 4.9375 2.75 C5.29773622 5.55984248 5.32082602 7.13241919 3.8125 9.5625 C1.06594028 11.30198782 -0.88096974 11.14769128 -4.0625 10.75 C-6 9.625 -6 9.625 -7.0625 7.75 C-6.9375 4.6875 -6.9375 4.6875 -6.0625 1.75 C-3.0625 -0.25 -3.0625 -0.25 0 0 Z " fill="#FCF2F7" transform="translate(344.0625,127.25)"/>
<path d="M0 0 C1.8125 1.125 1.8125 1.125 3 3 C3.3125 6.0625 3.3125 6.0625 3 9 C1 11 1 11 -2.5 11.25 C-6 11 -6 11 -8 9 C-8.333728 5.86295684 -8.52849028 3.83445834 -6.8125 1.125 C-4.34492892 -0.40659584 -2.85480169 -0.42822025 0 0 Z " fill="#FDF7FA" transform="translate(231,127)"/>
<path d="M0 0 C1.50559539 1.96382007 2.89131683 3.78263366 4 6 C5.64363134 6.72159424 7.31050386 7.39351421 9 8 C8 10 8 10 5.5625 11.3125 C2.58565053 13.27286429 1.99694959 14.64662411 1 18 C-0.125 16.3125 -1.25 14.625 -2.375 12.9375 C-4.1088572 10.87020873 -5.53058201 10.02182813 -8 9 C-6.8553125 8.1646875 -6.8553125 8.1646875 -5.6875 7.3125 C-3.03859112 5.03320631 -1.61711178 3.06400128 0 0 Z " fill="#FAEDF4" transform="translate(101,115)"/>
<path d="M0 0 C-10.66674184 3.92468819 -19.59763687 5.73722175 -31 5 C-31 3.68 -31 2.36 -31 1 C-30.09290283 0.96241577 -30.09290283 0.96241577 -29.16748047 0.92407227 C-26.4031438 0.80736994 -23.63908634 0.68498266 -20.875 0.5625 C-19.92367187 0.52318359 -18.97234375 0.48386719 -17.9921875 0.44335938 C-14.11913636 0.26853415 -10.394469 0.06874004 -6.5703125 -0.59765625 C-3.9930608 -1.00108623 -2.44219321 -0.84537457 0 0 Z " fill="#9D1359" transform="translate(93,112)"/>
<path d="M0 0 C0.33 0.99 0.66 1.98 1 3 C-0.134375 3.309375 -1.26875 3.61875 -2.4375 3.9375 C-5.78775099 4.62924531 -5.78775099 4.62924531 -7 6 C-7.04080783 7.99958364 -7.04254356 10.00045254 -7 12 C-5.02 12.99 -3.04 13.98 -1 15 C-1 15.66 -1 16.32 -1 17 C-4.45669582 17.31424507 -6.39901677 17.37956836 -9.375 15.5 C-11.24266544 12.62666856 -11.63473458 10.39510347 -11.44921875 6.97265625 C-10.06222998 0.88196643 -5.64842674 -0.65679381 0 0 Z " fill="#D2318B" transform="translate(231,124)"/>
<path d="M0 0 C2 2 2 2 3 5 C5.50447516 6.21869929 5.50447516 6.21869929 8 7 C6.8553125 7.86625 6.8553125 7.86625 5.6875 8.75 C3.33799083 10.71703093 1.70676495 12.48476744 0 15 C-0.598125 14.236875 -1.19625 13.47375 -1.8125 12.6875 C-3.46959332 10.6516425 -5.10297674 8.8021721 -7 7 C-6.21625 6.5875 -5.4325 6.175 -4.625 5.75 C-1.94108344 3.9607223 -1.11901051 2.95011861 0 0 Z " fill="#FAEBF3" transform="translate(127,84)"/>
<path d="M0 0 C0.33 0.99 0.66 1.98 1 3 C4.63 3 8.26 3 12 3 C12 3.33 12 3.66 12 4 C8.37 4 4.74 4 1 4 C3.42791553 8.20516915 3.42791553 8.20516915 6.48046875 8.390625 C7.37378906 8.34421875 8.26710938 8.2978125 9.1875 8.25 C10.08855469 8.21390625 10.98960937 8.1778125 11.91796875 8.140625 C12.60503906 8.09421875 13.29210937 8.0478125 14 8 C14 8.99 14 9.98 14 11 C10.51610083 12.74194959 6.80099861 12.57670324 3 12 C-0.0625 9.875 -0.0625 9.875 -2 7 C-2.3125 3.6875 -2.3125 3.6875 -2 1 C-1.34 0.67 -0.68 0.34 0 0 Z " fill="#D2318B" transform="translate(379,129)"/>
<path d="M0 0 C6.0546875 -0.1953125 6.0546875 -0.1953125 8 0 C8.66 0.66 9.32 1.32 10 2 C9.44444444 6.55555556 9.44444444 6.55555556 8 8 C5.32941149 8.14115161 2.67567762 8.04247107 0 8 C0 5.36 0 2.72 0 0 Z " fill="#F9E3EF" transform="translate(318,122)"/>
<path d="M0 0 C0.99 0 1.98 0 3 0 C3 7.59 3 15.18 3 23 C2.01 23 1.02 23 0 23 C0 15.41 0 7.82 0 0 Z " fill="#D02886" transform="translate(399,118)"/>
<path d="M0 0 C0.99 0 1.98 0 3 0 C3 0.66 3 1.32 3 2 C3.66 2 4.32 2 5 2 C4.67 2.99 4.34 3.98 4 5 C3.77820215 6.89212737 3.59385985 8.78884472 3.4375 10.6875 C3.31181641 12.17830078 3.31181641 12.17830078 3.18359375 13.69921875 C3.12300781 14.45847656 3.06242187 15.21773437 3 16 C2.01 16 1.02 16 0 16 C0 10.72 0 5.44 0 0 Z " fill="#CF2584" transform="translate(285,125)"/>
<path d="M0 0 C0.99 0 1.98 0 3 0 C3 5.28 3 10.56 3 16 C2.01 16 1.02 16 0 16 C0 10.72 0 5.44 0 0 Z " fill="#D12D88" transform="translate(276,125)"/>
<path d="M0 0 C2 2 4 4 6 6 C5.071875 6.12375 5.071875 6.12375 4.125 6.25 C1.81562433 6.81258459 1.81562433 6.81258459 0.75 9.0625 C0.5025 9.701875 0.255 10.34125 0 11 C-1.65 9.02 -3.3 7.04 -5 5 C-3.35 3.35 -1.7 1.7 0 0 Z " fill="#F9E6F1" transform="translate(71,68)"/>
<path d="M0 0 C2.50298434 2.93828597 3.46930939 5.17902761 4 9 C1.69 9 -0.62 9 -3 9 C-2.01 6.03 -1.02 3.06 0 0 Z " fill="#FBEDF5" transform="translate(207,123)"/>
<path d="M0 0 C0.66 1.32 1.32 2.64 2 4 C-1.3 4 -4.6 4 -8 4 C-7.67 3.01 -7.34 2.02 -7 1 C-4.53721199 -0.231394 -2.7204945 -0.07159196 0 0 Z " fill="#FBEFF6" transform="translate(389,127)"/>
<path d="M0 0 C1.65 0 3.3 0 5 0 C5.33 0.99 5.66 1.98 6 3 C2.17679443 4.42258812 -0.91281305 5.24042276 -5 5 C-3.68 4.67 -2.36 4.34 -1 4 C-0.67 2.68 -0.34 1.36 0 0 Z " fill="#12C0F1" transform="translate(89,107)"/>
</svg>
