<?xml version="1.0" encoding="UTF-8"?>
<svg version="1.1" xmlns="http://www.w3.org/2000/svg" width="440" height="566">
<path d="M0 0 C4.00171468 -0.09957372 8.00294042 -0.17179608 12.00561523 -0.21972656 C13.36446713 -0.23972628 14.72323424 -0.26693576 16.08178711 -0.30175781 C29.95725884 -0.64826243 29.95725884 -0.64826243 36 4 C36.67289063 4.44601563 37.34578125 4.89203125 38.0390625 5.3515625 C44.24648546 10.33584793 47.49911965 15.94816301 48.48046875 23.88671875 C48.9749678 33.10722408 47.46701958 39.58688244 41.54296875 46.765625 C35.76948382 53.04181442 29.47287694 54.78357047 21.125 55.1875 C13.34759349 55.05391859 7.01284283 53.03246553 1.40234375 47.39453125 C-3.91191759 41.47964087 -6.55343056 36.22001933 -6.4375 28.125 C-6.43355225 27.42044678 -6.42960449 26.71589355 -6.42553711 25.98999023 C-6.26536197 20.19486714 -5.24334302 15.24334302 -1 11 C-0.76636119 9.15108054 -0.58696365 7.29511969 -0.4375 5.4375 C-0.35371094 4.42558594 -0.26992187 3.41367188 -0.18359375 2.37109375 C-0.12300781 1.58863281 -0.06242188 0.80617188 0 0 Z M31 43 C32 45 32 45 32 45 Z " fill="#74BAF9" transform="translate(11,8)"/>
<path d="M0 0 C4.00171468 -0.09957372 8.00294042 -0.17179608 12.00561523 -0.21972656 C13.36446713 -0.23972628 14.72323424 -0.26693576 16.08178711 -0.30175781 C30.19935303 -0.65430812 30.19935303 -0.65430812 36 4 C36.495 4.99 36.495 4.99 37 6 C36.34 6 35.68 6 35 6 C35.54140625 6.76183594 35.54140625 6.76183594 36.09375 7.5390625 C38.98797464 11.83216238 40.6707301 14.63415923 40 20 C39.01 20 38.02 20 37 20 C36.76925781 19.31292969 36.53851563 18.62585938 36.30078125 17.91796875 C34.35550406 12.237775 34.35550406 12.237775 30.375 7.9375 C29.59125 7.628125 28.8075 7.31875 28 7 C27.34 6.67 26.68 6.34 26 6 C24.33434251 5.84777027 22.66343504 5.75082785 20.9921875 5.68359375 C20.00605469 5.64169922 19.01992188 5.59980469 18.00390625 5.55664062 C16.45509766 5.49766602 16.45509766 5.49766602 14.875 5.4375 C13.83472656 5.39431641 12.79445313 5.35113281 11.72265625 5.30664062 C9.14857472 5.2003712 6.57439492 5.09833417 4 5 C4.32597168 6.14146484 4.65194336 7.28292969 4.98779297 8.45898438 C6.098056 12.91766168 6.25860948 17.08083576 6.1953125 21.65625 C6.1924826 22.44398804 6.18965271 23.23172607 6.18673706 24.04333496 C6.17565169 26.52905264 6.1505701 29.0143935 6.125 31.5 C6.1149551 33.19791142 6.10583191 34.89582855 6.09765625 36.59375 C6.07575071 40.72930914 6.04130326 44.86459096 6 49 C0.48597797 46.99820983 -1.61584456 44.3329991 -4.58984375 39.3203125 C-6.21184491 35.50119621 -6.49593685 32.20543725 -6.4375 28.125 C-6.43355225 27.42044678 -6.42960449 26.71589355 -6.42553711 25.98999023 C-6.26536197 20.19486714 -5.24334302 15.24334302 -1 11 C-0.76636119 9.15108054 -0.58696365 7.29511969 -0.4375 5.4375 C-0.35371094 4.42558594 -0.26992187 3.41367188 -0.18359375 2.37109375 C-0.12300781 1.58863281 -0.06242188 0.80617188 0 0 Z " fill="#5DA6F3" transform="translate(11,8)"/>
<path d="M0 0 C2.61520187 0.35204641 3.7355567 0.69310659 5.484375 2.72265625 C9.74835004 10.60574591 10.11441908 18.2913541 9 27 C6.62391207 34.25914998 1.46477445 39.90669877 -5 43.8125 C-10.65812949 46.05217625 -15.99515266 46.20016158 -22 46 C-22.66 45.67 -23.32 45.34 -24 45 C-24 40.05 -24 35.1 -24 30 C-22.89140625 29.89042969 -21.7828125 29.78085937 -20.640625 29.66796875 C-19.17701127 29.50847238 -17.71347333 29.34827951 -16.25 29.1875 C-15.52039062 29.11724609 -14.79078125 29.04699219 -14.0390625 28.97460938 C-9.81183304 28.49424239 -7.19123783 27.82718885 -4 25 C-3.34 25 -2.68 25 -2 25 C-1.690625 24.21625 -1.38125 23.4325 -1.0625 22.625 C0 20 0 20 1 18 C1.09813199 15.50917924 1.13905548 13.05266211 1.125 10.5625 C1.12886719 9.88123047 1.13273437 9.19996094 1.13671875 8.49804688 C1.1306374 5.39351954 0.98890312 2.96670935 0 0 Z M-8 34 C-7 36 -7 36 -7 36 Z " fill="#CD2481" transform="translate(50,17)"/>
<path d="M0 0 C3.54150893 -0.08761663 7.08273633 -0.14059739 10.625 -0.1875 C11.62402344 -0.21263672 12.62304688 -0.23777344 13.65234375 -0.26367188 C19.16272727 -0.31841078 23.32713525 -0.28283537 28 3 C29.6796875 4.90234375 29.6796875 4.90234375 30.875 6.9375 C31.28492187 7.60652344 31.69484375 8.27554687 32.1171875 8.96484375 C33 11 33 11 33 15 C33.99 15 34.98 15 36 15 C34.59311081 8.49773269 34.59311081 8.49773269 31 3 C31 2.34 31 1.68 31 1 C33.4375 1.375 33.4375 1.375 36 2 C36.495 2.99 36.495 2.99 37 4 C36.34 4 35.68 4 35 4 C35.66 4.99 36.32 5.98 37 7 C37.61719119 13.11449873 38.31784485 20.58383294 35.375 26.1875 C31.89643635 30.30685169 28.33724831 33.02528976 23 34 C18.99544707 34.12968112 15.00797415 34.04356494 11 34 C11 38.95 11 43.9 11 49 C10.34 49 9.68 49 9 49 C8.67 43.39 8.34 37.78 8 32 C7.34 31.67 6.68 31.34 6 31 C6 35.62 6 40.24 6 45 C5.34 45 4.68 45 4 45 C4 39.72 4 34.44 4 29 C6.495625 28.9175 8.99125 28.835 11.5625 28.75 C17.66148719 28.43693295 22.15885366 28.03428861 27 24 C30.22562187 18.86533662 29.57054918 12.73863607 28.375 7 C26.34943852 4.05372875 24.45427037 3.89413636 21 3 C17.71239416 2.63667396 14.42944571 2.4944378 11.125 2.375 C10.24585938 2.33632812 9.36671875 2.29765625 8.4609375 2.2578125 C6.30761207 2.16418966 4.15383586 2.08103541 2 2 C2 3.98 2 5.96 2 8 C1.67 8 1.34 8 1 8 C0.67 5.36 0.34 2.72 0 0 Z " fill="#60A9F2" transform="translate(15,13)"/>
<path d="M0 0 C0.99 0.33 1.98 0.66 3 1 C3 1.66 3 2.32 3 3 C3.75925781 2.97679687 4.51851562 2.95359375 5.30078125 2.9296875 C6.29464844 2.91164062 7.28851563 2.89359375 8.3125 2.875 C9.29863281 2.85179687 10.28476563 2.82859375 11.30078125 2.8046875 C14 3 14 3 17 5 C16.505 3.02 16.505 3.02 16 1 C17.32 0.67 18.64 0.34 20 0 C20.495 1.485 20.495 1.485 21 3 C21.94875 2.95875 22.8975 2.9175 23.875 2.875 C27 3 27 3 29 5 C29.125 8.125 29.125 8.125 29 11 C28.01 11 27.02 11 26 11 C25.505 9.02 25.505 9.02 25 7 C24.67 8.32 24.34 9.64 24 11 C20.37 11 16.74 11 13 11 C13 9.68 13 8.36 13 7 C12.34 7 11.68 7 11 7 C11 8.32 11 9.64 11 11 C10.01 11 9.02 11 8 11 C8 9.35 8 7.7 8 6 C7.34 6 6.68 6 6 6 C6 7.65 6 9.3 6 11 C-2.06067686 12.0938288 -9.09988972 11.97502757 -17 10 C-15.68 7.03 -14.36 4.06 -13 1 C-11.68 1 -10.36 1 -9 1 C-8.34 2.65 -7.68 4.3 -7 6 C-6.5875 5.505 -6.175 5.01 -5.75 4.5 C-4 3 -4 3 0 3 C0 2.01 0 1.02 0 0 Z M-3 6 C-3 6.99 -3 7.98 -3 9 C-2.01 8.67 -1.02 8.34 0 8 C-0.33 7.34 -0.66 6.68 -1 6 C-1.66 6 -2.32 6 -3 6 Z " fill="#D378A6" transform="translate(98,48)"/>
<path d="M0 0 C13.93948585 -0.6874267 13.93948585 -0.6874267 17.75 1.5625 C20.50757928 4.54987756 21.23914953 7.04357758 22 11 C20.68 11 19.36 11 18 11 C17.896875 11.94875 17.79375 12.8975 17.6875 13.875 C17 17 17 17 14 19 C11.08203125 19.1953125 11.08203125 19.1953125 7.8125 19.125 C6.72582031 19.10695313 5.63914062 19.08890625 4.51953125 19.0703125 C3.27236328 19.03550781 3.27236328 19.03550781 2 19 C1.93941406 17.79601562 1.87882812 16.59203125 1.81640625 15.3515625 C1.73200268 13.77602923 1.64735459 12.20050904 1.5625 10.625 C1.50352539 9.43390625 1.50352539 9.43390625 1.44335938 8.21875 C1.31106596 3.97398779 1.31106596 3.97398779 0 0 Z " fill="#519DE3" transform="translate(22,17)"/>
<path d="M0 0 C0 0.99 0 1.98 0 3 C0.66 3 1.32 3 2 3 C2.33 2.01 2.66 1.02 3 0 C3 0.66 3 1.32 3 2 C3.94875 2.144375 4.8975 2.28875 5.875 2.4375 C9 3 9 3 11 4 C11.33 3.01 11.66 2.02 12 1 C12.99 1.33 13.98 1.66 15 2 C12.99331754 6.92549331 9.58006283 10.05868597 5.0625 12.75 C-0.60470344 15.06314426 -5.96327078 15.20463489 -12 15 C-13 14 -13 14 -13.09765625 11.27734375 C-13.08605469 10.17519531 -13.07445313 9.07304688 -13.0625 7.9375 C-13.05347656 6.83277344 -13.04445313 5.72804688 -13.03515625 4.58984375 C-13.02355469 3.73519531 -13.01195313 2.88054688 -13 2 C-11.20873548 1.66451233 -9.41697413 1.33167645 -7.625 1 C-6.62726562 0.814375 -5.62953125 0.62875 -4.6015625 0.4375 C-2 0 -2 0 0 0 Z M2 3 C3 5 3 5 3 5 Z " fill="#CE2684" transform="translate(40,48)"/>
<path d="M0 0 C2.578125 -0.061875 5.15625 -0.12375 7.8125 -0.1875 C9.02450073 -0.22846802 9.02450073 -0.22846802 10.26098633 -0.27026367 C15.50237759 -0.33141652 15.50237759 -0.33141652 17.953125 1.30078125 C19.74080227 4.2024216 19.94184744 6.62715149 20 10 C18.75 12.9375 18.75 12.9375 16 15 C12.29660921 15.41503517 8.70986273 15.28783418 5 15 C5 17.97 5 20.94 5 24 C3.35 23.67 1.7 23.34 0 23 C0 15.41 0 7.82 0 0 Z M5 5 C5 6.65 5 8.3 5 10 C7.64 10 10.28 10 13 10 C13.59070014 8.05396726 13.59070014 8.05396726 14 6 C13.01732141 4.79438816 13.01732141 4.79438816 11.15234375 4.90234375 C9.1015625 4.93489583 7.05078125 4.96744792 5 5 Z " fill="#353535" transform="translate(72,19)"/>
<path d="M0 0 C2.12970202 1.57755705 2.82845555 2.74445369 3.6875 5.25 C3.6875 6.9 3.6875 8.55 3.6875 10.25 C-0.9325 10.25 -5.5525 10.25 -10.3125 10.25 C-9.3225 11.24 -8.3325 12.23 -7.3125 13.25 C-4.08050909 12.98066742 -1.38664286 12.27471429 1.6875 11.25 C2.0175 12.9 2.3475 14.55 2.6875 16.25 C-1.61928776 18.69148966 -5.44860811 18.97828328 -10.3125 18.25 C-13.18279869 16.45606332 -14.80381638 15.26736724 -16.3125 12.25 C-16.70319343 8.10864965 -16.74632227 5.93813188 -14.5 2.375 C-10.47637007 -1.53366907 -5.23186593 -1.69682138 0 0 Z M-7.3125 3.25 C-7.9725 3.91 -8.6325 4.57 -9.3125 5.25 C-7.0025 5.25 -4.6925 5.25 -2.3125 5.25 C-2.9725 4.59 -3.6325 3.93 -4.3125 3.25 C-5.3025 3.25 -6.2925 3.25 -7.3125 3.25 Z " fill="#2D2D2D" transform="translate(108.3125,24.75)"/>
<path d="M0 0 C0 5.94 0 11.88 0 18 C-5.09393089 19.27348272 -9.77765197 19.65665619 -15 19 C-18.1875 17.0625 -18.1875 17.0625 -20 14 C-20.75669821 9.78946142 -20.69013943 6.3145513 -18.6875 2.5 C-13.92429776 -1.73395754 -5.86337511 -0.05379243 0 0 Z M-15 7 C-15.66666667 9.5 -15.66666667 9.5 -15 12 C-13.42304368 14.0785608 -13.42304368 14.0785608 -11 15 C-8.24308557 14.66390749 -8.24308557 14.66390749 -6 13 C-4.74846741 10.65904469 -4.74846741 10.65904469 -5 8 C-6.70881764 5.62419982 -6.70881764 5.62419982 -9 4 C-11.8823175 4 -12.95575462 5.02389614 -15 7 Z " fill="#2D2D2D" transform="translate(177,24)"/>
<path d="M0 0 C0 5.94 0 11.88 0 18 C-3.32916407 18.83229102 -5.69975855 19.13514402 -9.0625 19.125 C-10.34833984 19.12886719 -10.34833984 19.12886719 -11.66015625 19.1328125 C-14 19 -14 19 -17 18 C-17 17.34 -17 16.68 -17 16 C-17.66 16 -18.32 16 -19 16 C-20.53227504 11.40317487 -20.72063065 7.57852428 -18.6875 3.125 C-14.58615082 -2.03966193 -5.8858136 -0.05399829 0 0 Z M-13 5 C-13 5.66 -13 6.32 -13 7 C-13.66 7 -14.32 7 -15 7 C-15 8.65 -15 10.3 -15 12 C-14.34 12 -13.68 12 -13 12 C-13 12.66 -13 13.32 -13 14 C-10.65466049 14.76956136 -10.65466049 14.76956136 -8 15 C-6.06345052 13.98029682 -6.06345052 13.98029682 -5 12 C-4.55586036 9.03906909 -4.53969807 7.63565504 -6.3125 5.1875 C-8.78083101 3.45052633 -10.3594908 3.6797454 -13 5 Z " fill="#373737" transform="translate(218,24)"/>
<path d="M0 0 C1.65 0 3.3 0 5 0 C5 2.64 5 5.28 5 8 C5.66 7.67 6.32 7.34 7 7 C13.22804809 6.54705105 13.22804809 6.54705105 15.7109375 8.00390625 C17.7602846 11.17728919 17.3116371 14.54296211 17.1875 18.1875 C17.16719727 19.31188477 17.16719727 19.31188477 17.14648438 20.45898438 C17.11118539 22.30629767 17.05737917 24.15324066 17 26 C15.68 26 14.36 26 13 26 C12.93941406 25.15695313 12.87882812 24.31390625 12.81640625 23.4453125 C12.73261719 22.34960938 12.64882812 21.25390625 12.5625 20.125 C12.48128906 19.03445312 12.40007812 17.94390625 12.31640625 16.8203125 C12.16998297 14.05271029 12.16998297 14.05271029 11 12 C9.35 12 7.7 12 6 12 C5.67 16.29 5.34 20.58 5 25 C1 26 1 26 -1 25 C-1.0289337 21.20834926 -1.04677601 17.41672673 -1.0625 13.625 C-1.07087891 12.54476563 -1.07925781 11.46453125 -1.08789062 10.3515625 C-1.09111328 9.3203125 -1.09433594 8.2890625 -1.09765625 7.2265625 C-1.10289307 6.27346191 -1.10812988 5.32036133 -1.11352539 4.33837891 C-1 2 -1 2 0 0 Z " fill="#3D3D3D" transform="translate(115,17)"/>
<path d="M0 0 C2.475 0.495 2.475 0.495 5 1 C5.66 0.67 6.32 0.34 7 0 C10.34919863 -0.29123466 12.35756835 -0.36462337 15.3125 1.3125 C17.70672181 3.70672181 17.98603546 5.58273942 18.09765625 8.91796875 C18.08605469 9.99691406 18.07445312 11.07585938 18.0625 12.1875 C18.05347656 13.27417969 18.04445312 14.36085938 18.03515625 15.48046875 C18.02355469 16.31191406 18.01195312 17.14335938 18 18 C16.34385343 18.38218767 14.67542976 18.71395102 13 19 C11.18884044 17.18884044 11.61800552 14.38721773 11.4375 11.9375 C11.35371094 10.83277344 11.26992187 9.72804688 11.18359375 8.58984375 C11.12300781 7.73519531 11.06242188 6.88054688 11 6 C9.35 5.67 7.7 5.34 6 5 C4.99740493 8.00778521 4.69685358 10.53820647 4.4375 13.6875 C4.35371094 14.68136719 4.26992187 15.67523438 4.18359375 16.69921875 C4.12300781 17.45847656 4.06242188 18.21773437 4 19 C2.68 19 1.36 19 0 19 C0 12.73 0 6.46 0 0 Z " fill="#3D3D3D" transform="translate(137,24)"/>
<path d="M0 0 C1 3 1 3 -0.5625 6.4375 C-3.03919669 10.49105548 -6.23388907 13.07996745 -10.796875 14.59765625 C-15.45579044 15.44848655 -20.28640577 15.05123472 -25 15 C-25 19.95 -25 24.9 -25 30 C-25.66 30 -26.32 30 -27 30 C-27.33 24.39 -27.66 18.78 -28 13 C-28.66 12.67 -29.32 12.34 -30 12 C-30 16.62 -30 21.24 -30 26 C-30.66 26 -31.32 26 -32 26 C-32 20.72 -32 15.44 -32 10 C-25.73 9.67 -19.46 9.34 -13 9 C-13 9.66 -13 10.32 -13 11 C-8.18877153 9.47444034 -8.18877153 9.47444034 -5 6 C-4.34 6 -3.68 6 -3 6 C-2.67 4.68 -2.34 3.36 -2 2 C-1.34 2 -0.68 2 0 2 C0 1.34 0 0.68 0 0 Z " fill="#5EA0E5" transform="translate(51,32)"/>
<path d="M0 0 C1.65 0 3.3 0 5 0 C6.65 2.97 8.3 5.94 10 9 C12.93478135 5.3354102 12.93478135 5.3354102 14.375 2.25 C14.91125 1.5075 15.4475 0.765 16 0 C18.6875 -0.3125 18.6875 -0.3125 21 0 C20.24197601 4.01247365 18.464839 7.54712221 16.6875 11.1875 C16.39166016 11.82880859 16.09582031 12.47011719 15.79101562 13.13085938 C13.5326762 17.74996832 13.5326762 17.74996832 10.89453125 18.98828125 C9 19 9 19 7 18 C3.91244337 12.28010342 1.54195793 6.30800971 0 0 Z " fill="#3E3E3E" transform="translate(178,24)"/>
<path d="M0 0 C0.66 0 1.32 0 2 0 C2 10.89 2 21.78 2 33 C-2.62617385 30.68691308 -3.21310325 29.71041284 -5 25 C-5.31119447 22.26933858 -5.47643969 19.84401987 -5.4375 17.125 C-5.43355225 16.42044678 -5.42960449 15.71589355 -5.42553711 14.98999023 C-5.26536197 9.19486714 -4.24334302 4.24334302 0 0 Z " fill="#8A347A" transform="translate(10,19)"/>
<path d="M0 0 C3.65316671 1.24976756 4.78065836 1.67098753 7 5 C6.34 5 5.68 5 5 5 C5.54140625 5.76183594 5.54140625 5.76183594 6.09375 6.5390625 C8.98797464 10.83216238 10.6707301 13.63415923 10 19 C9.01 19 8.02 19 7 19 C6.76925781 18.31292969 6.53851563 17.62585938 6.30078125 16.91796875 C4.35550406 11.237775 4.35550406 11.237775 0.375 6.9375 C-0.40875 6.628125 -1.1925 6.31875 -2 6 C-2.66 5.67 -3.32 5.34 -4 5 C-5.66565749 4.84777027 -7.33656496 4.75082785 -9.0078125 4.68359375 C-9.99394531 4.64169922 -10.98007812 4.59980469 -11.99609375 4.55664062 C-13.54490234 4.49766602 -13.54490234 4.49766602 -15.125 4.4375 C-16.68541016 4.37272461 -16.68541016 4.37272461 -18.27734375 4.30664062 C-20.85142528 4.2003712 -23.42560508 4.09833417 -26 4 C-26.33 3.01 -26.66 2.02 -27 1 C-22.87501462 0.97107615 -18.75005515 0.95322733 -14.625 0.9375 C-12.8615625 0.92493164 -12.8615625 0.92493164 -11.0625 0.91210938 C-9.38027344 0.90727539 -9.38027344 0.90727539 -7.6640625 0.90234375 C-6.10872803 0.89448853 -6.10872803 0.89448853 -4.52197266 0.88647461 C-2 1 -2 1 0 2 C0 1.34 0 0.68 0 0 Z " fill="#8ADDFD" transform="translate(41,9)"/>
<path d="M0 0 C0.66 0.33 1.32 0.66 2 1 C2 4.3 2 7.6 2 11 C-3.32320939 11.72589219 -7.70376361 12.2222084 -13 11 C-13.33 9.68 -13.66 8.36 -14 7 C-14.33 8.32 -14.66 9.64 -15 11 C-15.99 11 -16.98 11 -18 11 C-18 8.36 -18 5.72 -18 3 C-11.25 2.875 -11.25 2.875 -9 4 C-6.99890722 3.67329097 -4.99883869 3.34022786 -3 3 C-2.67 3.33 -2.34 3.66 -2 4 C-1.34 2.68 -0.68 1.36 0 0 Z " fill="#CC6297" transform="translate(167,48)"/>
<path d="M0 0 C2.61520187 0.35204641 3.7355567 0.69310659 5.484375 2.72265625 C8.48653786 8.27295116 9.46846416 13.02812278 9.5 19.25 C9.50612305 19.92297119 9.51224609 20.59594238 9.51855469 21.28930664 C9.40306947 25.87191867 8.29814587 29.06381398 6 33 C5.87625 32.360625 5.7525 31.72125 5.625 31.0625 C5.41875 30.381875 5.2125 29.70125 5 29 C4.34 28.67 3.68 28.34 3 28 C4.32 27.67 5.64 27.34 7 27 C7 22.05 7 17.1 7 12 C6.34 12 5.68 12 5 12 C4.34 14.64 3.68 17.28 3 20 C3.66 20 4.32 20 5 20 C4.34 21.32 3.68 22.64 3 24 C2.34 23.67 1.68 23.34 1 23 C0.34 24.32 -0.32 25.64 -1 27 C-2.32 26.67 -3.64 26.34 -5 26 C-4.01 25.67 -3.02 25.34 -2 25 C-0.83046584 22.57616923 -0.83046584 22.57616923 0 20 C0.33 19.34 0.66 18.68 1 18 C1.09813199 15.50917924 1.13905548 13.05266211 1.125 10.5625 C1.12886719 9.88123047 1.13273437 9.19996094 1.13671875 8.49804688 C1.1306374 5.39351954 0.98890312 2.96670935 0 0 Z " fill="#A568B3" transform="translate(50,17)"/>
<path d="M0 0 C8.625 -0.25 8.625 -0.25 12 2 C12.3984375 3.875 12.3984375 3.875 12.375 6 C12.38273437 6.70125 12.39046875 7.4025 12.3984375 8.125 C12 10 12 10 9 12 C5.97670744 12.2610788 3.04123758 12.08815181 0 12 C0 8.04 0 4.08 0 0 Z " fill="#C5207E" transform="translate(26,22)"/>
<path d="M0 0 C4.41131991 -0.16966615 7.12354057 -0.00075325 11 2 C14.16695956 2.16724737 14.16695956 2.16724737 17 2 C17 4.64 17 7.28 17 10 C11.25 11.125 11.25 11.125 9 10 C8.67 9.01 8.34 8.02 8 7 C4.88214887 7.64644661 4.88214887 7.64644661 4 10 C2.68 10 1.36 10 0 10 C0 6.7 0 3.4 0 0 Z M12 5 C12 5.99 12 6.98 12 8 C12.66 8 13.32 8 14 8 C14 7.01 14 6.02 14 5 C13.34 5 12.68 5 12 5 Z " fill="#BD4D86" transform="translate(131,49)"/>
<path d="M0 0 C0.99 0 1.98 0 3 0 C3 5.61 3 11.22 3 17 C4.93875 16.855625 6.8775 16.71125 8.875 16.5625 C9.96554688 16.48128906 11.05609375 16.40007813 12.1796875 16.31640625 C14.94728971 16.16998297 14.94728971 16.16998297 17 15 C17.72693904 13.02111039 18.39816251 11.02045442 19 9 C19.99 9 20.98 9 22 9 C21.82204674 12.82599506 21.16889895 14.77148965 18.875 17.875 C13.83606922 21.7789241 5.89886825 20.25872229 0 20 C0 13.4 0 6.8 0 0 Z " fill="#8EDBFE" transform="translate(21,19)"/>
<path d="M0 0 C9.57 0 19.14 0 29 0 C29.33 0.99 29.66 1.98 30 3 C21.09 2.67 12.18 2.34 3 2 C3 16.19 3 30.38 3 45 C2.67 45 2.34 45 2 45 C1.97494385 44.00556885 1.9498877 43.0111377 1.92407227 41.98657227 C1.83015118 38.30951253 1.72989381 34.6326485 1.62768555 30.95581055 C1.58427854 29.362107 1.54260781 27.7683552 1.50268555 26.17456055 C1.44512193 23.88836092 1.38138851 21.60240551 1.31640625 19.31640625 C1.29969376 18.59973282 1.28298126 17.88305939 1.26576233 17.14466858 C1.44981346 13.78472618 1.44981346 13.78472618 0 11 C0 7.37 0 3.74 0 0 Z " fill="#47C0F2" transform="translate(11,8)"/>
<path d="M0 0 C1.65 0 3.3 0 5 0 C5 2.64 5 5.28 5 8 C5.66 7.67 6.32 7.34 7 7 C13.22804809 6.54705105 13.22804809 6.54705105 15.7109375 8.00390625 C17.7602846 11.17728919 17.3116371 14.54296211 17.1875 18.1875 C17.16719727 19.31188477 17.16719727 19.31188477 17.14648438 20.45898438 C17.11118539 22.30629767 17.05737917 24.15324066 17 26 C15.68 26 14.36 26 13 26 C12.93941406 25.15695313 12.87882812 24.31390625 12.81640625 23.4453125 C12.73261719 22.34960938 12.64882812 21.25390625 12.5625 20.125 C12.48128906 19.03445312 12.40007812 17.94390625 12.31640625 16.8203125 C12.16998297 14.05271029 12.16998297 14.05271029 11 12 C9.35 12 7.7 12 6 12 C6 11.34 6 10.68 6 10 C5.34 9.67 4.68 9.34 4 9 C4 6.36 4 3.72 4 1 C2.68 0.67 1.36 0.34 0 0 Z " fill="#303030" transform="translate(115,17)"/>
<path d="M0 0 C2.475 0.495 2.475 0.495 5 1 C5.66 0.67 6.32 0.34 7 0 C8.99960012 -0.039992 11.00047242 -0.04346799 13 0 C13 0.33 13 0.66 13 1 C11.02 1.66 9.04 2.32 7 3 C7.33 3.66 7.66 4.32 8 5 C7.34 5 6.68 5 6 5 C4.99740493 8.00778521 4.69685358 10.53820647 4.4375 13.6875 C4.35371094 14.68136719 4.26992187 15.67523438 4.18359375 16.69921875 C4.12300781 17.45847656 4.06242188 18.21773437 4 19 C2.68 19 1.36 19 0 19 C0 12.73 0 6.46 0 0 Z " fill="#282828" transform="translate(137,24)"/>
<path d="M0 0 C1.32 0 2.64 0 4 0 C4.33 2.31 4.66 4.62 5 7 C6.32 6.67 7.64 6.34 9 6 C9 6.99 9 7.98 9 9 C9.99 9 10.98 9 12 9 C12.33 7.35 12.66 5.7 13 4 C13.66 4.33 14.32 4.66 15 5 C15 6.65 15 8.3 15 10 C8.4168772 11.51918219 2.46936952 10.61734238 -4 9 C-2.68 6.03 -1.36 3.06 0 0 Z " fill="#C6528B" transform="translate(85,49)"/>
<path d="M0 0 C0.99 0.33 1.98 0.66 3 1 C3 1.66 3 2.32 3 3 C4.98 3 6.96 3 9 3 C9 3.66 9 4.32 9 5 C9.66 5.33 10.32 5.66 11 6 C10.67 7.65 10.34 9.3 10 11 C9.34 11 8.68 11 8 11 C8 9.35 8 7.7 8 6 C7.34 6 6.68 6 6 6 C6 7.65 6 9.3 6 11 C4.68 11 3.36 11 2 11 C1.67 9.35 1.34 7.7 1 6 C0.01 6.495 0.01 6.495 -1 7 C-1.66 6.67 -2.32 6.34 -3 6 C-3 6.99 -3 7.98 -3 9 C-2.34 9.33 -1.68 9.66 -1 10 C-1.99 10 -2.98 10 -4 10 C-4 9.01 -4 8.02 -4 7 C-5.32 7.33 -6.64 7.66 -8 8 C-7.375 6.0625 -7.375 6.0625 -6 4 C-2.875 3.25 -2.875 3.25 0 3 C0 2.01 0 1.02 0 0 Z " fill="#DD80B1" transform="translate(98,48)"/>
<path d="M0 0 C0.33 0.66 0.66 1.32 1 2 C2.9914056 2.38133299 4.99279077 2.71325582 7 3 C7.66 3.33 8.32 3.66 9 4 C9.33 3.01 9.66 2.02 10 1 C10.99 1.33 11.98 1.66 13 2 C10.99331754 6.92549331 7.58006283 10.05868597 3.0625 12.75 C-2.63404409 15.07512004 -7.94368915 15.10441915 -14 15 C-14.33 14.34 -14.66 13.68 -15 13 C-14.29875 12.96261719 -13.5975 12.92523438 -12.875 12.88671875 C-6.65473822 12.45569518 -1.74172729 11.40108596 4 9 C4.66 9 5.32 9 6 9 C5.67 7.68 5.34 6.36 5 5 C3.68 5 2.36 5 1 5 C0.67 3.35 0.34 1.7 0 0 Z " fill="#CF4E92" transform="translate(42,48)"/>
<path d="M0 0 C0.66 0 1.32 0 2 0 C2 1.98 2 3.96 2 6 C0.35 6.33 -1.3 6.66 -3 7 C-3 6.01 -3 5.02 -3 4 C-4.2684375 4.495 -4.2684375 4.495 -5.5625 5 C-9.20989216 6.06105954 -12.22274664 6.15109013 -16 6 C-16 9.96 -16 13.92 -16 18 C-16.33 18 -16.66 18 -17 18 C-17 13.05 -17 8.1 -17 3 C-15.85660156 2.86722656 -14.71320312 2.73445313 -13.53515625 2.59765625 C-12.0442438 2.4194969 -10.55335982 2.24109918 -9.0625 2.0625 C-7.93038086 1.93198242 -7.93038086 1.93198242 -6.77539062 1.79882812 C-3.07812542 1.65675901 -3.07812542 1.65675901 0 0 Z " fill="#9E3182" transform="translate(43,44)"/>
<path d="M0 0 C3.83195983 4.83160153 4.20630551 8.78812212 4.25 14.8125 C4.2809375 15.86147461 4.2809375 15.86147461 4.3125 16.93164062 C4.34835728 21.72306977 3.44672136 24.89852236 1 29 C0.87625 28.360625 0.7525 27.72125 0.625 27.0625 C0.41875 26.381875 0.2125 25.70125 0 25 C-0.66 24.67 -1.32 24.34 -2 24 C-0.68 23.67 0.64 23.34 2 23 C2 18.05 2 13.1 2 8 C1.34 8 0.68 8 0 8 C-1.125 2.25 -1.125 2.25 0 0 Z " fill="#BC4D89" transform="translate(55,21)"/>
<path d="M0 0 C0.99 0.33 1.98 0.66 3 1 C3 6.61 3 12.22 3 18 C-0.70500184 16.51799926 -3.67262 15.091496 -7 13 C-6.34 12.67 -5.68 12.34 -5 12 C-2.525 12.99 -2.525 12.99 0 14 C0 9.38 0 4.76 0 0 Z " fill="#8ED9FE" transform="translate(21,44)"/>
<path d="M0 0 C8.625 -0.25 8.625 -0.25 12 2 C12.3984375 3.875 12.3984375 3.875 12.375 6 C12.38273437 6.70125 12.39046875 7.4025 12.3984375 8.125 C12 10 12 10 9 12 C5.97670744 12.2610788 3.04123758 12.08815181 0 12 C0 8.04 0 4.08 0 0 Z M1 2 C1 4.97 1 7.94 1 11 C3.64 11 6.28 11 9 11 C9.85974801 8.70705512 9.85974801 8.70705512 10 6 C8.47981752 3.56304526 8.47981752 3.56304526 6 2 C3.33165034 1.66501699 3.33165034 1.66501699 1 2 Z " fill="#872570" transform="translate(26,22)"/>
<path d="M0 0 C7.42857143 -0.28571429 7.42857143 -0.28571429 11 2 C10.01 3.98 9.02 5.96 8 8 C7.01 8 6.02 8 5 8 C4.67 6.68 4.34 5.36 4 4 C3.67 5.32 3.34 6.64 3 8 C2.01 8 1.02 8 0 8 C0 5.36 0 2.72 0 0 Z " fill="#CF74A5" transform="translate(149,51)"/>
<path d="M0 0 C4.62 0 9.24 0 14 0 C13.01 0.33 12.02 0.66 11 1 C11 1.66 11 2.32 11 3 C8.36 3 5.72 3 3 3 C3.33 7.62 3.66 12.24 4 17 C7.3 17.33 10.6 17.66 14 18 C14 18.33 14 18.66 14 19 C10.04 19 6.08 19 2 19 C1.93941406 17.79601562 1.87882812 16.59203125 1.81640625 15.3515625 C1.73200268 13.77602923 1.64735459 12.20050904 1.5625 10.625 C1.50352539 9.43390625 1.50352539 9.43390625 1.44335938 8.21875 C1.31106596 3.97398779 1.31106596 3.97398779 0 0 Z " fill="#58ADEF" transform="translate(22,17)"/>
<path d="M0 0 C0.70395903 2.19009477 1.10121346 3.59726469 0.53344727 5.85644531 C-0.04279246 8.17195321 -0.11375842 10.16375446 -0.09765625 12.546875 C-0.09443359 13.39121094 -0.09121094 14.23554687 -0.08789062 15.10546875 C-0.07951172 15.97816406 -0.07113281 16.85085937 -0.0625 17.75 C-0.05573242 19.08224609 -0.05573242 19.08224609 -0.04882812 20.44140625 C-0.037074 22.62767329 -0.02064249 24.81380179 0 27 C-2.95786144 23.97171329 -3.38629508 21.48241639 -3.41015625 17.30273438 C-3.39855469 16.60470703 -3.38695312 15.90667969 -3.375 15.1875 C-3.38660156 14.50107422 -3.39820313 13.81464844 -3.41015625 13.10742188 C-3.38150351 8.05976437 -2.23371352 4.5206107 0 0 Z " fill="#C7639B" transform="translate(8,21)"/>
<path d="M0 0 C2.31 0 4.62 0 7 0 C7.33 1.65 7.66 3.3 8 5 C5.525 4.01 5.525 4.01 3 3 C3 5.31 3 7.62 3 10 C2.01 10 1.02 10 0 10 C0 6.7 0 3.4 0 0 Z " fill="#BB4B82" transform="translate(131,49)"/>
<path d="M0 0 C-7.12539073 4.41774225 -12.7024212 5.1430617 -21 5 C-21.33 4.34 -21.66 3.68 -22 3 C-21.29875 2.96261719 -20.5975 2.92523438 -19.875 2.88671875 C-15.14517031 2.5589724 -10.91503281 2.17890333 -6.5 0.375 C-3 -1 -3 -1 0 0 Z " fill="#C85B98" transform="translate(49,58)"/>
<path d="M0 0 C0.66 0.33 1.32 0.66 2 1 C2 2.98 2 4.96 2 7 C0.68 7 -0.64 7 -2 7 C-2 5.68 -2 4.36 -2 3 C-2.66 3 -3.32 3 -4 3 C-4.33 4.32 -4.66 5.64 -5 7 C-4.979375 6.21625 -4.95875 5.4325 -4.9375 4.625 C-4.81315937 2.01885039 -4.81315937 2.01885039 -6 0 C-3.4832097 -1.25839515 -2.62168527 -0.81927665 0 0 Z " fill="#D78CB0" transform="translate(113,52)"/>
<path d="M0 0 C1.32 0.66 2.64 1.32 4 2 C4 2.66 4 3.32 4 4 C2.9275 3.83628906 1.855 3.67257812 0.75 3.50390625 C-4.82884555 2.80655056 -10.38649965 2.89183323 -16 2.9375 C-17.59134766 2.94426758 -17.59134766 2.94426758 -19.21484375 2.95117188 C-21.80995598 2.96286157 -24.40494709 2.97924724 -27 3 C-27 2.34 -27 1.68 -27 1 C-22.87501462 0.97107615 -18.75005515 0.95322733 -14.625 0.9375 C-12.8615625 0.92493164 -12.8615625 0.92493164 -11.0625 0.91210938 C-9.38027344 0.90727539 -9.38027344 0.90727539 -7.6640625 0.90234375 C-6.10872803 0.89448853 -6.10872803 0.89448853 -4.52197266 0.88647461 C-2 1 -2 1 0 2 C0 1.34 0 0.68 0 0 Z " fill="#6FDAF8" transform="translate(41,9)"/>
<path d="M0 0 C2.875 -0.125 2.875 -0.125 6 0 C6.66 0.66 7.32 1.32 8 2 C7.625 4.625 7.625 4.625 7 7 C6.34 7 5.68 7 5 7 C5 5.35 5 3.7 5 2 C4.34 2 3.68 2 3 2 C3 3.65 3 5.3 3 7 C2.01 7 1.02 7 0 7 C0 4.69 0 2.38 0 0 Z " fill="#B9407E" transform="translate(101,52)"/>
<path d="M0 0 C0.33 0.66 0.66 1.32 1 2 C1.66 2 2.32 2 3 2 C3 5.63 3 9.26 3 13 C2.01 12.67 1.02 12.34 0 12 C0.33 11.34 0.66 10.68 1 10 C0.34 10 -0.32 10 -1 10 C-0.67 6.7 -0.34 3.4 0 0 Z " fill="#C02D88" transform="translate(54,27)"/>
<path d="M0 0 C2.475 0.99 2.475 0.99 5 2 C5.17700355 6.60209225 5.10814567 8.78370866 3 13 C-0.96 13 -4.92 13 -9 13 C-9 12.67 -9 12.34 -9 12 C-8.37351562 11.93941406 -7.74703125 11.87882812 -7.1015625 11.81640625 C-6.28429687 11.73261719 -5.46703125 11.64882813 -4.625 11.5625 C-3.81289063 11.48128906 -3.00078125 11.40007813 -2.1640625 11.31640625 C0.04272805 11.10909886 0.04272805 11.10909886 2 10 C2.46523063 8.10466658 2.46523063 8.10466658 2.625 5.9375 C2.74875 4.638125 2.8725 3.33875 3 2 C2.01 1.67 1.02 1.34 0 1 C0 0.67 0 0.34 0 0 Z " fill="#5292CD" transform="translate(35,22)"/>
<path d="M0 0 C2.97 0 5.94 0 9 0 C7.35 1.32 5.7 2.64 4 4 C3.67 3.34 3.34 2.68 3 2 C2.34 2 1.68 2 1 2 C0.67 2.99 0.34 3.98 0 5 C-0.99 5.33 -1.98 5.66 -3 6 C-3.66 6.66 -4.32 7.32 -5 8 C-5 5.69 -5 3.38 -5 1 C-3.68 1.33 -2.36 1.66 -1 2 C-0.67 1.34 -0.34 0.68 0 0 Z " fill="#DE87BA" transform="translate(139,51)"/>
<path d="M0 0 C1.37478516 0.01740234 1.37478516 0.01740234 2.77734375 0.03515625 C3.69644531 0.04417969 4.61554688 0.05320313 5.5625 0.0625 C6.27277344 0.07410156 6.98304688 0.08570313 7.71484375 0.09765625 C7.05484375 1.41765625 6.39484375 2.73765625 5.71484375 4.09765625 C2.33984375 4.28515625 2.33984375 4.28515625 -1.28515625 4.09765625 C-1.94515625 3.10765625 -2.60515625 2.11765625 -3.28515625 1.09765625 C-2.28515625 0.09765625 -2.28515625 0.09765625 0 0 Z " fill="#1B1B1B" transform="translate(205.28515625,38.90234375)"/>
<path d="M0 0 C0.33 1.65 0.66 3.3 1 5 C-2.06246747 6.78409802 -4.22079273 7.22880021 -7.75 7.125 C-8.54921875 7.10695313 -9.3484375 7.08890625 -10.171875 7.0703125 C-10.77515625 7.04710937 -11.3784375 7.02390625 -12 7 C-12 6.67 -12 6.34 -12 6 C-9.69 6 -7.38 6 -5 6 C-5 4.68 -5 3.36 -5 2 C-2 0 -2 0 0 0 Z " fill="#525252" transform="translate(110,36)"/>
<path d="M0 0 C0.66 0.33 1.32 0.66 2 1 C2 2.65 2 4.3 2 6 C-3.625 7.125 -3.625 7.125 -7 6 C-7.33 5.01 -7.66 4.02 -8 3 C-6.68 2.67 -5.36 2.34 -4 2 C-4 2.99 -4 3.98 -4 5 C-3.01 5 -2.02 5 -1 5 C-0.67 3.35 -0.34 1.7 0 0 Z " fill="#BD3C7B" transform="translate(98,53)"/>
<path d="M0 0 C0.33 1.32 0.66 2.64 1 4 C-3.625 7 -3.625 7 -7 7 C-7.33 6.01 -7.66 5.02 -8 4 C-6.865625 3.525625 -5.73125 3.05125 -4.5625 2.5625 C-1.24259834 1.36377917 -1.24259834 1.36377917 0 0 Z " fill="#5DA5FA" transform="translate(45,36)"/>
<path d="M0 0 C1 3 1 3 -0.6875 6.5625 C-2.39805336 9.38759509 -3.7558811 10.95724749 -7 12 C-6.49396008 9.83125748 -6.00016187 8.00032373 -5 6 C-4.34 6 -3.68 6 -3 6 C-2.67 4.68 -2.34 3.36 -2 2 C-1.34 2 -0.68 2 0 2 C0 1.34 0 0.68 0 0 Z " fill="#50A2E7" transform="translate(51,32)"/>
<path d="M0 0 C1.65 0 3.3 0 5 0 C5 1.32 5 2.64 5 4 C3.35 4.33 1.7 4.66 0 5 C0 3.35 0 1.7 0 0 Z " fill="#CD378D" transform="translate(27,28)"/>
<path d="M0 0 C1.32 0.33 2.64 0.66 4 1 C5.29676812 5.61073111 4.71109139 9.33840089 4 14 C3.67 14 3.34 14 3 14 C2.95101562 13.40832031 2.90203125 12.81664062 2.8515625 12.20703125 C2.43543133 7.80895528 1.95034405 4.03071103 0 0 Z " fill="#A65599" transform="translate(50,17)"/>
<path d="M0 0 C0.66 0.66 1.32 1.32 2 2 C1.72317437 6.24465971 0.81645906 8.81617671 -2 12 C-2 10.68 -2 9.36 -2 8 C-2.66 7.67 -3.32 7.34 -4 7 C-2.68 6.67 -1.36 6.34 0 6 C0 4.02 0 2.04 0 0 Z " fill="#D05B9D" transform="translate(57,38)"/>
<path d="M0 0 C2.4375 0.375 2.4375 0.375 5 1 C5.33 1.66 5.66 2.32 6 3 C5.34 3 4.68 3 4 3 C4.99 4.485 4.99 4.485 6 6 C5.625 8.1875 5.625 8.1875 5 10 C4.16121545 8.71186658 3.32913217 7.41936744 2.5 6.125 C2.0359375 5.40570312 1.571875 4.68640625 1.09375 3.9453125 C0 2 0 2 0 0 Z " fill="#65A4D1" transform="translate(46,14)"/>
<path d="M0 0 C4.455 0.99 4.455 0.99 9 2 C9.33 3.32 9.66 4.64 10 6 C6.40992874 4.66654496 3.20429093 3.1056769 0 1 C0 0.67 0 0.34 0 0 Z " fill="#A7D5F4" transform="translate(14,56)"/>
<path d="M0 0 C2.53541298 0.09086451 5.03554784 0.2370945 7.5625 0.4375 C8.62887695 0.51581055 8.62887695 0.51581055 9.71679688 0.59570312 C11.47821999 0.72574107 13.23916173 0.86226897 15 1 C15 1.33 15 1.66 15 2 C14.09636719 2.06058594 13.19273438 2.12117188 12.26171875 2.18359375 C11.08222656 2.26738281 9.90273438 2.35117187 8.6875 2.4375 C7.51574219 2.51871094 6.34398437 2.59992187 5.13671875 2.68359375 C1.97409042 2.8867371 1.97409042 2.8867371 -1 4 C-1 1 -1 1 0 0 Z " fill="#4CABFA" transform="translate(26,43)"/>
<path d="M0 0 C0.99 0 1.98 0 3 0 C3 3.3 3 6.6 3 10 C2.34 10 1.68 10 1 10 C0.67 6.7 0.34 3.4 0 0 Z " fill="#A66082" transform="translate(114,49)"/>
<path d="M0 0 C1.5625 1.75 1.5625 1.75 3 4 C2.6875 6.25 2.6875 6.25 2 8 C1.34 8 0.68 8 0 8 C-1.125 2.25 -1.125 2.25 0 0 Z " fill="#CE4D91" transform="translate(55,21)"/>
<path d="M0 0 C1.32 0 2.64 0 4 0 C3.67 1.98 3.34 3.96 3 6 C2.34 6 1.68 6 1 6 C-0.0625 4.125 -0.0625 4.125 -1 2 C-0.67 1.34 -0.34 0.68 0 0 Z " fill="#D874A3" transform="translate(85,49)"/>
<path d="M0 0 C0.33 0.66 0.66 1.32 1 2 C0.01 3.32 -0.98 4.64 -2 6 C-3.32 5.67 -4.64 5.34 -6 5 C-5.01 4.67 -4.02 4.34 -3 4 C-2.67 3.01 -2.34 2.02 -2 1 C-1.34 0.67 -0.68 0.34 0 0 Z " fill="#A33D9A" transform="translate(51,38)"/>
<path d="M0 0 C0.66 0 1.32 0 2 0 C2 2.64 2 5.28 2 8 C1.67 7.34 1.34 6.68 1 6 C0.34 6 -0.32 6 -1 6 C-0.67 4.02 -0.34 2.04 0 0 Z " fill="#CE2184" transform="translate(55,29)"/>
</svg>
